<?xml version="1.0" encoding="UTF-8" standalone="no"?><svg xmlns="http://www.w3.org/2000/svg" xmlns:xlink="http://www.w3.org/1999/xlink" contentScriptType="application/ecmascript" contentStyleType="text/css" height="141px" preserveAspectRatio="none" style="width:794px;height:141px;background:#FFFFFF;" version="1.1" viewBox="0 0 794 141" width="794px" zoomAndPan="magnify"><defs><filter height="300%" id="fs979tug8lkxq" width="300%" x="-1" y="-1"><feGaussianBlur result="blurOut" stdDeviation="2.0"/><feColorMatrix in="blurOut" result="blurOut2" type="matrix" values="0 0 0 0 0 0 0 0 0 0 0 0 0 0 0 0 0 0 .4 0"/><feOffset dx="4.0" dy="4.0" in="blurOut2" result="blurOut3"/><feBlend in="SourceGraphic" in2="blurOut3" mode="normal"/></filter></defs><g><!--MD5=[9718866a21939bb80ddc88a1ecd2177b]
cluster nl.talsmasoftware.umldoclet.uml.util--><polygon fill="#FFFFFF" filter="url(#fs979tug8lkxq)" points="16,6,307,6,314,28.2969,777,28.2969,777,118,16,118,16,6" style="stroke:#000000;stroke-width:1.5;"/><line style="stroke:#000000;stroke-width:1.5;" x1="16" x2="314" y1="28.2969" y2="28.2969"/><text fill="#000000" font-family="sans-serif" font-size="14" font-weight="bold" lengthAdjust="spacing" textLength="285" x="20" y="20.9951">nl.talsmasoftware.umldoclet.uml.util</text><!--MD5=[493f40881e658771993044132a8089b0]
class nl.talsmasoftware.umldoclet.uml.util.JavaBeanProperty--><a href="JavaBeanProperty.html" target="_top" title="JavaBeanProperty.html" xlink:actuate="onRequest" xlink:href="JavaBeanProperty.html" xlink:show="new" xlink:title="JavaBeanProperty.html" xlink:type="simple"><rect codeLine="3" fill="#FEFECE" filter="url(#fs979tug8lkxq)" height="60.8047" id="nl.talsmasoftware.umldoclet.uml.util.JavaBeanProperty" style="stroke:#A80036;stroke-width:1.5;" width="306" x="455" y="41"/><ellipse cx="548.75" cy="57" fill="#ADD1B2" rx="11" ry="11" style="stroke:#A80036;stroke-width:1.0;"/><path d="M551.7188,62.6406 Q551.1406,62.9375 550.5,63.0781 Q549.8594,63.2344 549.1563,63.2344 Q546.6563,63.2344 545.3281,61.5938 Q544.0156,59.9375 544.0156,56.8125 Q544.0156,53.6875 545.3281,52.0313 Q546.6563,50.375 549.1563,50.375 Q549.8594,50.375 550.5,50.5313 Q551.1563,50.6875 551.7188,50.9844 L551.7188,53.7031 Q551.0938,53.125 550.5,52.8594 Q549.9063,52.5781 549.2813,52.5781 Q547.9375,52.5781 547.25,53.6563 Q546.5625,54.7188 546.5625,56.8125 Q546.5625,58.9063 547.25,59.9844 Q547.9375,61.0469 549.2813,61.0469 Q549.9063,61.0469 550.5,60.7813 Q551.0938,60.5 551.7188,59.9219 L551.7188,62.6406 Z " fill="#000000"/><text fill="#000000" font-family="sans-serif" font-size="12" lengthAdjust="spacing" textLength="110" x="569.25" y="61.1543">JavaBeanProperty</text><line style="stroke:#A80036;stroke-width:1.5;" x1="456" x2="760" y1="73" y2="73"/><line style="stroke:#A80036;stroke-width:1.5;" x1="456" x2="760" y1="81" y2="81"/><ellipse cx="466" cy="92" fill="#84BE84" rx="3" ry="3" style="stroke:#038048;stroke-width:1.0;"/><text fill="#000000" font-family="sans-serif" font-size="11" lengthAdjust="spacing" text-decoration="underline" textLength="280" x="475" y="95.2104">detectFrom(Type): Collection&lt;JavaBeanProperty&gt;</text></a><!--MD5=[6a04ba956e50e419cb267f91ff4ddf54]
class nl.talsmasoftware.umldoclet.uml.util.UmlPostProcessors--><a href="UmlPostProcessors.html" target="_top" title="UmlPostProcessors.html" xlink:actuate="onRequest" xlink:href="UmlPostProcessors.html" xlink:show="new" xlink:title="UmlPostProcessors.html" xlink:type="simple"><rect codeLine="7" fill="#FEFECE" filter="url(#fs979tug8lkxq)" height="60.8047" id="nl.talsmasoftware.umldoclet.uml.util.UmlPostProcessors" style="stroke:#A80036;stroke-width:1.5;" width="387" x="32.5" y="41"/><ellipse cx="161.25" cy="57" fill="#ADD1B2" rx="11" ry="11" style="stroke:#A80036;stroke-width:1.0;"/><path d="M164.2188,62.6406 Q163.6406,62.9375 163,63.0781 Q162.3594,63.2344 161.6563,63.2344 Q159.1563,63.2344 157.8281,61.5938 Q156.5156,59.9375 156.5156,56.8125 Q156.5156,53.6875 157.8281,52.0313 Q159.1563,50.375 161.6563,50.375 Q162.3594,50.375 163,50.5313 Q163.6563,50.6875 164.2188,50.9844 L164.2188,53.7031 Q163.5938,53.125 163,52.8594 Q162.4063,52.5781 161.7813,52.5781 Q160.4375,52.5781 159.75,53.6563 Q159.0625,54.7188 159.0625,56.8125 Q159.0625,58.9063 159.75,59.9844 Q160.4375,61.0469 161.7813,61.0469 Q162.4063,61.0469 163,60.7813 Q163.5938,60.5 164.2188,59.9219 L164.2188,62.6406 Z " fill="#000000"/><text fill="#000000" font-family="sans-serif" font-size="12" lengthAdjust="spacing" textLength="121" x="181.75" y="61.1543">UmlPostProcessors</text><line style="stroke:#A80036;stroke-width:1.5;" x1="33.5" x2="418.5" y1="73" y2="73"/><line style="stroke:#A80036;stroke-width:1.5;" x1="33.5" x2="418.5" y1="81" y2="81"/><ellipse cx="43.5" cy="92" fill="#84BE84" rx="3" ry="3" style="stroke:#038048;stroke-width:1.0;"/><text fill="#000000" font-family="sans-serif" font-size="11" lengthAdjust="spacing" textLength="361" x="52.5" y="95.2104">javaBeanPropertiesAsFieldsPostProcessor(): Consumer&lt;Type&gt;</text></a><text fill="#888888" font-family="sans-serif" font-size="10" lengthAdjust="spacing" textLength="186" x="297.5" y="133.2822">UMLDoclet 2.0.14, PlantUML 1.2021.9</text><!--MD5=[bff2f757748b9f96b07639eadce87013]
@startuml
    namespace nl.talsmasoftware.umldoclet.uml.util {

        class JavaBeanProperty [[JavaBeanProperty.html]] {
            {static} +detectFrom(Type): Collection<JavaBeanProperty>
        }

        class UmlPostProcessors [[UmlPostProcessors.html]] {
            +javaBeanPropertiesAsFieldsPostProcessor(): Consumer<Type>
        }

    }

    center footer UMLDoclet 2.0.14, PlantUML 1.2021.9
@enduml

PlantUML version 1.2021.9(Sun Jul 25 10:13:56 UTC 2021)
(APACHE source distribution)
Java Runtime: OpenJDK Runtime Environment
JVM: OpenJDK 64-Bit Server VM
Default Encoding: UTF-8
Language: en
Country: null
--></g></svg>