<?xml version="1.0" encoding="UTF-8" standalone="no"?><svg xmlns="http://www.w3.org/2000/svg" xmlns:xlink="http://www.w3.org/1999/xlink" contentScriptType="application/ecmascript" contentStyleType="text/css" height="205px" preserveAspectRatio="none" style="width:610px;height:205px;background:#FFFFFF;" version="1.1" viewBox="0 0 610 205" width="610px" zoomAndPan="magnify"><defs><filter height="300%" id="f1nawauncyuvc6" width="300%" x="-1" y="-1"><feGaussianBlur result="blurOut" stdDeviation="2.0"/><feColorMatrix in="blurOut" result="blurOut2" type="matrix" values="0 0 0 0 0 0 0 0 0 0 0 0 0 0 0 0 0 0 .4 0"/><feOffset dx="4.0" dy="4.0" in="blurOut2" result="blurOut3"/><feBlend in="SourceGraphic" in2="blurOut3" mode="normal"/></filter></defs><g><!--MD5=[c2a83d361abfd36342491ff94a12f6ab]
cluster nl.talsmasoftware.umldoclet.util--><polygon fill="#FFFFFF" filter="url(#f1nawauncyuvc6)" points="16,6,274,6,281,28.2969,593,28.2969,593,182,16,182,16,6" style="stroke:#000000;stroke-width:1.5;"/><line style="stroke:#000000;stroke-width:1.5;" x1="16" x2="281" y1="28.2969" y2="28.2969"/><text fill="#000000" font-family="sans-serif" font-size="14" font-weight="bold" lengthAdjust="spacing" textLength="252" x="20" y="20.9951">nl.talsmasoftware.umldoclet.util</text><!--MD5=[a9b06750a4d079a8db1c48f82ea740d3]
class nl.talsmasoftware.umldoclet.util.FileUtils--><a href="FileUtils.html" target="_top" title="FileUtils.html" xlink:actuate="onRequest" xlink:href="FileUtils.html" xlink:show="new" xlink:title="FileUtils.html" xlink:type="simple"><rect codeLine="3" fill="#FEFECE" filter="url(#f1nawauncyuvc6)" height="124.8281" id="nl.talsmasoftware.umldoclet.util.FileUtils" style="stroke:#A80036;stroke-width:1.5;" width="266" x="311" y="41"/><ellipse cx="415.75" cy="57" fill="#ADD1B2" rx="11" ry="11" style="stroke:#A80036;stroke-width:1.0;"/><path d="M418.7188,62.6406 Q418.1406,62.9375 417.5,63.0781 Q416.8594,63.2344 416.1563,63.2344 Q413.6563,63.2344 412.3281,61.5938 Q411.0156,59.9375 411.0156,56.8125 Q411.0156,53.6875 412.3281,52.0313 Q413.6563,50.375 416.1563,50.375 Q416.8594,50.375 417.5,50.5313 Q418.1563,50.6875 418.7188,50.9844 L418.7188,53.7031 Q418.0938,53.125 417.5,52.8594 Q416.9063,52.5781 416.2813,52.5781 Q414.9375,52.5781 414.25,53.6563 Q413.5625,54.7188 413.5625,56.8125 Q413.5625,58.9063 414.25,59.9844 Q414.9375,61.0469 416.2813,61.0469 Q416.9063,61.0469 417.5,60.7813 Q418.0938,60.5 418.7188,59.9219 L418.7188,62.6406 Z " fill="#000000"/><text fill="#000000" font-family="sans-serif" font-size="12" lengthAdjust="spacing" textLength="48" x="436.25" y="61.1543">FileUtils</text><line style="stroke:#A80036;stroke-width:1.5;" x1="312" x2="576" y1="73" y2="73"/><line style="stroke:#A80036;stroke-width:1.5;" x1="312" x2="576" y1="81" y2="81"/><ellipse cx="322" cy="92" fill="#84BE84" rx="3" ry="3" style="stroke:#038048;stroke-width:1.0;"/><text fill="#000000" font-family="sans-serif" font-size="11" lengthAdjust="spacing" text-decoration="underline" textLength="163" x="331" y="95.2104">relativePath(File, File): String</text><ellipse cx="322" cy="104.8047" fill="#84BE84" rx="3" ry="3" style="stroke:#038048;stroke-width:1.0;"/><text fill="#000000" font-family="sans-serif" font-size="11" lengthAdjust="spacing" text-decoration="underline" textLength="147" x="331" y="108.0151">ensureParentDir(File): File</text><ellipse cx="322" cy="117.6094" fill="#84BE84" rx="3" ry="3" style="stroke:#038048;stroke-width:1.0;"/><text fill="#000000" font-family="sans-serif" font-size="11" lengthAdjust="spacing" text-decoration="underline" textLength="147" x="331" y="120.8198">fileNameOf(String): String</text><ellipse cx="322" cy="130.4141" fill="#84BE84" rx="3" ry="3" style="stroke:#038048;stroke-width:1.0;"/><text fill="#000000" font-family="sans-serif" font-size="11" lengthAdjust="spacing" text-decoration="underline" textLength="180" x="331" y="133.6245">withoutExtension(String): String</text><ellipse cx="322" cy="143.2188" fill="#84BE84" rx="3" ry="3" style="stroke:#038048;stroke-width:1.0;"/><text fill="#000000" font-family="sans-serif" font-size="11" lengthAdjust="spacing" text-decoration="underline" textLength="240" x="331" y="146.4292">openReaderTo(String, URI, String): Reader</text><ellipse cx="322" cy="156.0234" fill="#84BE84" rx="3" ry="3" style="stroke:#038048;stroke-width:1.0;"/><text fill="#000000" font-family="sans-serif" font-size="11" lengthAdjust="spacing" text-decoration="underline" textLength="215" x="331" y="159.2339">hasExtension(Object, String): boolean</text></a><!--MD5=[ecb5564f25ed1f3de3726f8913807da3]
class nl.talsmasoftware.umldoclet.util.UriUtils--><a href="UriUtils.html" target="_top" title="UriUtils.html" xlink:actuate="onRequest" xlink:href="UriUtils.html" xlink:show="new" xlink:title="UriUtils.html" xlink:type="simple"><rect codeLine="12" fill="#FEFECE" filter="url(#f1nawauncyuvc6)" height="73.6094" id="nl.talsmasoftware.umldoclet.util.UriUtils" style="stroke:#A80036;stroke-width:1.5;" width="243" x="32.5" y="66.5"/><ellipse cx="127.75" cy="82.5" fill="#ADD1B2" rx="11" ry="11" style="stroke:#A80036;stroke-width:1.0;"/><path d="M130.7188,88.1406 Q130.1406,88.4375 129.5,88.5781 Q128.8594,88.7344 128.1563,88.7344 Q125.6563,88.7344 124.3281,87.0938 Q123.0156,85.4375 123.0156,82.3125 Q123.0156,79.1875 124.3281,77.5313 Q125.6563,75.875 128.1563,75.875 Q128.8594,75.875 129.5,76.0313 Q130.1563,76.1875 130.7188,76.4844 L130.7188,79.2031 Q130.0938,78.625 129.5,78.3594 Q128.9063,78.0781 128.2813,78.0781 Q126.9375,78.0781 126.25,79.1563 Q125.5625,80.2188 125.5625,82.3125 Q125.5625,84.4063 126.25,85.4844 Q126.9375,86.5469 128.2813,86.5469 Q128.9063,86.5469 129.5,86.2813 Q130.0938,86 130.7188,85.4219 L130.7188,88.1406 Z " fill="#000000"/><text fill="#000000" font-family="sans-serif" font-size="12" lengthAdjust="spacing" textLength="44" x="148.25" y="86.6543">UriUtils</text><line style="stroke:#A80036;stroke-width:1.5;" x1="33.5" x2="274.5" y1="98.5" y2="98.5"/><line style="stroke:#A80036;stroke-width:1.5;" x1="33.5" x2="274.5" y1="106.5" y2="106.5"/><ellipse cx="43.5" cy="117.5" fill="#84BE84" rx="3" ry="3" style="stroke:#038048;stroke-width:1.0;"/><text fill="#000000" font-family="sans-serif" font-size="11" lengthAdjust="spacing" text-decoration="underline" textLength="205" x="52.5" y="120.7104">addPathComponent(URI, String): URI</text><ellipse cx="43.5" cy="130.3047" fill="#84BE84" rx="3" ry="3" style="stroke:#038048;stroke-width:1.0;"/><text fill="#000000" font-family="sans-serif" font-size="11" lengthAdjust="spacing" text-decoration="underline" textLength="217" x="52.5" y="133.5151">addHttpParam(URI, String, String): URI</text></a><text fill="#888888" font-family="sans-serif" font-size="10" lengthAdjust="spacing" textLength="186" x="205.5" y="197.2822">UMLDoclet 2.0.14, PlantUML 1.2021.9</text><!--MD5=[59450af2ef40d2d555860b5727d1430a]
@startuml
    namespace nl.talsmasoftware.umldoclet.util {

        class FileUtils [[FileUtils.html]] {
            {static} +relativePath(File, File): String
            {static} +ensureParentDir(File): File
            {static} +fileNameOf(String): String
            {static} +withoutExtension(String): String
            {static} +openReaderTo(String, URI, String): Reader
            {static} +hasExtension(Object, String): boolean
        }

        class UriUtils [[UriUtils.html]] {
            {static} +addPathComponent(URI, String): URI
            {static} +addHttpParam(URI, String, String): URI
        }

    }

    center footer UMLDoclet 2.0.14, PlantUML 1.2021.9
@enduml

PlantUML version 1.2021.9(Sun Jul 25 10:13:56 UTC 2021)
(APACHE source distribution)
Java Runtime: OpenJDK Runtime Environment
JVM: OpenJDK 64-Bit Server VM
Default Encoding: UTF-8
Language: en
Country: null
--></g></svg>