<?xml version="1.0" encoding="UTF-8" standalone="no"?><svg xmlns="http://www.w3.org/2000/svg" xmlns:xlink="http://www.w3.org/1999/xlink" contentScriptType="application/ecmascript" contentStyleType="text/css" height="103px" preserveAspectRatio="none" style="width:264px;height:103px;background:#FFFFFF;" version="1.1" viewBox="0 0 264 103" width="264px" zoomAndPan="magnify"><defs><filter height="300%" id="fsdo68sviujtf" width="300%" x="-1" y="-1"><feGaussianBlur result="blurOut" stdDeviation="2.0"/><feColorMatrix in="blurOut" result="blurOut2" type="matrix" values="0 0 0 0 0 0 0 0 0 0 0 0 0 0 0 0 0 0 .4 0"/><feOffset dx="4.0" dy="4.0" in="blurOut2" result="blurOut3"/><feBlend in="SourceGraphic" in2="blurOut3" mode="normal"/></filter></defs><g><!--MD5=[ecb5564f25ed1f3de3726f8913807da3]
class nl.talsmasoftware.umldoclet.util.UriUtils--><a href="UriUtils.html" target="_top" title="UriUtils.html" xlink:actuate="onRequest" xlink:href="UriUtils.html" xlink:show="new" xlink:title="UriUtils.html" xlink:type="simple"><rect codeLine="5" fill="#FEFECE" filter="url(#fsdo68sviujtf)" height="71.5469" id="nl.talsmasoftware.umldoclet.util.UriUtils" style="stroke:#A80036;stroke-width:1.5;" width="243" x="7" y="7"/><ellipse cx="47.65" cy="25.9688" fill="#ADD1B2" rx="11" ry="11" style="stroke:#A80036;stroke-width:1.0;"/><path d="M50.6188,31.6094 Q50.0406,31.9063 49.4,32.0469 Q48.7594,32.2031 48.0563,32.2031 Q45.5563,32.2031 44.2281,30.5625 Q42.9156,28.9063 42.9156,25.7813 Q42.9156,22.6563 44.2281,21 Q45.5563,19.3438 48.0563,19.3438 Q48.7594,19.3438 49.4,19.5 Q50.0563,19.6563 50.6188,19.9531 L50.6188,22.6719 Q49.9938,22.0938 49.4,21.8281 Q48.8063,21.5469 48.1813,21.5469 Q46.8375,21.5469 46.15,22.625 Q45.4625,23.6875 45.4625,25.7813 Q45.4625,27.875 46.15,28.9531 Q46.8375,30.0156 48.1813,30.0156 Q48.8063,30.0156 49.4,29.75 Q49.9938,29.4688 50.6188,28.8906 L50.6188,31.6094 Z " fill="#000000"/><text fill="#000000" font-family="sans-serif" font-size="14" lengthAdjust="spacing" textLength="47" x="120.85" y="24.9951">UriUtils</text><text fill="#000000" font-family="sans-serif" font-size="10" lengthAdjust="spacing" textLength="154" x="67.35" y="37.5791">nl.talsmasoftware.umldoclet.util</text><line style="stroke:#A80036;stroke-width:1.5;" x1="8" x2="249" y1="44.9375" y2="44.9375"/><ellipse cx="18" cy="55.9375" fill="#84BE84" rx="3" ry="3" style="stroke:#038048;stroke-width:1.0;"/><text fill="#000000" font-family="sans-serif" font-size="11" lengthAdjust="spacing" text-decoration="underline" textLength="205" x="27" y="59.1479">addPathComponent(URI, String): URI</text><ellipse cx="18" cy="68.7422" fill="#84BE84" rx="3" ry="3" style="stroke:#038048;stroke-width:1.0;"/><text fill="#000000" font-family="sans-serif" font-size="11" lengthAdjust="spacing" text-decoration="underline" textLength="217" x="27" y="71.9526">addHttpParam(URI, String, String): URI</text></a><text fill="#888888" font-family="sans-serif" font-size="10" lengthAdjust="spacing" textLength="186" x="35.5" y="94.8291">UMLDoclet 2.0.14, PlantUML 1.2021.9</text><!--MD5=[d54bb04ca80d8cfa20bd0888f536ce6a]
@startuml
    set namespaceSeparator none
    hide empty fields
    hide empty methods

    class "<size:14>UriUtils\n<size:10>nl.talsmasoftware.umldoclet.util" as nl.talsmasoftware.umldoclet.util.UriUtils [[UriUtils.html]] {
        {static} +addPathComponent(URI, String): URI
        {static} +addHttpParam(URI, String, String): URI
    }

    center footer UMLDoclet 2.0.14, PlantUML 1.2021.9
@enduml

PlantUML version 1.2021.9(Sun Jul 25 10:13:56 UTC 2021)
(APACHE source distribution)
Java Runtime: OpenJDK Runtime Environment
JVM: OpenJDK 64-Bit Server VM
Default Encoding: UTF-8
Language: en
Country: null
--></g></svg>