<?xml version="1.0" encoding="UTF-8" standalone="no"?><svg xmlns="http://www.w3.org/2000/svg" xmlns:xlink="http://www.w3.org/1999/xlink" contentScriptType="application/ecmascript" contentStyleType="text/css" height="274px" preserveAspectRatio="none" style="width:501px;height:274px;background:#FFFFFF;" version="1.1" viewBox="0 0 501 274" width="501px" zoomAndPan="magnify"><defs><filter height="300%" id="f1pkg5u45jg9mk" width="300%" x="-1" y="-1"><feGaussianBlur result="blurOut" stdDeviation="2.0"/><feColorMatrix in="blurOut" result="blurOut2" type="matrix" values="0 0 0 0 0 0 0 0 0 0 0 0 0 0 0 0 0 0 .4 0"/><feOffset dx="4.0" dy="4.0" in="blurOut2" result="blurOut3"/><feBlend in="SourceGraphic" in2="blurOut3" mode="normal"/></filter></defs><g><!--MD5=[200fbfb0006ba8fc3a753415c15926d4]
class nl.talsmasoftware.umldoclet.javadoc.dependencies.DependenciesElementScanner--><a href="DependenciesElementScanner.html" target="_top" title="DependenciesElementScanner.html" xlink:actuate="onRequest" xlink:href="DependenciesElementScanner.html" xlink:show="new" xlink:title="DependenciesElementScanner.html" xlink:type="simple"><rect codeLine="5" fill="#FEFECE" filter="url(#f1pkg5u45jg9mk)" height="135.5703" id="nl.talsmasoftware.umldoclet.javadoc.dependencies.DependenciesElementScanner" style="stroke:#A80036;stroke-width:1.5;" width="480" x="7" y="108"/><ellipse cx="119.75" cy="126.9688" fill="#ADD1B2" rx="11" ry="11" style="stroke:#A80036;stroke-width:1.0;"/><path d="M122.7188,132.6094 Q122.1406,132.9063 121.5,133.0469 Q120.8594,133.2031 120.1563,133.2031 Q117.6563,133.2031 116.3281,131.5625 Q115.0156,129.9063 115.0156,126.7813 Q115.0156,123.6563 116.3281,122 Q117.6563,120.3438 120.1563,120.3438 Q120.8594,120.3438 121.5,120.5 Q122.1563,120.6563 122.7188,120.9531 L122.7188,123.6719 Q122.0938,123.0938 121.5,122.8281 Q120.9063,122.5469 120.2813,122.5469 Q118.9375,122.5469 118.25,123.625 Q117.5625,124.6875 117.5625,126.7813 Q117.5625,128.875 118.25,129.9531 Q118.9375,131.0156 120.2813,131.0156 Q120.9063,131.0156 121.5,130.75 Q122.0938,130.4688 122.7188,129.8906 L122.7188,132.6094 Z " fill="#000000"/><text fill="#000000" font-family="sans-serif" font-size="14" lengthAdjust="spacing" textLength="216" x="155.25" y="125.9951">DependenciesElementScanner</text><text fill="#000000" font-family="sans-serif" font-size="10" lengthAdjust="spacing" textLength="246" x="140.25" y="138.5791">nl.talsmasoftware.umldoclet.javadoc.dependencies</text><line style="stroke:#A80036;stroke-width:1.5;" x1="8" x2="486" y1="145.9375" y2="145.9375"/><ellipse cx="18" cy="156.9375" fill="#84BE84" rx="3" ry="3" style="stroke:#038048;stroke-width:1.0;"/><text fill="#000000" font-family="sans-serif" font-size="11" lengthAdjust="spacing" textLength="371" x="27" y="160.1479">DependenciesElementScanner(DocletEnvironment, Configuration)</text><ellipse cx="18" cy="169.7422" fill="#84BE84" rx="3" ry="3" style="stroke:#038048;stroke-width:1.0;"/><text fill="#000000" font-family="sans-serif" font-size="11" lengthAdjust="spacing" textLength="374" x="27" y="172.9526">visitPackage(PackageElement, String): Set&lt;PackageDependency&gt;</text><ellipse cx="18" cy="182.5469" fill="#84BE84" rx="3" ry="3" style="stroke:#038048;stroke-width:1.0;"/><text fill="#000000" font-family="sans-serif" font-size="11" lengthAdjust="spacing" textLength="334" x="27" y="185.7573">visitType(TypeElement, String): Set&lt;PackageDependency&gt;</text><ellipse cx="18" cy="195.3516" fill="#84BE84" rx="3" ry="3" style="stroke:#038048;stroke-width:1.0;"/><text fill="#000000" font-family="sans-serif" font-size="11" lengthAdjust="spacing" textLength="372" x="27" y="198.562">visitVariable(VariableElement, String): Set&lt;PackageDependency&gt;</text><ellipse cx="18" cy="208.1563" fill="#84BE84" rx="3" ry="3" style="stroke:#038048;stroke-width:1.0;"/><text fill="#000000" font-family="sans-serif" font-size="11" lengthAdjust="spacing" textLength="402" x="27" y="211.3667">visitExecutable(ExecutableElement, String): Set&lt;PackageDependency&gt;</text><ellipse cx="18" cy="220.9609" fill="#84BE84" rx="3" ry="3" style="stroke:#038048;stroke-width:1.0;"/><text fill="#000000" font-family="sans-serif" font-size="11" lengthAdjust="spacing" textLength="454" x="27" y="224.1714">visitTypeParameter(TypeParameterElement, String): Set&lt;PackageDependency&gt;</text><ellipse cx="18" cy="233.7656" fill="#84BE84" rx="3" ry="3" style="stroke:#038048;stroke-width:1.0;"/><text fill="#000000" font-family="sans-serif" font-size="11" lengthAdjust="spacing" textLength="331" x="27" y="236.9761">visitUnknown(Element, String): Set&lt;PackageDependency&gt;</text></a><!--MD5=[4529555f0f46579b6fb04677f796ad76]
class javax.lang.model.util.ElementScanner9--><a href="https://docs.oracle.com/javase/9/docs/api/javax/lang/model/util/ElementScanner9.html?is-external=true" target="_top" title="https://docs.oracle.com/javase/9/docs/api/javax/lang/model/util/ElementScanner9.html?is-external=true" xlink:actuate="onRequest" xlink:href="https://docs.oracle.com/javase/9/docs/api/javax/lang/model/util/ElementScanner9.html?is-external=true" xlink:show="new" xlink:title="https://docs.oracle.com/javase/9/docs/api/javax/lang/model/util/ElementScanner9.html?is-external=true" xlink:type="simple"><rect codeLine="15" fill="#FEFECE" filter="url(#f1pkg5u45jg9mk)" height="37.9375" id="javax.lang.model.util.ElementScanner9" style="stroke:#A80036;stroke-width:1.5;" width="377" x="58.5" y="10"/><ellipse cx="73.5" cy="28.9688" fill="#ADD1B2" rx="11" ry="11" style="stroke:#A80036;stroke-width:1.0;"/><path d="M76.4688,34.6094 Q75.8906,34.9063 75.25,35.0469 Q74.6094,35.2031 73.9063,35.2031 Q71.4063,35.2031 70.0781,33.5625 Q68.7656,31.9063 68.7656,28.7813 Q68.7656,25.6563 70.0781,24 Q71.4063,22.3438 73.9063,22.3438 Q74.6094,22.3438 75.25,22.5 Q75.9063,22.6563 76.4688,22.9531 L76.4688,25.6719 Q75.8438,25.0938 75.25,24.8281 Q74.6563,24.5469 74.0313,24.5469 Q72.6875,24.5469 72,25.625 Q71.3125,26.6875 71.3125,28.7813 Q71.3125,30.875 72,31.9531 Q72.6875,33.0156 74.0313,33.0156 Q74.6563,33.0156 75.25,32.75 Q75.8438,32.4688 76.4688,31.8906 L76.4688,34.6094 Z " fill="#000000"/><text fill="#000000" font-family="sans-serif" font-size="14" lengthAdjust="spacing" textLength="123" x="87.5" y="27.9951">ElementScanner9</text><text fill="#000000" font-family="sans-serif" font-size="10" lengthAdjust="spacing" textLength="99" x="99.5" y="40.5791">javax.lang.model.util</text><rect fill="#FFFFFF" height="15.9688" style="stroke:#000000;stroke-width:1.0;stroke-dasharray:2.0,2.0;" width="220" x="218.5" y="7"/><text fill="#000000" font-family="sans-serif" font-size="12" font-style="italic" lengthAdjust="spacing" textLength="218" x="219.5" y="19.1387">Set&lt;PackageDependency&gt;, String</text></a><!--MD5=[d5ebc74d5380257e0c2b4b5b68b3d51b]
reverse link javax.lang.model.util.ElementScanner9 to nl.talsmasoftware.umldoclet.javadoc.dependencies.DependenciesElementScanner--><path codeLine="17" d="M247,68.35 C247,80.53 247,94.37 247,107.96 " fill="none" id="javax.lang.model.util.ElementScanner9-backto-nl.talsmasoftware.umldoclet.javadoc.dependencies.DependenciesElementScanner" style="stroke:#A80036;stroke-width:1.0;"/><polygon fill="none" points="240,68.07,247,48.07,254,68.07,240,68.07" style="stroke:#A80036;stroke-width:1.0;"/><text fill="#888888" font-family="sans-serif" font-size="10" lengthAdjust="spacing" textLength="186" x="151" y="265.8525">UMLDoclet 2.0.14, PlantUML 1.2021.9</text><!--MD5=[e7b7119f73c6d7c8d2a5be0f68477fa4]
@startuml
    set namespaceSeparator none
    hide empty fields
    hide empty methods

    class "<size:14>DependenciesElementScanner\n<size:10>nl.talsmasoftware.umldoclet.javadoc.dependencies" as nl.talsmasoftware.umldoclet.javadoc.dependencies.DependenciesElementScanner [[DependenciesElementScanner.html]] {
        +DependenciesElementScanner(DocletEnvironment, Configuration)
        +visitPackage(PackageElement, String): Set<PackageDependency>
        +visitType(TypeElement, String): Set<PackageDependency>
        +visitVariable(VariableElement, String): Set<PackageDependency>
        +visitExecutable(ExecutableElement, String): Set<PackageDependency>
        +visitTypeParameter(TypeParameterElement, String): Set<PackageDependency>
        +visitUnknown(Element, String): Set<PackageDependency>
    }

    class "<size:14>ElementScanner9\n<size:10>javax.lang.model.util" as javax.lang.model.util.ElementScanner9<Set<PackageDependency>, String> [[https://docs.oracle.com/javase/9/docs/api/javax/lang/model/util/ElementScanner9.html?is-external=true]]

    javax.lang.model.util.ElementScanner9 <|- - nl.talsmasoftware.umldoclet.javadoc.dependencies.DependenciesElementScanner

    center footer UMLDoclet 2.0.14, PlantUML 1.2021.9
@enduml

PlantUML version 1.2021.9(Sun Jul 25 10:13:56 UTC 2021)
(APACHE source distribution)
Java Runtime: OpenJDK Runtime Environment
JVM: OpenJDK 64-Bit Server VM
Default Encoding: UTF-8
Language: en
Country: null
--></g></svg>