<?xml version="1.0" encoding="UTF-8" standalone="no"?><svg xmlns="http://www.w3.org/2000/svg" xmlns:xlink="http://www.w3.org/1999/xlink" contentScriptType="application/ecmascript" contentStyleType="text/css" height="367px" preserveAspectRatio="none" style="width:1315px;height:367px;background:#FFFFFF;" version="1.1" viewBox="0 0 1315 367" width="1315px" zoomAndPan="magnify"><defs><filter height="300%" id="fogw5e3xmp8ez" width="300%" x="-1" y="-1"><feGaussianBlur result="blurOut" stdDeviation="2.0"/><feColorMatrix in="blurOut" result="blurOut2" type="matrix" values="0 0 0 0 0 0 0 0 0 0 0 0 0 0 0 0 0 0 .4 0"/><feOffset dx="4.0" dy="4.0" in="blurOut2" result="blurOut3"/><feBlend in="SourceGraphic" in2="blurOut3" mode="normal"/></filter></defs><g><!--MD5=[330c529650b688d54cf1b5d8dd91a1d7]
cluster nl.talsmasoftware.umldoclet.javadoc.dependencies--><polygon fill="#FFFFFF" filter="url(#fogw5e3xmp8ez)" points="16,155,427,155,434,177.2969,1298,177.2969,1298,344,16,344,16,155" style="stroke:#000000;stroke-width:1.5;"/><line style="stroke:#000000;stroke-width:1.5;" x1="16" x2="434" y1="177.2969" y2="177.2969"/><text fill="#000000" font-family="sans-serif" font-size="14" font-weight="bold" lengthAdjust="spacing" textLength="405" x="20" y="169.9951">nl.talsmasoftware.umldoclet.javadoc.dependencies</text><!--MD5=[7db3c59d38ae5b37b484eb2df9368145]
cluster java.util--><polygon fill="#FFFFFF" filter="url(#fogw5e3xmp8ez)" points="373,6,439,6,446,28.2969,683,28.2969,683,131,373,131,373,6" style="stroke:#000000;stroke-width:1.5;"/><line style="stroke:#000000;stroke-width:1.5;" x1="373" x2="446" y1="28.2969" y2="28.2969"/><text fill="#000000" font-family="sans-serif" font-size="14" font-weight="bold" lengthAdjust="spacing" textLength="60" x="377" y="20.9951">java.util</text><!--MD5=[b4bce71840be3370b78c779ba99c9529]
cluster javax.lang.model.util--><polygon fill="#FFFFFF" filter="url(#fogw5e3xmp8ez)" points="941,19,1107,19,1114,41.2969,1143,41.2969,1143,118,941,118,941,19" style="stroke:#000000;stroke-width:1.5;"/><line style="stroke:#000000;stroke-width:1.5;" x1="941" x2="1114" y1="41.2969" y2="41.2969"/><text fill="#000000" font-family="sans-serif" font-size="14" font-weight="bold" lengthAdjust="spacing" textLength="160" x="945" y="33.9951">javax.lang.model.util</text><!--MD5=[26c07483a6ba39850c2bd0cf889decd1]
class nl.talsmasoftware.umldoclet.javadoc.dependencies.PackageDependencyCycle--><a href="PackageDependencyCycle.html" target="_top" title="PackageDependencyCycle.html" xlink:actuate="onRequest" xlink:href="PackageDependencyCycle.html" xlink:show="new" xlink:title="PackageDependencyCycle.html" xlink:type="simple"><rect codeLine="3" fill="#FEFECE" filter="url(#fogw5e3xmp8ez)" height="99.2188" id="nl.talsmasoftware.umldoclet.javadoc.dependencies.PackageDependencyCycle" style="stroke:#A80036;stroke-width:1.5;" width="474" x="293" y="209.5"/><ellipse cx="443.75" cy="225.5" fill="#ADD1B2" rx="11" ry="11" style="stroke:#A80036;stroke-width:1.0;"/><path d="M446.7188,231.1406 Q446.1406,231.4375 445.5,231.5781 Q444.8594,231.7344 444.1563,231.7344 Q441.6563,231.7344 440.3281,230.0938 Q439.0156,228.4375 439.0156,225.3125 Q439.0156,222.1875 440.3281,220.5313 Q441.6563,218.875 444.1563,218.875 Q444.8594,218.875 445.5,219.0313 Q446.1563,219.1875 446.7188,219.4844 L446.7188,222.2031 Q446.0938,221.625 445.5,221.3594 Q444.9063,221.0781 444.2813,221.0781 Q442.9375,221.0781 442.25,222.1563 Q441.5625,223.2188 441.5625,225.3125 Q441.5625,227.4063 442.25,228.4844 Q442.9375,229.5469 444.2813,229.5469 Q444.9063,229.5469 445.5,229.2813 Q446.0938,229 446.7188,228.4219 L446.7188,231.1406 Z " fill="#000000"/><text fill="#000000" font-family="sans-serif" font-size="12" lengthAdjust="spacing" textLength="164" x="464.25" y="229.6543">PackageDependencyCycle</text><line style="stroke:#A80036;stroke-width:1.5;" x1="294" x2="766" y1="241.5" y2="241.5"/><line style="stroke:#A80036;stroke-width:1.5;" x1="294" x2="766" y1="249.5" y2="249.5"/><ellipse cx="304" cy="260.5" fill="#84BE84" rx="3" ry="3" style="stroke:#038048;stroke-width:1.0;"/><text fill="#000000" font-family="sans-serif" font-size="11" lengthAdjust="spacing" textLength="282" x="313" y="263.7104">PackageDependencyCycle(PackageDependency...)</text><ellipse cx="304" cy="273.3047" fill="#84BE84" rx="3" ry="3" style="stroke:#038048;stroke-width:1.0;"/><text fill="#000000" font-family="sans-serif" font-size="11" lengthAdjust="spacing" text-decoration="underline" textLength="448" x="313" y="276.5151">detectCycles(Iterable&lt;PackageDependency&gt;): Set&lt;PackageDependencyCycle&gt;</text><ellipse cx="304" cy="286.1094" fill="#84BE84" rx="3" ry="3" style="stroke:#038048;stroke-width:1.0;"/><text fill="#000000" font-family="sans-serif" font-size="11" lengthAdjust="spacing" textLength="164" x="313" y="289.3198">get(int): PackageDependency</text><ellipse cx="304" cy="298.9141" fill="#84BE84" rx="3" ry="3" style="stroke:#038048;stroke-width:1.0;"/><text fill="#000000" font-family="sans-serif" font-size="11" lengthAdjust="spacing" textLength="52" x="313" y="302.1245">size(): int</text></a><!--MD5=[200fbfb0006ba8fc3a753415c15926d4]
class nl.talsmasoftware.umldoclet.javadoc.dependencies.DependenciesElementScanner--><a href="DependenciesElementScanner.html" target="_top" title="DependenciesElementScanner.html" xlink:actuate="onRequest" xlink:href="DependenciesElementScanner.html" xlink:show="new" xlink:title="DependenciesElementScanner.html" xlink:type="simple"><rect codeLine="10" fill="#FEFECE" filter="url(#fogw5e3xmp8ez)" height="137.6328" id="nl.talsmasoftware.umldoclet.javadoc.dependencies.DependenciesElementScanner" style="stroke:#A80036;stroke-width:1.5;" width="480" x="802" y="190"/><ellipse cx="941.25" cy="206" fill="#ADD1B2" rx="11" ry="11" style="stroke:#A80036;stroke-width:1.0;"/><path d="M944.2188,211.6406 Q943.6406,211.9375 943,212.0781 Q942.3594,212.2344 941.6563,212.2344 Q939.1563,212.2344 937.8281,210.5938 Q936.5156,208.9375 936.5156,205.8125 Q936.5156,202.6875 937.8281,201.0313 Q939.1563,199.375 941.6563,199.375 Q942.3594,199.375 943,199.5313 Q943.6563,199.6875 944.2188,199.9844 L944.2188,202.7031 Q943.5938,202.125 943,201.8594 Q942.4063,201.5781 941.7813,201.5781 Q940.4375,201.5781 939.75,202.6563 Q939.0625,203.7188 939.0625,205.8125 Q939.0625,207.9063 939.75,208.9844 Q940.4375,210.0469 941.7813,210.0469 Q942.4063,210.0469 943,209.7813 Q943.5938,209.5 944.2188,208.9219 L944.2188,211.6406 Z " fill="#000000"/><text fill="#000000" font-family="sans-serif" font-size="12" lengthAdjust="spacing" textLength="193" x="961.75" y="210.1543">DependenciesElementScanner</text><line style="stroke:#A80036;stroke-width:1.5;" x1="803" x2="1281" y1="222" y2="222"/><line style="stroke:#A80036;stroke-width:1.5;" x1="803" x2="1281" y1="230" y2="230"/><ellipse cx="813" cy="241" fill="#84BE84" rx="3" ry="3" style="stroke:#038048;stroke-width:1.0;"/><text fill="#000000" font-family="sans-serif" font-size="11" lengthAdjust="spacing" textLength="371" x="822" y="244.2104">DependenciesElementScanner(DocletEnvironment, Configuration)</text><ellipse cx="813" cy="253.8047" fill="#84BE84" rx="3" ry="3" style="stroke:#038048;stroke-width:1.0;"/><text fill="#000000" font-family="sans-serif" font-size="11" lengthAdjust="spacing" textLength="374" x="822" y="257.0151">visitPackage(PackageElement, String): Set&lt;PackageDependency&gt;</text><ellipse cx="813" cy="266.6094" fill="#84BE84" rx="3" ry="3" style="stroke:#038048;stroke-width:1.0;"/><text fill="#000000" font-family="sans-serif" font-size="11" lengthAdjust="spacing" textLength="334" x="822" y="269.8198">visitType(TypeElement, String): Set&lt;PackageDependency&gt;</text><ellipse cx="813" cy="279.4141" fill="#84BE84" rx="3" ry="3" style="stroke:#038048;stroke-width:1.0;"/><text fill="#000000" font-family="sans-serif" font-size="11" lengthAdjust="spacing" textLength="372" x="822" y="282.6245">visitVariable(VariableElement, String): Set&lt;PackageDependency&gt;</text><ellipse cx="813" cy="292.2188" fill="#84BE84" rx="3" ry="3" style="stroke:#038048;stroke-width:1.0;"/><text fill="#000000" font-family="sans-serif" font-size="11" lengthAdjust="spacing" textLength="402" x="822" y="295.4292">visitExecutable(ExecutableElement, String): Set&lt;PackageDependency&gt;</text><ellipse cx="813" cy="305.0234" fill="#84BE84" rx="3" ry="3" style="stroke:#038048;stroke-width:1.0;"/><text fill="#000000" font-family="sans-serif" font-size="11" lengthAdjust="spacing" textLength="454" x="822" y="308.2339">visitTypeParameter(TypeParameterElement, String): Set&lt;PackageDependency&gt;</text><ellipse cx="813" cy="317.8281" fill="#84BE84" rx="3" ry="3" style="stroke:#038048;stroke-width:1.0;"/><text fill="#000000" font-family="sans-serif" font-size="11" lengthAdjust="spacing" textLength="331" x="822" y="321.0386">visitUnknown(Element, String): Set&lt;PackageDependency&gt;</text></a><!--MD5=[9a7b41aa580a2163ed7bd0bc052d2371]
class nl.talsmasoftware.umldoclet.javadoc.dependencies.PackageDependency--><a href="PackageDependency.html" target="_top" title="PackageDependency.html" xlink:actuate="onRequest" xlink:href="PackageDependency.html" xlink:show="new" xlink:title="PackageDependency.html" xlink:type="simple"><rect codeLine="20" fill="#FEFECE" filter="url(#fogw5e3xmp8ez)" height="86.4141" id="nl.talsmasoftware.umldoclet.javadoc.dependencies.PackageDependency" style="stroke:#A80036;stroke-width:1.5;" width="226" x="32" y="216"/><ellipse cx="74.9" cy="232" fill="#ADD1B2" rx="11" ry="11" style="stroke:#A80036;stroke-width:1.0;"/><path d="M77.8688,237.6406 Q77.2906,237.9375 76.65,238.0781 Q76.0094,238.2344 75.3063,238.2344 Q72.8063,238.2344 71.4781,236.5938 Q70.1656,234.9375 70.1656,231.8125 Q70.1656,228.6875 71.4781,227.0313 Q72.8063,225.375 75.3063,225.375 Q76.0094,225.375 76.65,225.5313 Q77.3063,225.6875 77.8688,225.9844 L77.8688,228.7031 Q77.2438,228.125 76.65,227.8594 Q76.0563,227.5781 75.4313,227.5781 Q74.0875,227.5781 73.4,228.6563 Q72.7125,229.7188 72.7125,231.8125 Q72.7125,233.9063 73.4,234.9844 Q74.0875,236.0469 75.4313,236.0469 Q76.0563,236.0469 76.65,235.7813 Q77.2438,235.5 77.8688,234.9219 L77.8688,237.6406 Z " fill="#000000"/><text fill="#000000" font-family="sans-serif" font-size="12" lengthAdjust="spacing" textLength="132" x="95.1" y="236.1543">PackageDependency</text><line style="stroke:#A80036;stroke-width:1.5;" x1="33" x2="257" y1="248" y2="248"/><ellipse cx="43" cy="259" rx="3" ry="3" style="stroke:#038048;stroke-width:1.0;fill:none;"/><text fill="#000000" font-family="sans-serif" font-size="11" lengthAdjust="spacing" textLength="116" x="52" y="262.2104">fromPackage: String</text><ellipse cx="43" cy="271.8047" rx="3" ry="3" style="stroke:#038048;stroke-width:1.0;fill:none;"/><text fill="#000000" font-family="sans-serif" font-size="11" lengthAdjust="spacing" textLength="100" x="52" y="275.0151">toPackage: String</text><line style="stroke:#A80036;stroke-width:1.5;" x1="33" x2="257" y1="281.6094" y2="281.6094"/><ellipse cx="43" cy="292.6094" fill="#84BE84" rx="3" ry="3" style="stroke:#038048;stroke-width:1.0;"/><text fill="#000000" font-family="sans-serif" font-size="11" lengthAdjust="spacing" textLength="200" x="52" y="295.8198">PackageDependency(String, String)</text></a><!--MD5=[b47ccf88e6f6b1506854cd54eba8da6a]
class java.util.AbstractList--><a href="https://docs.oracle.com/javase/9/docs/api/java/util/AbstractList.html?is-external=true" target="_top" title="https://docs.oracle.com/javase/9/docs/api/java/util/AbstractList.html?is-external=true" xlink:actuate="onRequest" xlink:href="https://docs.oracle.com/javase/9/docs/api/java/util/AbstractList.html?is-external=true" xlink:show="new" xlink:title="https://docs.oracle.com/javase/9/docs/api/java/util/AbstractList.html?is-external=true" xlink:type="simple"><rect codeLine="32" fill="#FEFECE" filter="url(#fogw5e3xmp8ez)" height="73.6094" id="java.util.AbstractList" style="stroke:#A80036;stroke-width:1.5;" width="117" x="549.5" y="41"/><ellipse cx="564.5" cy="57" fill="#A9DCDF" rx="11" ry="11" style="stroke:#A80036;stroke-width:1.0;"/><path d="M564.6094,52.3438 L563.4531,57.4219 L565.7813,57.4219 L564.6094,52.3438 Z M563.125,50.1094 L566.1094,50.1094 L569.4688,62.5 L567.0156,62.5 L566.25,59.4375 L562.9688,59.4375 L562.2188,62.5 L559.7813,62.5 L563.125,50.1094 Z " fill="#000000"/><text fill="#000000" font-family="sans-serif" font-size="12" font-style="italic" lengthAdjust="spacing" textLength="73" x="578.5" y="61.1543">AbstractList</text><rect fill="#FFFFFF" height="15.9688" style="stroke:#000000;stroke-width:1.0;stroke-dasharray:2.0,2.0;" width="10" x="659.5" y="38"/><text fill="#000000" font-family="sans-serif" font-size="12" font-style="italic" lengthAdjust="spacing" textLength="8" x="660.5" y="50.1387">E</text><line style="stroke:#A80036;stroke-width:1.5;" x1="550.5" x2="665.5" y1="73" y2="73"/><polygon fill="none" points="560.5,79,564.5,83,560.5,87,556.5,83" style="stroke:#B38D22;stroke-width:1.0;"/><text fill="#000000" font-family="sans-serif" font-size="11" lengthAdjust="spacing" textLength="80" x="569.5" y="87.2104">modCount: int</text><line style="stroke:#A80036;stroke-width:1.5;" x1="550.5" x2="665.5" y1="93.8047" y2="93.8047"/><ellipse cx="560.5" cy="104.8047" fill="#84BE84" rx="3" ry="3" style="stroke:#038048;stroke-width:1.0;"/><text fill="#000000" font-family="sans-serif" font-size="11" font-style="italic" lengthAdjust="spacing" textLength="55" x="569.5" y="108.0151">get(int): E</text></a><!--MD5=[be764867d3559929a9bba0cedf91060d]
class java.util.RandomAccess--><a href="https://docs.oracle.com/javase/9/docs/api/java/util/RandomAccess.html?is-external=true" target="_top" title="https://docs.oracle.com/javase/9/docs/api/java/util/RandomAccess.html?is-external=true" xlink:actuate="onRequest" xlink:href="https://docs.oracle.com/javase/9/docs/api/java/util/RandomAccess.html?is-external=true" xlink:show="new" xlink:title="https://docs.oracle.com/javase/9/docs/api/java/util/RandomAccess.html?is-external=true" xlink:type="simple"><rect codeLine="36" fill="#FEFECE" filter="url(#fogw5e3xmp8ez)" height="48" id="java.util.RandomAccess" style="stroke:#A80036;stroke-width:1.5;" width="125" x="389.5" y="54"/><ellipse cx="404.5" cy="70" fill="#B4A7E5" rx="11" ry="11" style="stroke:#A80036;stroke-width:1.0;"/><path d="M400.4219,65.7656 L400.4219,63.6094 L407.8125,63.6094 L407.8125,65.7656 L405.3438,65.7656 L405.3438,73.8438 L407.8125,73.8438 L407.8125,76 L400.4219,76 L400.4219,73.8438 L402.8906,73.8438 L402.8906,65.7656 L400.4219,65.7656 Z " fill="#000000"/><text fill="#000000" font-family="sans-serif" font-size="12" font-style="italic" lengthAdjust="spacing" textLength="93" x="418.5" y="74.1543">RandomAccess</text><line style="stroke:#A80036;stroke-width:1.5;" x1="390.5" x2="513.5" y1="86" y2="86"/><line style="stroke:#A80036;stroke-width:1.5;" x1="390.5" x2="513.5" y1="94" y2="94"/></a><!--MD5=[4529555f0f46579b6fb04677f796ad76]
class javax.lang.model.util.ElementScanner9--><a href="https://docs.oracle.com/javase/9/docs/api/javax/lang/model/util/ElementScanner9.html?is-external=true" target="_top" title="https://docs.oracle.com/javase/9/docs/api/javax/lang/model/util/ElementScanner9.html?is-external=true" xlink:actuate="onRequest" xlink:href="https://docs.oracle.com/javase/9/docs/api/javax/lang/model/util/ElementScanner9.html?is-external=true" xlink:show="new" xlink:title="https://docs.oracle.com/javase/9/docs/api/javax/lang/model/util/ElementScanner9.html?is-external=true" xlink:type="simple"><rect codeLine="40" fill="#FEFECE" filter="url(#fogw5e3xmp8ez)" height="48" id="javax.lang.model.util.ElementScanner9" style="stroke:#A80036;stroke-width:1.5;" width="170" x="957" y="54"/><ellipse cx="972" cy="70" fill="#ADD1B2" rx="11" ry="11" style="stroke:#A80036;stroke-width:1.0;"/><path d="M974.9688,75.6406 Q974.3906,75.9375 973.75,76.0781 Q973.1094,76.2344 972.4063,76.2344 Q969.9063,76.2344 968.5781,74.5938 Q967.2656,72.9375 967.2656,69.8125 Q967.2656,66.6875 968.5781,65.0313 Q969.9063,63.375 972.4063,63.375 Q973.1094,63.375 973.75,63.5313 Q974.4063,63.6875 974.9688,63.9844 L974.9688,66.7031 Q974.3438,66.125 973.75,65.8594 Q973.1563,65.5781 972.5313,65.5781 Q971.1875,65.5781 970.5,66.6563 Q969.8125,67.7188 969.8125,69.8125 Q969.8125,71.9063 970.5,72.9844 Q971.1875,74.0469 972.5313,74.0469 Q973.1563,74.0469 973.75,73.7813 Q974.3438,73.5 974.9688,72.9219 L974.9688,75.6406 Z " fill="#000000"/><text fill="#000000" font-family="sans-serif" font-size="12" lengthAdjust="spacing" textLength="111" x="986" y="74.1543">ElementScanner9</text><rect fill="#FFFFFF" height="15.9688" style="stroke:#000000;stroke-width:1.0;stroke-dasharray:2.0,2.0;" width="25" x="1105" y="51"/><text fill="#000000" font-family="sans-serif" font-size="12" font-style="italic" lengthAdjust="spacing" textLength="23" x="1106" y="63.1387">R, P</text><line style="stroke:#A80036;stroke-width:1.5;" x1="958" x2="1126" y1="86" y2="86"/><line style="stroke:#A80036;stroke-width:1.5;" x1="958" x2="1126" y1="94" y2="94"/></a><!--MD5=[22b41b484b93dd22dcf122784a872683]
reverse link java.util.AbstractList to nl.talsmasoftware.umldoclet.javadoc.dependencies.PackageDependencyCycle--><path codeLine="26" d="M584.07,133.91 C573.59,157.97 561.39,185.97 551.23,209.28 " fill="none" id="java.util.AbstractList-backto-nl.talsmasoftware.umldoclet.javadoc.dependencies.PackageDependencyCycle" style="stroke:#A80036;stroke-width:1.0;"/><polygon fill="none" points="577.81,130.76,592.22,115.22,590.64,136.35,577.81,130.76" style="stroke:#A80036;stroke-width:1.0;"/><!--MD5=[9bc6815fa92b1d0e520a84883a6dadc4]
reverse link java.util.RandomAccess to nl.talsmasoftware.umldoclet.javadoc.dependencies.PackageDependencyCycle--><path codeLine="27" d="M470.1,120.54 C481.67,147.09 496.72,181.63 508.84,209.45 " fill="none" id="java.util.RandomAccess-backto-nl.talsmasoftware.umldoclet.javadoc.dependencies.PackageDependencyCycle" style="stroke:#A80036;stroke-width:1.0;stroke-dasharray:7.0,7.0;"/><polygon fill="none" points="463.61,123.17,462.04,102.03,476.44,117.57,463.61,123.17" style="stroke:#A80036;stroke-width:1.0;"/><!--MD5=[d5ebc74d5380257e0c2b4b5b68b3d51b]
reverse link javax.lang.model.util.ElementScanner9 to nl.talsmasoftware.umldoclet.javadoc.dependencies.DependenciesElementScanner--><path codeLine="28" d="M1042,122.06 C1042,142.39 1042,167.14 1042,189.93 " fill="none" id="javax.lang.model.util.ElementScanner9-backto-nl.talsmasoftware.umldoclet.javadoc.dependencies.DependenciesElementScanner" style="stroke:#A80036;stroke-width:1.0;"/><polygon fill="none" points="1035,122.03,1042,102.03,1049,122.03,1035,122.03" style="stroke:#A80036;stroke-width:1.0;"/><text fill="#888888" font-family="sans-serif" font-size="10" lengthAdjust="spacing" textLength="186" x="558" y="359.2822">UMLDoclet 2.0.14, PlantUML 1.2021.9</text><!--MD5=[da7ece6c0c2e4a4a8fe4fefdd26368ca]
@startuml
    namespace nl.talsmasoftware.umldoclet.javadoc.dependencies {

        class PackageDependencyCycle [[PackageDependencyCycle.html]] {
            +PackageDependencyCycle(PackageDependency...)
            {static} +detectCycles(Iterable<PackageDependency>): Set<PackageDependencyCycle>
            +get(int): PackageDependency
            +size(): int
        }

        class DependenciesElementScanner [[DependenciesElementScanner.html]] {
            +DependenciesElementScanner(DocletEnvironment, Configuration)
            +visitPackage(PackageElement, String): Set<PackageDependency>
            +visitType(TypeElement, String): Set<PackageDependency>
            +visitVariable(VariableElement, String): Set<PackageDependency>
            +visitExecutable(ExecutableElement, String): Set<PackageDependency>
            +visitTypeParameter(TypeParameterElement, String): Set<PackageDependency>
            +visitUnknown(Element, String): Set<PackageDependency>
        }

        class PackageDependency [[PackageDependency.html]] {
            +fromPackage: String
            +toPackage: String
            +PackageDependency(String, String)
        }

        java.util.AbstractList <|- - PackageDependencyCycle
        java.util.RandomAccess <|.. PackageDependencyCycle
        javax.lang.model.util.ElementScanner9 <|- - DependenciesElementScanner
    }

    namespace java.util {
        abstract class AbstractList<E> [[https://docs.oracle.com/javase/9/docs/api/java/util/AbstractList.html?is-external=true]] {
            #modCount: int
            {abstract} +get(int): E
        }
        interface RandomAccess [[https://docs.oracle.com/javase/9/docs/api/java/util/RandomAccess.html?is-external=true]]
    }

    namespace javax.lang.model.util {
        class ElementScanner9<R, P> [[https://docs.oracle.com/javase/9/docs/api/javax/lang/model/util/ElementScanner9.html?is-external=true]]
    }

    center footer UMLDoclet 2.0.14, PlantUML 1.2021.9
@enduml

PlantUML version 1.2021.9(Sun Jul 25 10:13:56 UTC 2021)
(APACHE source distribution)
Java Runtime: OpenJDK Runtime Environment
JVM: OpenJDK 64-Bit Server VM
Default Encoding: UTF-8
Language: en
Country: null
--></g></svg>