<?xml version="1.0" encoding="UTF-8" standalone="no"?><svg xmlns="http://www.w3.org/2000/svg" xmlns:xlink="http://www.w3.org/1999/xlink" contentScriptType="application/ecmascript" contentStyleType="text/css" height="355px" preserveAspectRatio="none" style="width:315px;height:355px;background:#FFFFFF;" version="1.1" viewBox="0 0 315 355" width="315px" zoomAndPan="magnify"><defs><filter height="300%" id="f1e0fknsxcy7oh" width="300%" x="-1" y="-1"><feGaussianBlur result="blurOut" stdDeviation="2.0"/><feColorMatrix in="blurOut" result="blurOut2" type="matrix" values="0 0 0 0 0 0 0 0 0 0 0 0 0 0 0 0 0 0 .4 0"/><feOffset dx="4.0" dy="4.0" in="blurOut2" result="blurOut3"/><feBlend in="SourceGraphic" in2="blurOut3" mode="normal"/></filter></defs><g><!--MD5=[884a710ed3935279b6070109e0602df6]
class nl.talsmasoftware.umldoclet.rendering.indent.IndentingWriter--><a href="IndentingWriter.html" target="_top" title="IndentingWriter.html" xlink:actuate="onRequest" xlink:href="IndentingWriter.html" xlink:show="new" xlink:title="IndentingWriter.html" xlink:type="simple"><rect codeLine="5" fill="#FEFECE" filter="url(#f1e0fknsxcy7oh)" height="173.9844" id="nl.talsmasoftware.umldoclet.rendering.indent.IndentingWriter" style="stroke:#A80036;stroke-width:1.5;" width="292" x="9" y="151"/><ellipse cx="42.45" cy="169.9688" fill="#ADD1B2" rx="11" ry="11" style="stroke:#A80036;stroke-width:1.0;"/><path d="M45.4188,175.6094 Q44.8406,175.9063 44.2,176.0469 Q43.5594,176.2031 42.8563,176.2031 Q40.3563,176.2031 39.0281,174.5625 Q37.7156,172.9063 37.7156,169.7813 Q37.7156,166.6563 39.0281,165 Q40.3563,163.3438 42.8563,163.3438 Q43.5594,163.3438 44.2,163.5 Q44.8563,163.6563 45.4188,163.9531 L45.4188,166.6719 Q44.7938,166.0938 44.2,165.8281 Q43.6063,165.5469 42.9813,165.5469 Q41.6375,165.5469 40.95,166.625 Q40.2625,167.6875 40.2625,169.7813 Q40.2625,171.875 40.95,172.9531 Q41.6375,174.0156 42.9813,174.0156 Q43.6063,174.0156 44.2,173.75 Q44.7938,173.4688 45.4188,172.8906 L45.4188,175.6094 Z " fill="#000000"/><text fill="#000000" font-family="sans-serif" font-size="14" lengthAdjust="spacing" textLength="105" x="117.55" y="168.9951">IndentingWriter</text><text fill="#000000" font-family="sans-serif" font-size="10" lengthAdjust="spacing" textLength="219" x="60.55" y="181.5791">nl.talsmasoftware.umldoclet.rendering.indent</text><line style="stroke:#A80036;stroke-width:1.5;" x1="10" x2="300" y1="188.9375" y2="188.9375"/><polygon fill="#FFFF44" points="20,194.9375,24,198.9375,20,202.9375,16,198.9375" style="stroke:#B38D22;stroke-width:1.0;"/><text fill="#000000" font-family="sans-serif" font-size="11" lengthAdjust="spacing" textLength="230" x="29" y="203.1479">IndentingWriter(Appendable, Indentation)</text><ellipse cx="20" cy="212.7422" fill="#84BE84" rx="3" ry="3" style="stroke:#038048;stroke-width:1.0;"/><text fill="#000000" font-family="sans-serif" font-size="11" lengthAdjust="spacing" text-decoration="underline" textLength="266" x="29" y="215.9526">wrap(Appendable, Indentation): IndentingWriter</text><ellipse cx="20" cy="225.5469" fill="#84BE84" rx="3" ry="3" style="stroke:#038048;stroke-width:1.0;"/><text fill="#000000" font-family="sans-serif" font-size="11" lengthAdjust="spacing" textLength="250" x="29" y="228.7573">withIndentation(Indentation): IndentingWriter</text><polygon fill="#FFFF44" points="20,233.3516,24,237.3516,20,241.3516,16,237.3516" style="stroke:#B38D22;stroke-width:1.0;"/><text fill="#000000" font-family="sans-serif" font-size="11" lengthAdjust="spacing" textLength="160" x="29" y="241.562">getIndentation(): Indentation</text><ellipse cx="20" cy="251.1563" fill="#84BE84" rx="3" ry="3" style="stroke:#038048;stroke-width:1.0;"/><text fill="#000000" font-family="sans-serif" font-size="11" lengthAdjust="spacing" textLength="136" x="29" y="254.3667">indent(): IndentingWriter</text><ellipse cx="20" cy="263.9609" fill="#84BE84" rx="3" ry="3" style="stroke:#038048;stroke-width:1.0;"/><text fill="#000000" font-family="sans-serif" font-size="11" lengthAdjust="spacing" textLength="150" x="29" y="267.1714">unindent(): IndentingWriter</text><ellipse cx="20" cy="276.7656" fill="#84BE84" rx="3" ry="3" style="stroke:#038048;stroke-width:1.0;"/><text fill="#000000" font-family="sans-serif" font-size="11" lengthAdjust="spacing" textLength="165" x="29" y="279.9761">whitespace(): IndentingWriter</text><ellipse cx="20" cy="289.5703" fill="#84BE84" rx="3" ry="3" style="stroke:#038048;stroke-width:1.0;"/><text fill="#000000" font-family="sans-serif" font-size="11" lengthAdjust="spacing" textLength="144" x="29" y="292.7808">write(char[], int, int): void</text><ellipse cx="20" cy="302.375" fill="#84BE84" rx="3" ry="3" style="stroke:#038048;stroke-width:1.0;"/><text fill="#000000" font-family="sans-serif" font-size="11" lengthAdjust="spacing" textLength="67" x="29" y="305.5854">flush(): void</text><ellipse cx="20" cy="315.1797" fill="#84BE84" rx="3" ry="3" style="stroke:#038048;stroke-width:1.0;"/><text fill="#000000" font-family="sans-serif" font-size="11" lengthAdjust="spacing" textLength="69" x="29" y="318.3901">close(): void</text></a><!--MD5=[048c3133f4c34f5b25aafff9853428d6]
class java.io.Writer--><a href="https://docs.oracle.com/javase/9/docs/api/java/io/Writer.html?is-external=true" target="_top" title="https://docs.oracle.com/javase/9/docs/api/java/io/Writer.html?is-external=true" xlink:actuate="onRequest" xlink:href="https://docs.oracle.com/javase/9/docs/api/java/io/Writer.html?is-external=true" xlink:show="new" xlink:title="https://docs.oracle.com/javase/9/docs/api/java/io/Writer.html?is-external=true" xlink:type="simple"><rect codeLine="18" fill="#FEFECE" filter="url(#f1e0fknsxcy7oh)" height="84.3516" id="java.io.Writer" style="stroke:#A80036;stroke-width:1.5;" width="171" x="69.5" y="7"/><ellipse cx="130.25" cy="25.9688" fill="#A9DCDF" rx="11" ry="11" style="stroke:#A80036;stroke-width:1.0;"/><path d="M130.3594,21.3125 L129.2031,26.3906 L131.5313,26.3906 L130.3594,21.3125 Z M128.875,19.0781 L131.8594,19.0781 L135.2188,31.4688 L132.7656,31.4688 L132,28.4063 L128.7188,28.4063 L127.9688,31.4688 L125.5313,31.4688 L128.875,19.0781 Z " fill="#000000"/><text fill="#000000" font-family="sans-serif" font-size="14" font-style="italic" lengthAdjust="spacing" textLength="41" x="150.75" y="24.9951">Writer</text><text fill="#000000" font-family="sans-serif" font-size="10" font-style="italic" lengthAdjust="spacing" textLength="33" x="154.75" y="37.5791">java.io</text><line style="stroke:#A80036;stroke-width:1.5;" x1="70.5" x2="239.5" y1="44.9375" y2="44.9375"/><ellipse cx="80.5" cy="55.9375" fill="#84BE84" rx="3" ry="3" style="stroke:#038048;stroke-width:1.0;"/><text fill="#000000" font-family="sans-serif" font-size="11" font-style="italic" lengthAdjust="spacing" textLength="145" x="89.5" y="59.1479">write(char[], int, int): void</text><ellipse cx="80.5" cy="68.7422" fill="#84BE84" rx="3" ry="3" style="stroke:#038048;stroke-width:1.0;"/><text fill="#000000" font-family="sans-serif" font-size="11" font-style="italic" lengthAdjust="spacing" textLength="67" x="89.5" y="71.9526">flush(): void</text><ellipse cx="80.5" cy="81.5469" fill="#84BE84" rx="3" ry="3" style="stroke:#038048;stroke-width:1.0;"/><text fill="#000000" font-family="sans-serif" font-size="11" font-style="italic" lengthAdjust="spacing" textLength="69" x="89.5" y="84.7573">close(): void</text></a><!--MD5=[f836b8097469e08f0ed105e228b00e66]
reverse link java.io.Writer to nl.talsmasoftware.umldoclet.rendering.indent.IndentingWriter--><path codeLine="24" d="M155,111.28 C155,123.93 155,137.47 155,150.81 " fill="none" id="java.io.Writer-backto-nl.talsmasoftware.umldoclet.rendering.indent.IndentingWriter" style="stroke:#A80036;stroke-width:1.0;"/><polygon fill="none" points="148,111.04,155,91.04,162,111.04,148,111.04" style="stroke:#A80036;stroke-width:1.0;"/><text fill="#888888" font-family="sans-serif" font-size="10" lengthAdjust="spacing" textLength="186" x="58" y="347.2666">UMLDoclet 2.0.14, PlantUML 1.2021.9</text><!--MD5=[952b62c39ce144a83efa9cc3a6552814]
@startuml
    set namespaceSeparator none
    hide empty fields
    hide empty methods

    class "<size:14>IndentingWriter\n<size:10>nl.talsmasoftware.umldoclet.rendering.indent" as nl.talsmasoftware.umldoclet.rendering.indent.IndentingWriter [[IndentingWriter.html]] {
        #IndentingWriter(Appendable, Indentation)
        {static} +wrap(Appendable, Indentation): IndentingWriter
        +withIndentation(Indentation): IndentingWriter
        #getIndentation(): Indentation
        +indent(): IndentingWriter
        +unindent(): IndentingWriter
        +whitespace(): IndentingWriter
        +write(char[], int, int): void
        +flush(): void
        +close(): void
    }

    abstract class "<size:14>Writer\n<size:10>java.io" as java.io.Writer [[https://docs.oracle.com/javase/9/docs/api/java/io/Writer.html?is-external=true]] {
        {abstract} +write(char[], int, int): void
        {abstract} +flush(): void
        {abstract} +close(): void
    }

    java.io.Writer <|- - nl.talsmasoftware.umldoclet.rendering.indent.IndentingWriter

    center footer UMLDoclet 2.0.14, PlantUML 1.2021.9
@enduml

PlantUML version 1.2021.9(Sun Jul 25 10:13:56 UTC 2021)
(APACHE source distribution)
Java Runtime: OpenJDK Runtime Environment
JVM: OpenJDK 64-Bit Server VM
Default Encoding: UTF-8
Language: en
Country: null
--></g></svg>