<?xml version="1.0" encoding="UTF-8" standalone="no"?><svg xmlns="http://www.w3.org/2000/svg" xmlns:xlink="http://www.w3.org/1999/xlink" contentScriptType="application/ecmascript" contentStyleType="text/css" height="309px" preserveAspectRatio="none" style="width:345px;height:309px;background:#FFFFFF;" version="1.1" viewBox="0 0 345 309" width="345px" zoomAndPan="magnify"><defs><filter height="300%" id="f3cbdghmsx0wt" width="300%" x="-1" y="-1"><feGaussianBlur result="blurOut" stdDeviation="2.0"/><feColorMatrix in="blurOut" result="blurOut2" type="matrix" values="0 0 0 0 0 0 0 0 0 0 0 0 0 0 0 0 0 0 .4 0"/><feOffset dx="4.0" dy="4.0" in="blurOut2" result="blurOut3"/><feBlend in="SourceGraphic" in2="blurOut3" mode="normal"/></filter></defs><g><!--MD5=[2a75bc66ec00f8c3173587a20cc46898]
class nl.talsmasoftware.umldoclet.rendering.indent.IndentingPrintWriter--><a href="IndentingPrintWriter.html" target="_top" title="IndentingPrintWriter.html" xlink:actuate="onRequest" xlink:href="IndentingPrintWriter.html" xlink:show="new" xlink:title="IndentingPrintWriter.html" xlink:type="simple"><rect codeLine="5" fill="#FEFECE" filter="url(#f3cbdghmsx0wt)" height="173.9844" id="nl.talsmasoftware.umldoclet.rendering.indent.IndentingPrintWriter" style="stroke:#A80036;stroke-width:1.5;" width="322" x="9" y="105"/><ellipse cx="56.25" cy="123.9688" fill="#ADD1B2" rx="11" ry="11" style="stroke:#A80036;stroke-width:1.0;"/><path d="M59.2188,129.6094 Q58.6406,129.9063 58,130.0469 Q57.3594,130.2031 56.6563,130.2031 Q54.1563,130.2031 52.8281,128.5625 Q51.5156,126.9063 51.5156,123.7813 Q51.5156,120.6563 52.8281,119 Q54.1563,117.3438 56.6563,117.3438 Q57.3594,117.3438 58,117.5 Q58.6563,117.6563 59.2188,117.9531 L59.2188,120.6719 Q58.5938,120.0938 58,119.8281 Q57.4063,119.5469 56.7813,119.5469 Q55.4375,119.5469 54.75,120.625 Q54.0625,121.6875 54.0625,123.7813 Q54.0625,125.875 54.75,126.9531 Q55.4375,128.0156 56.7813,128.0156 Q57.4063,128.0156 58,127.75 Q58.5938,127.4688 59.2188,126.8906 L59.2188,129.6094 Z " fill="#000000"/><text fill="#000000" font-family="sans-serif" font-size="14" lengthAdjust="spacing" textLength="136" x="118.25" y="122.9951">IndentingPrintWriter</text><text fill="#000000" font-family="sans-serif" font-size="10" lengthAdjust="spacing" textLength="219" x="76.75" y="135.5791">nl.talsmasoftware.umldoclet.rendering.indent</text><line style="stroke:#A80036;stroke-width:1.5;" x1="10" x2="330" y1="142.9375" y2="142.9375"/><polygon fill="#FFFF44" points="20,148.9375,24,152.9375,20,156.9375,16,152.9375" style="stroke:#B38D22;stroke-width:1.0;"/><text fill="#000000" font-family="sans-serif" font-size="11" lengthAdjust="spacing" textLength="256" x="29" y="157.1479">IndentingPrintWriter(Appendable, Indentation)</text><ellipse cx="20" cy="166.7422" fill="#84BE84" rx="3" ry="3" style="stroke:#038048;stroke-width:1.0;"/><text fill="#000000" font-family="sans-serif" font-size="11" lengthAdjust="spacing" text-decoration="underline" textLength="292" x="29" y="169.9526">wrap(Appendable, Indentation): IndentingPrintWriter</text><polygon fill="#FFFF44" points="20,174.5469,24,178.5469,20,182.5469,16,178.5469" style="stroke:#B38D22;stroke-width:1.0;"/><text fill="#000000" font-family="sans-serif" font-size="11" lengthAdjust="spacing" textLength="169" x="29" y="182.7573">getDelegate(): IndentingWriter</text><ellipse cx="20" cy="192.3516" fill="#84BE84" rx="3" ry="3" style="stroke:#038048;stroke-width:1.0;"/><text fill="#000000" font-family="sans-serif" font-size="11" lengthAdjust="spacing" textLength="162" x="29" y="195.562">indent(): IndentingPrintWriter</text><ellipse cx="20" cy="205.1563" fill="#84BE84" rx="3" ry="3" style="stroke:#038048;stroke-width:1.0;"/><text fill="#000000" font-family="sans-serif" font-size="11" lengthAdjust="spacing" textLength="176" x="29" y="208.3667">unindent(): IndentingPrintWriter</text><ellipse cx="20" cy="217.9609" fill="#84BE84" rx="3" ry="3" style="stroke:#038048;stroke-width:1.0;"/><text fill="#000000" font-family="sans-serif" font-size="11" lengthAdjust="spacing" textLength="191" x="29" y="221.1714">whitespace(): IndentingPrintWriter</text><ellipse cx="20" cy="230.7656" fill="#84BE84" rx="3" ry="3" style="stroke:#038048;stroke-width:1.0;"/><text fill="#000000" font-family="sans-serif" font-size="11" lengthAdjust="spacing" textLength="170" x="29" y="233.9761">newline(): IndentingPrintWriter</text><ellipse cx="20" cy="243.5703" fill="#84BE84" rx="3" ry="3" style="stroke:#038048;stroke-width:1.0;"/><text fill="#000000" font-family="sans-serif" font-size="11" lengthAdjust="spacing" textLength="252" x="29" y="246.7808">append(CharSequence): IndentingPrintWriter</text><ellipse cx="20" cy="256.375" fill="#84BE84" rx="3" ry="3" style="stroke:#038048;stroke-width:1.0;"/><text fill="#000000" font-family="sans-serif" font-size="11" lengthAdjust="spacing" textLength="296" x="29" y="259.5854">append(CharSequence, int, int): IndentingPrintWriter</text><ellipse cx="20" cy="269.1797" fill="#84BE84" rx="3" ry="3" style="stroke:#038048;stroke-width:1.0;"/><text fill="#000000" font-family="sans-serif" font-size="11" lengthAdjust="spacing" textLength="194" x="29" y="272.3901">append(char): IndentingPrintWriter</text></a><!--MD5=[e61417e1c56db1382337fcf0821547ce]
class java.io.PrintWriter--><a href="https://docs.oracle.com/javase/9/docs/api/java/io/PrintWriter.html?is-external=true" target="_top" title="https://docs.oracle.com/javase/9/docs/api/java/io/PrintWriter.html?is-external=true" xlink:actuate="onRequest" xlink:href="https://docs.oracle.com/javase/9/docs/api/java/io/PrintWriter.html?is-external=true" xlink:show="new" xlink:title="https://docs.oracle.com/javase/9/docs/api/java/io/PrintWriter.html?is-external=true" xlink:type="simple"><rect codeLine="18" fill="#FEFECE" filter="url(#f3cbdghmsx0wt)" height="37.9375" id="java.io.PrintWriter" style="stroke:#A80036;stroke-width:1.5;" width="103" x="118.5" y="7"/><ellipse cx="133.5" cy="25.9688" fill="#ADD1B2" rx="11" ry="11" style="stroke:#A80036;stroke-width:1.0;"/><path d="M136.4688,31.6094 Q135.8906,31.9063 135.25,32.0469 Q134.6094,32.2031 133.9063,32.2031 Q131.4063,32.2031 130.0781,30.5625 Q128.7656,28.9063 128.7656,25.7813 Q128.7656,22.6563 130.0781,21 Q131.4063,19.3438 133.9063,19.3438 Q134.6094,19.3438 135.25,19.5 Q135.9063,19.6563 136.4688,19.9531 L136.4688,22.6719 Q135.8438,22.0938 135.25,21.8281 Q134.6563,21.5469 134.0313,21.5469 Q132.6875,21.5469 132,22.625 Q131.3125,23.6875 131.3125,25.7813 Q131.3125,27.875 132,28.9531 Q132.6875,30.0156 134.0313,30.0156 Q134.6563,30.0156 135.25,29.75 Q135.8438,29.4688 136.4688,28.8906 L136.4688,31.6094 Z " fill="#000000"/><text fill="#000000" font-family="sans-serif" font-size="14" lengthAdjust="spacing" textLength="71" x="147.5" y="24.9951">PrintWriter</text><text fill="#000000" font-family="sans-serif" font-size="10" lengthAdjust="spacing" textLength="31" x="167.5" y="37.5791">java.io</text></a><!--MD5=[3cc38ea46622bfb16edbdfd265c2e254]
reverse link java.io.PrintWriter to nl.talsmasoftware.umldoclet.rendering.indent.IndentingPrintWriter--><path codeLine="20" d="M170,65.51 C170,77.39 170,90.99 170,104.75 " fill="none" id="java.io.PrintWriter-backto-nl.talsmasoftware.umldoclet.rendering.indent.IndentingPrintWriter" style="stroke:#A80036;stroke-width:1.0;"/><polygon fill="none" points="163,65.18,170,45.18,177,65.18,163,65.18" style="stroke:#A80036;stroke-width:1.0;"/><text fill="#888888" font-family="sans-serif" font-size="10" lengthAdjust="spacing" textLength="186" x="73" y="301.2666">UMLDoclet 2.0.14, PlantUML 1.2021.9</text><!--MD5=[ef92092105a750b874ab30b632c06f93]
@startuml
    set namespaceSeparator none
    hide empty fields
    hide empty methods

    class "<size:14>IndentingPrintWriter\n<size:10>nl.talsmasoftware.umldoclet.rendering.indent" as nl.talsmasoftware.umldoclet.rendering.indent.IndentingPrintWriter [[IndentingPrintWriter.html]] {
        #IndentingPrintWriter(Appendable, Indentation)
        {static} +wrap(Appendable, Indentation): IndentingPrintWriter
        #getDelegate(): IndentingWriter
        +indent(): IndentingPrintWriter
        +unindent(): IndentingPrintWriter
        +whitespace(): IndentingPrintWriter
        +newline(): IndentingPrintWriter
        +append(CharSequence): IndentingPrintWriter
        +append(CharSequence, int, int): IndentingPrintWriter
        +append(char): IndentingPrintWriter
    }

    class "<size:14>PrintWriter\n<size:10>java.io" as java.io.PrintWriter [[https://docs.oracle.com/javase/9/docs/api/java/io/PrintWriter.html?is-external=true]]

    java.io.PrintWriter <|- - nl.talsmasoftware.umldoclet.rendering.indent.IndentingPrintWriter

    center footer UMLDoclet 2.0.14, PlantUML 1.2021.9
@enduml

PlantUML version 1.2021.9(Sun Jul 25 10:13:56 UTC 2021)
(APACHE source distribution)
Java Runtime: OpenJDK Runtime Environment
JVM: OpenJDK 64-Bit Server VM
Default Encoding: UTF-8
Language: en
Country: null
--></g></svg>