<?xml version="1.0" encoding="UTF-8" standalone="no"?><svg xmlns="http://www.w3.org/2000/svg" xmlns:xlink="http://www.w3.org/1999/xlink" contentScriptType="application/ecmascript" contentStyleType="text/css" height="478px" preserveAspectRatio="none" style="width:1089px;height:478px;background:#FFFFFF;" version="1.1" viewBox="0 0 1089 478" width="1089px" zoomAndPan="magnify"><defs><filter height="300%" id="f1ui3zla4gvcwz" width="300%" x="-1" y="-1"><feGaussianBlur result="blurOut" stdDeviation="2.0"/><feColorMatrix in="blurOut" result="blurOut2" type="matrix" values="0 0 0 0 0 0 0 0 0 0 0 0 0 0 0 0 0 0 .4 0"/><feOffset dx="4.0" dy="4.0" in="blurOut2" result="blurOut3"/><feBlend in="SourceGraphic" in2="blurOut3" mode="normal"/></filter></defs><g><!--MD5=[4b1ff7d6456ec0f605e61cbbe8ca0a87]
cluster nl.talsmasoftware.umldoclet.rendering.indent--><polygon fill="#FFFFFF" filter="url(#f1ui3zla4gvcwz)" points="16,228,383,228,390,250.2969,1058,250.2969,1058,455,16,455,16,228" style="stroke:#000000;stroke-width:1.5;"/><line style="stroke:#000000;stroke-width:1.5;" x1="16" x2="390" y1="250.2969" y2="250.2969"/><text fill="#000000" font-family="sans-serif" font-size="14" font-weight="bold" lengthAdjust="spacing" textLength="361" x="20" y="242.9951">nl.talsmasoftware.umldoclet.rendering.indent</text><!--MD5=[0d852700fdad35b7061d461d6907a324]
cluster java.io--><polygon fill="#FFFFFF" filter="url(#f1ui3zla4gvcwz)" points="261,25.5,317,25.5,324,47.7969,736,47.7969,736,175.5,261,175.5,261,25.5" style="stroke:#000000;stroke-width:1.5;"/><line style="stroke:#000000;stroke-width:1.5;" x1="261" x2="324" y1="47.7969" y2="47.7969"/><text fill="#000000" font-family="sans-serif" font-size="14" font-weight="bold" lengthAdjust="spacing" textLength="50" x="265" y="40.4951">java.io</text><!--MD5=[aa8f7b917213fcc1c2766e2d59b49067]
cluster java.lang--><polygon fill="#FFFFFF" filter="url(#f1ui3zla4gvcwz)" points="760,6,835,6,842,28.2969,1072,28.2969,1072,195,760,195,760,6" style="stroke:#000000;stroke-width:1.5;"/><line style="stroke:#000000;stroke-width:1.5;" x1="760" x2="842" y1="28.2969" y2="28.2969"/><text fill="#000000" font-family="sans-serif" font-size="14" font-weight="bold" lengthAdjust="spacing" textLength="69" x="764" y="20.9951">java.lang</text><!--MD5=[2a75bc66ec00f8c3173587a20cc46898]
class nl.talsmasoftware.umldoclet.rendering.indent.IndentingPrintWriter--><a href="IndentingPrintWriter.html" target="_top" title="IndentingPrintWriter.html" xlink:actuate="onRequest" xlink:href="IndentingPrintWriter.html" xlink:show="new" xlink:title="IndentingPrintWriter.html" xlink:type="simple"><rect codeLine="3" fill="#FEFECE" filter="url(#f1ui3zla4gvcwz)" height="176.0469" id="nl.talsmasoftware.umldoclet.rendering.indent.IndentingPrintWriter" style="stroke:#A80036;stroke-width:1.5;" width="322" x="32" y="263"/><ellipse cx="126.25" cy="279" fill="#ADD1B2" rx="11" ry="11" style="stroke:#A80036;stroke-width:1.0;"/><path d="M129.2188,284.6406 Q128.6406,284.9375 128,285.0781 Q127.3594,285.2344 126.6563,285.2344 Q124.1563,285.2344 122.8281,283.5938 Q121.5156,281.9375 121.5156,278.8125 Q121.5156,275.6875 122.8281,274.0313 Q124.1563,272.375 126.6563,272.375 Q127.3594,272.375 128,272.5313 Q128.6563,272.6875 129.2188,272.9844 L129.2188,275.7031 Q128.5938,275.125 128,274.8594 Q127.4063,274.5781 126.7813,274.5781 Q125.4375,274.5781 124.75,275.6563 Q124.0625,276.7188 124.0625,278.8125 Q124.0625,280.9063 124.75,281.9844 Q125.4375,283.0469 126.7813,283.0469 Q127.4063,283.0469 128,282.7813 Q128.5938,282.5 129.2188,281.9219 L129.2188,284.6406 Z " fill="#000000"/><text fill="#000000" font-family="sans-serif" font-size="12" lengthAdjust="spacing" textLength="125" x="146.75" y="283.1543">IndentingPrintWriter</text><line style="stroke:#A80036;stroke-width:1.5;" x1="33" x2="353" y1="295" y2="295"/><line style="stroke:#A80036;stroke-width:1.5;" x1="33" x2="353" y1="303" y2="303"/><polygon fill="#FFFF44" points="43,309,47,313,43,317,39,313" style="stroke:#B38D22;stroke-width:1.0;"/><text fill="#000000" font-family="sans-serif" font-size="11" lengthAdjust="spacing" textLength="256" x="52" y="317.2104">IndentingPrintWriter(Appendable, Indentation)</text><ellipse cx="43" cy="326.8047" fill="#84BE84" rx="3" ry="3" style="stroke:#038048;stroke-width:1.0;"/><text fill="#000000" font-family="sans-serif" font-size="11" lengthAdjust="spacing" text-decoration="underline" textLength="292" x="52" y="330.0151">wrap(Appendable, Indentation): IndentingPrintWriter</text><polygon fill="#FFFF44" points="43,334.6094,47,338.6094,43,342.6094,39,338.6094" style="stroke:#B38D22;stroke-width:1.0;"/><text fill="#000000" font-family="sans-serif" font-size="11" lengthAdjust="spacing" textLength="169" x="52" y="342.8198">getDelegate(): IndentingWriter</text><ellipse cx="43" cy="352.4141" fill="#84BE84" rx="3" ry="3" style="stroke:#038048;stroke-width:1.0;"/><text fill="#000000" font-family="sans-serif" font-size="11" lengthAdjust="spacing" textLength="162" x="52" y="355.6245">indent(): IndentingPrintWriter</text><ellipse cx="43" cy="365.2188" fill="#84BE84" rx="3" ry="3" style="stroke:#038048;stroke-width:1.0;"/><text fill="#000000" font-family="sans-serif" font-size="11" lengthAdjust="spacing" textLength="176" x="52" y="368.4292">unindent(): IndentingPrintWriter</text><ellipse cx="43" cy="378.0234" fill="#84BE84" rx="3" ry="3" style="stroke:#038048;stroke-width:1.0;"/><text fill="#000000" font-family="sans-serif" font-size="11" lengthAdjust="spacing" textLength="191" x="52" y="381.2339">whitespace(): IndentingPrintWriter</text><ellipse cx="43" cy="390.8281" fill="#84BE84" rx="3" ry="3" style="stroke:#038048;stroke-width:1.0;"/><text fill="#000000" font-family="sans-serif" font-size="11" lengthAdjust="spacing" textLength="170" x="52" y="394.0386">newline(): IndentingPrintWriter</text><ellipse cx="43" cy="403.6328" fill="#84BE84" rx="3" ry="3" style="stroke:#038048;stroke-width:1.0;"/><text fill="#000000" font-family="sans-serif" font-size="11" lengthAdjust="spacing" textLength="252" x="52" y="406.8433">append(CharSequence): IndentingPrintWriter</text><ellipse cx="43" cy="416.4375" fill="#84BE84" rx="3" ry="3" style="stroke:#038048;stroke-width:1.0;"/><text fill="#000000" font-family="sans-serif" font-size="11" lengthAdjust="spacing" textLength="296" x="52" y="419.6479">append(CharSequence, int, int): IndentingPrintWriter</text><ellipse cx="43" cy="429.2422" fill="#84BE84" rx="3" ry="3" style="stroke:#038048;stroke-width:1.0;"/><text fill="#000000" font-family="sans-serif" font-size="11" lengthAdjust="spacing" textLength="194" x="52" y="432.4526">append(char): IndentingPrintWriter</text></a><!--MD5=[930bc7bdc48fe6cf210635fb89a5c59a]
class nl.talsmasoftware.umldoclet.rendering.indent.Indentation--><a href="Indentation.html" target="_top" title="Indentation.html" xlink:actuate="onRequest" xlink:href="Indentation.html" xlink:show="new" xlink:title="Indentation.html" xlink:type="simple"><rect codeLine="16" fill="#FEFECE" filter="url(#f1ui3zla4gvcwz)" height="137.6328" id="nl.talsmasoftware.umldoclet.rendering.indent.Indentation" style="stroke:#A80036;stroke-width:1.5;" width="238" x="716" y="282"/><ellipse cx="794.75" cy="298" fill="#ADD1B2" rx="11" ry="11" style="stroke:#A80036;stroke-width:1.0;"/><path d="M797.7188,303.6406 Q797.1406,303.9375 796.5,304.0781 Q795.8594,304.2344 795.1563,304.2344 Q792.6563,304.2344 791.3281,302.5938 Q790.0156,300.9375 790.0156,297.8125 Q790.0156,294.6875 791.3281,293.0313 Q792.6563,291.375 795.1563,291.375 Q795.8594,291.375 796.5,291.5313 Q797.1563,291.6875 797.7188,291.9844 L797.7188,294.7031 Q797.0938,294.125 796.5,293.8594 Q795.9063,293.5781 795.2813,293.5781 Q793.9375,293.5781 793.25,294.6563 Q792.5625,295.7188 792.5625,297.8125 Q792.5625,299.9063 793.25,300.9844 Q793.9375,302.0469 795.2813,302.0469 Q795.9063,302.0469 796.5,301.7813 Q797.0938,301.5 797.7188,300.9219 L797.7188,303.6406 Z " fill="#000000"/><text fill="#000000" font-family="sans-serif" font-size="12" lengthAdjust="spacing" textLength="72" x="815.25" y="302.1543">Indentation</text><line style="stroke:#A80036;stroke-width:1.5;" x1="717" x2="953" y1="314" y2="314"/><line style="stroke:#A80036;stroke-width:1.5;" x1="717" x2="953" y1="322" y2="322"/><ellipse cx="727" cy="333" fill="#84BE84" rx="3" ry="3" style="stroke:#038048;stroke-width:1.0;"/><text fill="#000000" font-family="sans-serif" font-size="11" lengthAdjust="spacing" text-decoration="underline" textLength="118" x="736" y="336.2104">tabs(int): Indentation</text><ellipse cx="727" cy="345.8047" fill="#84BE84" rx="3" ry="3" style="stroke:#038048;stroke-width:1.0;"/><text fill="#000000" font-family="sans-serif" font-size="11" lengthAdjust="spacing" text-decoration="underline" textLength="156" x="736" y="349.0151">spaces(int, int): Indentation</text><ellipse cx="727" cy="358.6094" fill="#84BE84" rx="3" ry="3" style="stroke:#038048;stroke-width:1.0;"/><text fill="#000000" font-family="sans-serif" font-size="11" lengthAdjust="spacing" textLength="128" x="736" y="361.8198">increase(): Indentation</text><ellipse cx="727" cy="371.4141" fill="#84BE84" rx="3" ry="3" style="stroke:#038048;stroke-width:1.0;"/><text fill="#000000" font-family="sans-serif" font-size="11" lengthAdjust="spacing" textLength="132" x="736" y="374.6245">decrease(): Indentation</text><ellipse cx="727" cy="384.2188" fill="#84BE84" rx="3" ry="3" style="stroke:#038048;stroke-width:1.0;"/><text fill="#000000" font-family="sans-serif" font-size="11" lengthAdjust="spacing" textLength="65" x="736" y="387.4292">length(): int</text><ellipse cx="727" cy="397.0234" fill="#84BE84" rx="3" ry="3" style="stroke:#038048;stroke-width:1.0;"/><text fill="#000000" font-family="sans-serif" font-size="11" lengthAdjust="spacing" textLength="91" x="736" y="400.2339">charAt(int): char</text><ellipse cx="727" cy="409.8281" fill="#84BE84" rx="3" ry="3" style="stroke:#038048;stroke-width:1.0;"/><text fill="#000000" font-family="sans-serif" font-size="11" lengthAdjust="spacing" textLength="212" x="736" y="413.0386">subSequence(int, int): CharSequence</text></a><!--MD5=[884a710ed3935279b6070109e0602df6]
class nl.talsmasoftware.umldoclet.rendering.indent.IndentingWriter--><a href="IndentingWriter.html" target="_top" title="IndentingWriter.html" xlink:actuate="onRequest" xlink:href="IndentingWriter.html" xlink:show="new" xlink:title="IndentingWriter.html" xlink:type="simple"><rect codeLine="26" fill="#FEFECE" filter="url(#f1ui3zla4gvcwz)" height="176.0469" id="nl.talsmasoftware.umldoclet.rendering.indent.IndentingWriter" style="stroke:#A80036;stroke-width:1.5;" width="292" x="389" y="263"/><ellipse cx="482.75" cy="279" fill="#ADD1B2" rx="11" ry="11" style="stroke:#A80036;stroke-width:1.0;"/><path d="M485.7188,284.6406 Q485.1406,284.9375 484.5,285.0781 Q483.8594,285.2344 483.1563,285.2344 Q480.6563,285.2344 479.3281,283.5938 Q478.0156,281.9375 478.0156,278.8125 Q478.0156,275.6875 479.3281,274.0313 Q480.6563,272.375 483.1563,272.375 Q483.8594,272.375 484.5,272.5313 Q485.1563,272.6875 485.7188,272.9844 L485.7188,275.7031 Q485.0938,275.125 484.5,274.8594 Q483.9063,274.5781 483.2813,274.5781 Q481.9375,274.5781 481.25,275.6563 Q480.5625,276.7188 480.5625,278.8125 Q480.5625,280.9063 481.25,281.9844 Q481.9375,283.0469 483.2813,283.0469 Q483.9063,283.0469 484.5,282.7813 Q485.0938,282.5 485.7188,281.9219 L485.7188,284.6406 Z " fill="#000000"/><text fill="#000000" font-family="sans-serif" font-size="12" lengthAdjust="spacing" textLength="96" x="503.25" y="283.1543">IndentingWriter</text><line style="stroke:#A80036;stroke-width:1.5;" x1="390" x2="680" y1="295" y2="295"/><line style="stroke:#A80036;stroke-width:1.5;" x1="390" x2="680" y1="303" y2="303"/><polygon fill="#FFFF44" points="400,309,404,313,400,317,396,313" style="stroke:#B38D22;stroke-width:1.0;"/><text fill="#000000" font-family="sans-serif" font-size="11" lengthAdjust="spacing" textLength="230" x="409" y="317.2104">IndentingWriter(Appendable, Indentation)</text><ellipse cx="400" cy="326.8047" fill="#84BE84" rx="3" ry="3" style="stroke:#038048;stroke-width:1.0;"/><text fill="#000000" font-family="sans-serif" font-size="11" lengthAdjust="spacing" text-decoration="underline" textLength="266" x="409" y="330.0151">wrap(Appendable, Indentation): IndentingWriter</text><ellipse cx="400" cy="339.6094" fill="#84BE84" rx="3" ry="3" style="stroke:#038048;stroke-width:1.0;"/><text fill="#000000" font-family="sans-serif" font-size="11" lengthAdjust="spacing" textLength="250" x="409" y="342.8198">withIndentation(Indentation): IndentingWriter</text><polygon fill="#FFFF44" points="400,347.4141,404,351.4141,400,355.4141,396,351.4141" style="stroke:#B38D22;stroke-width:1.0;"/><text fill="#000000" font-family="sans-serif" font-size="11" lengthAdjust="spacing" textLength="160" x="409" y="355.6245">getIndentation(): Indentation</text><ellipse cx="400" cy="365.2188" fill="#84BE84" rx="3" ry="3" style="stroke:#038048;stroke-width:1.0;"/><text fill="#000000" font-family="sans-serif" font-size="11" lengthAdjust="spacing" textLength="136" x="409" y="368.4292">indent(): IndentingWriter</text><ellipse cx="400" cy="378.0234" fill="#84BE84" rx="3" ry="3" style="stroke:#038048;stroke-width:1.0;"/><text fill="#000000" font-family="sans-serif" font-size="11" lengthAdjust="spacing" textLength="150" x="409" y="381.2339">unindent(): IndentingWriter</text><ellipse cx="400" cy="390.8281" fill="#84BE84" rx="3" ry="3" style="stroke:#038048;stroke-width:1.0;"/><text fill="#000000" font-family="sans-serif" font-size="11" lengthAdjust="spacing" textLength="165" x="409" y="394.0386">whitespace(): IndentingWriter</text><ellipse cx="400" cy="403.6328" fill="#84BE84" rx="3" ry="3" style="stroke:#038048;stroke-width:1.0;"/><text fill="#000000" font-family="sans-serif" font-size="11" lengthAdjust="spacing" textLength="144" x="409" y="406.8433">write(char[], int, int): void</text><ellipse cx="400" cy="416.4375" fill="#84BE84" rx="3" ry="3" style="stroke:#038048;stroke-width:1.0;"/><text fill="#000000" font-family="sans-serif" font-size="11" lengthAdjust="spacing" textLength="67" x="409" y="419.6479">flush(): void</text><ellipse cx="400" cy="429.2422" fill="#84BE84" rx="3" ry="3" style="stroke:#038048;stroke-width:1.0;"/><text fill="#000000" font-family="sans-serif" font-size="11" lengthAdjust="spacing" textLength="69" x="409" y="432.4526">close(): void</text></a><!--MD5=[e61417e1c56db1382337fcf0821547ce]
class java.io.PrintWriter--><a href="https://docs.oracle.com/javase/9/docs/api/java/io/PrintWriter.html?is-external=true" target="_top" title="https://docs.oracle.com/javase/9/docs/api/java/io/PrintWriter.html?is-external=true" xlink:actuate="onRequest" xlink:href="https://docs.oracle.com/javase/9/docs/api/java/io/PrintWriter.html?is-external=true" xlink:show="new" xlink:title="https://docs.oracle.com/javase/9/docs/api/java/io/PrintWriter.html?is-external=true" xlink:type="simple"><rect codeLine="47" fill="#FEFECE" filter="url(#f1ui3zla4gvcwz)" height="60.8047" id="java.io.PrintWriter" style="stroke:#A80036;stroke-width:1.5;" width="98" x="277" y="79.5"/><ellipse cx="292" cy="95.5" fill="#ADD1B2" rx="11" ry="11" style="stroke:#A80036;stroke-width:1.0;"/><path d="M294.9688,101.1406 Q294.3906,101.4375 293.75,101.5781 Q293.1094,101.7344 292.4063,101.7344 Q289.9063,101.7344 288.5781,100.0938 Q287.2656,98.4375 287.2656,95.3125 Q287.2656,92.1875 288.5781,90.5313 Q289.9063,88.875 292.4063,88.875 Q293.1094,88.875 293.75,89.0313 Q294.4063,89.1875 294.9688,89.4844 L294.9688,92.2031 Q294.3438,91.625 293.75,91.3594 Q293.1563,91.0781 292.5313,91.0781 Q291.1875,91.0781 290.5,92.1563 Q289.8125,93.2188 289.8125,95.3125 Q289.8125,97.4063 290.5,98.4844 Q291.1875,99.5469 292.5313,99.5469 Q293.1563,99.5469 293.75,99.2813 Q294.3438,99 294.9688,98.4219 L294.9688,101.1406 Z " fill="#000000"/><text fill="#000000" font-family="sans-serif" font-size="12" lengthAdjust="spacing" textLength="66" x="306" y="99.6543">PrintWriter</text><line style="stroke:#A80036;stroke-width:1.5;" x1="278" x2="374" y1="111.5" y2="111.5"/><polygon fill="none" points="288,117.5,292,121.5,288,125.5,284,121.5" style="stroke:#B38D22;stroke-width:1.0;"/><text fill="#000000" font-family="sans-serif" font-size="11" lengthAdjust="spacing" textLength="59" x="297" y="125.7104">out: Writer</text><line style="stroke:#A80036;stroke-width:1.5;" x1="278" x2="374" y1="132.3047" y2="132.3047"/></a><!--MD5=[5a5af9b0547913863cbe0ddf55a9ab5e]
class java.io.Serializable--><a href="https://docs.oracle.com/javase/9/docs/api/java/io/Serializable.html?is-external=true" target="_top" title="https://docs.oracle.com/javase/9/docs/api/java/io/Serializable.html?is-external=true" xlink:actuate="onRequest" xlink:href="https://docs.oracle.com/javase/9/docs/api/java/io/Serializable.html?is-external=true" xlink:show="new" xlink:title="https://docs.oracle.com/javase/9/docs/api/java/io/Serializable.html?is-external=true" xlink:type="simple"><rect codeLine="50" fill="#FEFECE" filter="url(#f1ui3zla4gvcwz)" height="48" id="java.io.Serializable" style="stroke:#A80036;stroke-width:1.5;" width="103" x="616.5" y="86"/><ellipse cx="631.5" cy="102" fill="#B4A7E5" rx="11" ry="11" style="stroke:#A80036;stroke-width:1.0;"/><path d="M627.4219,97.7656 L627.4219,95.6094 L634.8125,95.6094 L634.8125,97.7656 L632.3438,97.7656 L632.3438,105.8438 L634.8125,105.8438 L634.8125,108 L627.4219,108 L627.4219,105.8438 L629.8906,105.8438 L629.8906,97.7656 L627.4219,97.7656 Z " fill="#000000"/><text fill="#000000" font-family="sans-serif" font-size="12" font-style="italic" lengthAdjust="spacing" textLength="71" x="645.5" y="106.1543">Serializable</text><line style="stroke:#A80036;stroke-width:1.5;" x1="617.5" x2="718.5" y1="118" y2="118"/><line style="stroke:#A80036;stroke-width:1.5;" x1="617.5" x2="718.5" y1="126" y2="126"/></a><!--MD5=[048c3133f4c34f5b25aafff9853428d6]
class java.io.Writer--><a href="https://docs.oracle.com/javase/9/docs/api/java/io/Writer.html?is-external=true" target="_top" title="https://docs.oracle.com/javase/9/docs/api/java/io/Writer.html?is-external=true" xlink:actuate="onRequest" xlink:href="https://docs.oracle.com/javase/9/docs/api/java/io/Writer.html?is-external=true" xlink:show="new" xlink:title="https://docs.oracle.com/javase/9/docs/api/java/io/Writer.html?is-external=true" xlink:type="simple"><rect codeLine="51" fill="#FEFECE" filter="url(#f1ui3zla4gvcwz)" height="99.2188" id="java.io.Writer" style="stroke:#A80036;stroke-width:1.5;" width="171" x="410.5" y="60.5"/><ellipse cx="472.75" cy="76.5" fill="#A9DCDF" rx="11" ry="11" style="stroke:#A80036;stroke-width:1.0;"/><path d="M472.8594,71.8438 L471.7031,76.9219 L474.0313,76.9219 L472.8594,71.8438 Z M471.375,69.6094 L474.3594,69.6094 L477.7188,82 L475.2656,82 L474.5,78.9375 L471.2188,78.9375 L470.4688,82 L468.0313,82 L471.375,69.6094 Z " fill="#000000"/><text fill="#000000" font-family="sans-serif" font-size="12" font-style="italic" lengthAdjust="spacing" textLength="38" x="493.25" y="80.6543">Writer</text><line style="stroke:#A80036;stroke-width:1.5;" x1="411.5" x2="580.5" y1="92.5" y2="92.5"/><polygon fill="none" points="421.5,98.5,425.5,102.5,421.5,106.5,417.5,102.5" style="stroke:#B38D22;stroke-width:1.0;"/><text fill="#000000" font-family="sans-serif" font-size="11" lengthAdjust="spacing" textLength="66" x="430.5" y="106.7104">lock: Object</text><line style="stroke:#A80036;stroke-width:1.5;" x1="411.5" x2="580.5" y1="113.3047" y2="113.3047"/><ellipse cx="421.5" cy="124.3047" fill="#84BE84" rx="3" ry="3" style="stroke:#038048;stroke-width:1.0;"/><text fill="#000000" font-family="sans-serif" font-size="11" font-style="italic" lengthAdjust="spacing" textLength="145" x="430.5" y="127.5151">write(char[], int, int): void</text><ellipse cx="421.5" cy="137.1094" fill="#84BE84" rx="3" ry="3" style="stroke:#038048;stroke-width:1.0;"/><text fill="#000000" font-family="sans-serif" font-size="11" font-style="italic" lengthAdjust="spacing" textLength="67" x="430.5" y="140.3198">flush(): void</text><ellipse cx="421.5" cy="149.9141" fill="#84BE84" rx="3" ry="3" style="stroke:#038048;stroke-width:1.0;"/><text fill="#000000" font-family="sans-serif" font-size="11" font-style="italic" lengthAdjust="spacing" textLength="69" x="430.5" y="153.1245">close(): void</text></a><!--MD5=[1b2f4583b166806016cacd20831c4885]
class java.lang.CharSequence--><a href="https://docs.oracle.com/javase/9/docs/api/java/lang/CharSequence.html?is-external=true" target="_top" title="https://docs.oracle.com/javase/9/docs/api/java/lang/CharSequence.html?is-external=true" xlink:actuate="onRequest" xlink:href="https://docs.oracle.com/javase/9/docs/api/java/lang/CharSequence.html?is-external=true" xlink:show="new" xlink:title="https://docs.oracle.com/javase/9/docs/api/java/lang/CharSequence.html?is-external=true" xlink:type="simple"><rect codeLine="60" fill="#FEFECE" filter="url(#f1ui3zla4gvcwz)" height="137.6328" id="java.lang.CharSequence" style="stroke:#A80036;stroke-width:1.5;" width="280" x="776" y="41"/><ellipse cx="865.75" cy="57" fill="#B4A7E5" rx="11" ry="11" style="stroke:#A80036;stroke-width:1.0;"/><path d="M861.6719,52.7656 L861.6719,50.6094 L869.0625,50.6094 L869.0625,52.7656 L866.5938,52.7656 L866.5938,60.8438 L869.0625,60.8438 L869.0625,63 L861.6719,63 L861.6719,60.8438 L864.1406,60.8438 L864.1406,52.7656 L861.6719,52.7656 Z " fill="#000000"/><text fill="#000000" font-family="sans-serif" font-size="12" font-style="italic" lengthAdjust="spacing" textLength="92" x="886.25" y="61.1543">CharSequence</text><line style="stroke:#A80036;stroke-width:1.5;" x1="777" x2="1055" y1="73" y2="73"/><line style="stroke:#A80036;stroke-width:1.5;" x1="777" x2="1055" y1="81" y2="81"/><ellipse cx="787" cy="92" fill="#84BE84" rx="3" ry="3" style="stroke:#038048;stroke-width:1.0;"/><text fill="#000000" font-family="sans-serif" font-size="11" font-style="italic" lengthAdjust="spacing" textLength="65" x="796" y="95.2104">length(): int</text><ellipse cx="787" cy="104.8047" fill="#84BE84" rx="3" ry="3" style="stroke:#038048;stroke-width:1.0;"/><text fill="#000000" font-family="sans-serif" font-size="11" font-style="italic" lengthAdjust="spacing" textLength="92" x="796" y="108.0151">charAt(int): char</text><ellipse cx="787" cy="117.6094" fill="#84BE84" rx="3" ry="3" style="stroke:#038048;stroke-width:1.0;"/><text fill="#000000" font-family="sans-serif" font-size="11" lengthAdjust="spacing" textLength="106" x="796" y="120.8198">isEmpty(): boolean</text><ellipse cx="787" cy="130.4141" fill="#84BE84" rx="3" ry="3" style="stroke:#038048;stroke-width:1.0;"/><text fill="#000000" font-family="sans-serif" font-size="11" font-style="italic" lengthAdjust="spacing" textLength="209" x="796" y="133.6245">subSequence(int, int): CharSequence</text><ellipse cx="787" cy="143.2188" fill="#84BE84" rx="3" ry="3" style="stroke:#038048;stroke-width:1.0;"/><text fill="#000000" font-family="sans-serif" font-size="11" lengthAdjust="spacing" textLength="104" x="796" y="146.4292">chars(): IntStream</text><ellipse cx="787" cy="156.0234" fill="#84BE84" rx="3" ry="3" style="stroke:#038048;stroke-width:1.0;"/><text fill="#000000" font-family="sans-serif" font-size="11" lengthAdjust="spacing" textLength="134" x="796" y="159.2339">codePoints(): IntStream</text><ellipse cx="787" cy="168.8281" fill="#84BE84" rx="3" ry="3" style="stroke:#038048;stroke-width:1.0;"/><text fill="#000000" font-family="sans-serif" font-size="11" lengthAdjust="spacing" text-decoration="underline" textLength="254" x="796" y="172.0386">compare(CharSequence, CharSequence): int</text></a><!--MD5=[3cc38ea46622bfb16edbdfd265c2e254]
reverse link java.io.PrintWriter to nl.talsmasoftware.umldoclet.rendering.indent.IndentingPrintWriter--><path codeLine="39" d="M299.61,158.42 C283.02,188.23 261.12,227.59 241.48,262.88 " fill="none" id="java.io.PrintWriter-backto-nl.talsmasoftware.umldoclet.rendering.indent.IndentingPrintWriter" style="stroke:#A80036;stroke-width:1.0;"/><polygon fill="none" points="293.58,154.86,309.42,140.79,305.82,161.67,293.58,154.86" style="stroke:#A80036;stroke-width:1.0;"/><!--MD5=[83aed3168dff2f81999524fc398ba490]
reverse link java.lang.CharSequence to nl.talsmasoftware.umldoclet.rendering.indent.Indentation--><path codeLine="40" d="M886.44,198.21 C877.11,225.74 866.95,255.74 858.13,281.74 " fill="none" id="java.lang.CharSequence-backto-nl.talsmasoftware.umldoclet.rendering.indent.Indentation" style="stroke:#A80036;stroke-width:1.0;stroke-dasharray:7.0,7.0;"/><polygon fill="none" points="879.85,195.86,892.9,179.17,893.11,200.36,879.85,195.86" style="stroke:#A80036;stroke-width:1.0;"/><!--MD5=[ae1ddf0c34e0d963a1c86d3894998664]
reverse link java.io.Serializable to nl.talsmasoftware.umldoclet.rendering.indent.Indentation--><path codeLine="41" d="M695.81,150.81 C720.74,186.48 757.84,239.57 787.46,281.97 " fill="none" id="java.io.Serializable-backto-nl.talsmasoftware.umldoclet.rendering.indent.Indentation" style="stroke:#A80036;stroke-width:1.0;stroke-dasharray:7.0,7.0;"/><polygon fill="none" points="690.03,154.76,684.32,134.35,701.51,146.74,690.03,154.76" style="stroke:#A80036;stroke-width:1.0;"/><!--MD5=[04b924b8f5d640f22c71f735ad90e7da]
link nl.talsmasoftware.umldoclet.rendering.indent.Indentation to nl.talsmasoftware.umldoclet.rendering.indent.Indentation--><path codeLine="42" d="M954.13,326.79 C974.71,330.06 989,338.13 989,351 C989,362.76 977.06,370.52 959.29,374.26 " fill="none" id="nl.talsmasoftware.umldoclet.rendering.indent.Indentation-to-nl.talsmasoftware.umldoclet.rendering.indent.Indentation" style="stroke:#A80036;stroke-width:1.0;"/><polygon fill="#A80036" points="954.13,375.21,963.7098,377.4963,959.0457,374.2955,962.2465,369.6313,954.13,375.21" style="stroke:#A80036;stroke-width:1.0;"/><text fill="#000000" font-family="sans-serif" font-size="13" lengthAdjust="spacing" textLength="58" x="995" y="348.0669">DEFAULT</text><text fill="#000000" font-family="sans-serif" font-size="13" lengthAdjust="spacing" textLength="38" x="1005" y="363.1997">NONE</text><!--MD5=[f836b8097469e08f0ed105e228b00e66]
reverse link java.io.Writer to nl.talsmasoftware.umldoclet.rendering.indent.IndentingWriter--><path codeLine="43" d="M507.18,179.49 C511.41,205.42 516.28,235.31 520.76,262.74 " fill="none" id="java.io.Writer-backto-nl.talsmasoftware.umldoclet.rendering.indent.IndentingWriter" style="stroke:#A80036;stroke-width:1.0;"/><polygon fill="none" points="500.25,180.52,503.94,159.65,514.07,178.26,500.25,180.52" style="stroke:#A80036;stroke-width:1.0;"/><text fill="#888888" font-family="sans-serif" font-size="10" lengthAdjust="spacing" textLength="186" x="445" y="470.2822">UMLDoclet 2.0.14, PlantUML 1.2021.9</text><!--MD5=[effa7a09e1be7b646e2e30742185507f]
@startuml
    namespace nl.talsmasoftware.umldoclet.rendering.indent {

        class IndentingPrintWriter [[IndentingPrintWriter.html]] {
            #IndentingPrintWriter(Appendable, Indentation)
            {static} +wrap(Appendable, Indentation): IndentingPrintWriter
            #getDelegate(): IndentingWriter
            +indent(): IndentingPrintWriter
            +unindent(): IndentingPrintWriter
            +whitespace(): IndentingPrintWriter
            +newline(): IndentingPrintWriter
            +append(CharSequence): IndentingPrintWriter
            +append(CharSequence, int, int): IndentingPrintWriter
            +append(char): IndentingPrintWriter
        }

        class Indentation [[Indentation.html]] {
            {static} +tabs(int): Indentation
            {static} +spaces(int, int): Indentation
            +increase(): Indentation
            +decrease(): Indentation
            +length(): int
            +charAt(int): char
            +subSequence(int, int): CharSequence
        }

        class IndentingWriter [[IndentingWriter.html]] {
            #IndentingWriter(Appendable, Indentation)
            {static} +wrap(Appendable, Indentation): IndentingWriter
            +withIndentation(Indentation): IndentingWriter
            #getIndentation(): Indentation
            +indent(): IndentingWriter
            +unindent(): IndentingWriter
            +whitespace(): IndentingWriter
            +write(char[], int, int): void
            +flush(): void
            +close(): void
        }

        java.io.PrintWriter <|- - IndentingPrintWriter
        java.lang.CharSequence <|.. Indentation
        java.io.Serializable <|.. Indentation
        Indentation - -> Indentation: DEFAULT\nNONE
        java.io.Writer <|- - IndentingWriter
    }

    namespace java.io {
        class PrintWriter [[https://docs.oracle.com/javase/9/docs/api/java/io/PrintWriter.html?is-external=true]] {
            #out: Writer
        }
        interface Serializable [[https://docs.oracle.com/javase/9/docs/api/java/io/Serializable.html?is-external=true]]
        abstract class Writer [[https://docs.oracle.com/javase/9/docs/api/java/io/Writer.html?is-external=true]] {
            #lock: Object
            {abstract} +write(char[], int, int): void
            {abstract} +flush(): void
            {abstract} +close(): void
        }
    }

    namespace java.lang {
        interface CharSequence [[https://docs.oracle.com/javase/9/docs/api/java/lang/CharSequence.html?is-external=true]] {
            {abstract} +length(): int
            {abstract} +charAt(int): char
            +isEmpty(): boolean
            {abstract} +subSequence(int, int): CharSequence
            +chars(): IntStream
            +codePoints(): IntStream
            {static} +compare(CharSequence, CharSequence): int
        }
    }

    center footer UMLDoclet 2.0.14, PlantUML 1.2021.9
@enduml

PlantUML version 1.2021.9(Sun Jul 25 10:13:56 UTC 2021)
(APACHE source distribution)
Java Runtime: OpenJDK Runtime Environment
JVM: OpenJDK 64-Bit Server VM
Default Encoding: UTF-8
Language: en
Country: null
--></g></svg>