<?xml version="1.0" encoding="UTF-8" standalone="no"?><svg xmlns="http://www.w3.org/2000/svg" xmlns:xlink="http://www.w3.org/1999/xlink" contentScriptType="application/ecmascript" contentStyleType="text/css" height="266px" preserveAspectRatio="none" style="width:520px;height:266px;background:#FFFFFF;" version="1.1" viewBox="0 0 520 266" width="520px" zoomAndPan="magnify"><defs><filter height="300%" id="f1hnv4isnjz5ln" width="300%" x="-1" y="-1"><feGaussianBlur result="blurOut" stdDeviation="2.0"/><feColorMatrix in="blurOut" result="blurOut2" type="matrix" values="0 0 0 0 0 0 0 0 0 0 0 0 0 0 0 0 0 0 .4 0"/><feOffset dx="4.0" dy="4.0" in="blurOut2" result="blurOut3"/><feBlend in="SourceGraphic" in2="blurOut3" mode="normal"/></filter></defs><g><!--MD5=[54307f411e4b7d00b9d6d05f2f219998]
class nl.talsmasoftware.umldoclet.uml.ClassDiagram--><a href="ClassDiagram.html" target="_top" title="ClassDiagram.html" xlink:actuate="onRequest" xlink:href="ClassDiagram.html" xlink:show="new" xlink:title="ClassDiagram.html" xlink:type="simple"><rect codeLine="5" fill="#FEFECE" filter="url(#f1hnv4isnjz5ln)" height="109.9609" id="nl.talsmasoftware.umldoclet.uml.ClassDiagram" style="stroke:#A80036;stroke-width:1.5;" width="497" x="9" y="126"/><ellipse cx="174.25" cy="144.9688" fill="#ADD1B2" rx="11" ry="11" style="stroke:#A80036;stroke-width:1.0;"/><path d="M177.2188,150.6094 Q176.6406,150.9063 176,151.0469 Q175.3594,151.2031 174.6563,151.2031 Q172.1563,151.2031 170.8281,149.5625 Q169.5156,147.9063 169.5156,144.7813 Q169.5156,141.6563 170.8281,140 Q172.1563,138.3438 174.6563,138.3438 Q175.3594,138.3438 176,138.5 Q176.6563,138.6563 177.2188,138.9531 L177.2188,141.6719 Q176.5938,141.0938 176,140.8281 Q175.4063,140.5469 174.7813,140.5469 Q173.4375,140.5469 172.75,141.625 Q172.0625,142.6875 172.0625,144.7813 Q172.0625,146.875 172.75,147.9531 Q173.4375,149.0156 174.7813,149.0156 Q175.4063,149.0156 176,148.75 Q176.5938,148.4688 177.2188,147.8906 L177.2188,150.6094 Z " fill="#000000"/><text fill="#000000" font-family="sans-serif" font-size="14" lengthAdjust="spacing" textLength="94" x="226.75" y="143.9951">ClassDiagram</text><text fill="#000000" font-family="sans-serif" font-size="10" lengthAdjust="spacing" textLength="158" x="194.75" y="156.5791">nl.talsmasoftware.umldoclet.uml</text><line style="stroke:#A80036;stroke-width:1.5;" x1="10" x2="505" y1="163.9375" y2="163.9375"/><ellipse cx="20" cy="174.9375" fill="#84BE84" rx="3" ry="3" style="stroke:#038048;stroke-width:1.0;"/><text fill="#000000" font-family="sans-serif" font-size="11" lengthAdjust="spacing" textLength="199" x="29" y="178.1479">ClassDiagram(Configuration, Type)</text><ellipse cx="20" cy="187.7422" fill="#84BE84" rx="3" ry="3" style="stroke:#038048;stroke-width:1.0;"/><text fill="#000000" font-family="sans-serif" font-size="11" lengthAdjust="spacing" textLength="88" x="29" y="190.9526">getType(): Type</text><ellipse cx="20" cy="200.5469" fill="#84BE84" rx="3" ry="3" style="stroke:#038048;stroke-width:1.0;"/><text fill="#000000" font-family="sans-serif" font-size="11" lengthAdjust="spacing" textLength="140" x="29" y="203.7573">addChild(UMLNode): void</text><polygon fill="#FFFF44" points="20,208.3516,24,212.3516,20,216.3516,16,212.3516" style="stroke:#B38D22;stroke-width:1.0;"/><text fill="#000000" font-family="sans-serif" font-size="11" lengthAdjust="spacing" textLength="471" x="29" y="216.562">writeChildrenTo(IPW extends IndentingPrintWriter): IPW extends IndentingPrintWriter</text><polygon fill="#FFFF44" points="20,221.1563,24,225.1563,20,229.1563,16,225.1563" style="stroke:#B38D22;stroke-width:1.0;"/><text fill="#000000" font-family="sans-serif" font-size="11" lengthAdjust="spacing" textLength="122" x="29" y="229.3667">getPlantUmlFile(): File</text></a><!--MD5=[5288a8e418d75f7d405ac7c126fc862b]
class nl.talsmasoftware.umldoclet.uml.Diagram--><a href="Diagram.html" target="_top" title="Diagram.html" xlink:actuate="onRequest" xlink:href="Diagram.html" xlink:show="new" xlink:title="Diagram.html" xlink:type="simple"><rect codeLine="13" fill="#FEFECE" filter="url(#f1hnv4isnjz5ln)" height="58.7422" id="nl.talsmasoftware.umldoclet.uml.Diagram" style="stroke:#A80036;stroke-width:1.5;" width="196" x="159.5" y="7"/><ellipse cx="174.5" cy="25.9688" fill="#A9DCDF" rx="11" ry="11" style="stroke:#A80036;stroke-width:1.0;"/><path d="M174.6094,21.3125 L173.4531,26.3906 L175.7813,26.3906 L174.6094,21.3125 Z M173.125,19.0781 L176.1094,19.0781 L179.4688,31.4688 L177.0156,31.4688 L176.25,28.4063 L172.9688,28.4063 L172.2188,31.4688 L169.7813,31.4688 L173.125,19.0781 Z " fill="#000000"/><text fill="#000000" font-family="sans-serif" font-size="14" font-style="italic" lengthAdjust="spacing" textLength="57" x="242" y="24.9951">Diagram</text><text fill="#000000" font-family="sans-serif" font-size="10" font-style="italic" lengthAdjust="spacing" textLength="164" x="188.5" y="37.5791">nl.talsmasoftware.umldoclet.uml</text><line style="stroke:#A80036;stroke-width:1.5;" x1="160.5" x2="354.5" y1="44.9375" y2="44.9375"/><polygon fill="#FFFF44" points="170.5,50.9375,174.5,54.9375,170.5,58.9375,166.5,54.9375" style="stroke:#B38D22;stroke-width:1.0;"/><text fill="#000000" font-family="sans-serif" font-size="11" font-style="italic" lengthAdjust="spacing" textLength="122" x="179.5" y="59.1479">getPlantUmlFile(): File</text></a><!--MD5=[984f155b06a8d32c85dc6d7e8d3236f3]
reverse link nl.talsmasoftware.umldoclet.uml.Diagram to nl.talsmasoftware.umldoclet.uml.ClassDiagram--><path codeLine="17" d="M257.5,86.4 C257.5,99.11 257.5,112.88 257.5,125.84 " fill="none" id="nl.talsmasoftware.umldoclet.uml.Diagram-backto-nl.talsmasoftware.umldoclet.uml.ClassDiagram" style="stroke:#A80036;stroke-width:1.0;"/><polygon fill="none" points="250.5,86.34,257.5,66.34,264.5,86.34,250.5,86.34" style="stroke:#A80036;stroke-width:1.0;"/><text fill="#888888" font-family="sans-serif" font-size="10" lengthAdjust="spacing" textLength="186" x="160.5" y="258.2432">UMLDoclet 2.0.14, PlantUML 1.2021.9</text><!--MD5=[3a89073361c7267b5e3364e856748a60]
@startuml
    set namespaceSeparator none
    hide empty fields
    hide empty methods

    class "<size:14>ClassDiagram\n<size:10>nl.talsmasoftware.umldoclet.uml" as nl.talsmasoftware.umldoclet.uml.ClassDiagram [[ClassDiagram.html]] {
        +ClassDiagram(Configuration, Type)
        +getType(): Type
        +addChild(UMLNode): void
        #writeChildrenTo(IPW extends IndentingPrintWriter): IPW extends IndentingPrintWriter
        #getPlantUmlFile(): File
    }

    abstract class "<size:14>Diagram\n<size:10>nl.talsmasoftware.umldoclet.uml" as nl.talsmasoftware.umldoclet.uml.Diagram [[Diagram.html]] {
        {abstract} #getPlantUmlFile(): File
    }

    nl.talsmasoftware.umldoclet.uml.Diagram <|- - nl.talsmasoftware.umldoclet.uml.ClassDiagram

    center footer UMLDoclet 2.0.14, PlantUML 1.2021.9
@enduml

PlantUML version 1.2021.9(Sun Jul 25 10:13:56 UTC 2021)
(APACHE source distribution)
Java Runtime: OpenJDK Runtime Environment
JVM: OpenJDK 64-Bit Server VM
Default Encoding: UTF-8
Language: en
Country: null
--></g></svg>