<?xml version="1.0" encoding="UTF-8" standalone="no"?><svg xmlns="http://www.w3.org/2000/svg" xmlns:xlink="http://www.w3.org/1999/xlink" contentScriptType="application/ecmascript" contentStyleType="text/css" height="266px" preserveAspectRatio="none" style="width:376px;height:266px;background:#FFFFFF;" version="1.1" viewBox="0 0 376 266" width="376px" zoomAndPan="magnify"><defs><filter height="300%" id="febwfkp6r086x" width="300%" x="-1" y="-1"><feGaussianBlur result="blurOut" stdDeviation="2.0"/><feColorMatrix in="blurOut" result="blurOut2" type="matrix" values="0 0 0 0 0 0 0 0 0 0 0 0 0 0 0 0 0 0 .4 0"/><feOffset dx="4.0" dy="4.0" in="blurOut2" result="blurOut3"/><feBlend in="SourceGraphic" in2="blurOut3" mode="normal"/></filter></defs><g><!--MD5=[8cea7fd300b6b7db4fae03e485d1029a]
class nl.talsmasoftware.umldoclet.uml.DependencyDiagram--><a href="DependencyDiagram.html" target="_top" title="DependencyDiagram.html" xlink:actuate="onRequest" xlink:href="DependencyDiagram.html" xlink:show="new" xlink:title="DependencyDiagram.html" xlink:type="simple"><rect codeLine="5" fill="#FEFECE" filter="url(#febwfkp6r086x)" height="109.9609" id="nl.talsmasoftware.umldoclet.uml.DependencyDiagram" style="stroke:#A80036;stroke-width:1.5;" width="353" x="9" y="126"/><ellipse cx="102.25" cy="144.9688" fill="#ADD1B2" rx="11" ry="11" style="stroke:#A80036;stroke-width:1.0;"/><path d="M105.2188,150.6094 Q104.6406,150.9063 104,151.0469 Q103.3594,151.2031 102.6563,151.2031 Q100.1563,151.2031 98.8281,149.5625 Q97.5156,147.9063 97.5156,144.7813 Q97.5156,141.6563 98.8281,140 Q100.1563,138.3438 102.6563,138.3438 Q103.3594,138.3438 104,138.5 Q104.6563,138.6563 105.2188,138.9531 L105.2188,141.6719 Q104.5938,141.0938 104,140.8281 Q103.4063,140.5469 102.7813,140.5469 Q101.4375,140.5469 100.75,141.625 Q100.0625,142.6875 100.0625,144.7813 Q100.0625,146.875 100.75,147.9531 Q101.4375,149.0156 102.7813,149.0156 Q103.4063,149.0156 104,148.75 Q104.5938,148.4688 105.2188,147.8906 L105.2188,150.6094 Z " fill="#000000"/><text fill="#000000" font-family="sans-serif" font-size="14" lengthAdjust="spacing" textLength="146" x="128.75" y="143.9951">DependencyDiagram</text><text fill="#000000" font-family="sans-serif" font-size="10" lengthAdjust="spacing" textLength="158" x="122.75" y="156.5791">nl.talsmasoftware.umldoclet.uml</text><line style="stroke:#A80036;stroke-width:1.5;" x1="10" x2="361" y1="163.9375" y2="163.9375"/><ellipse cx="20" cy="174.9375" fill="#84BE84" rx="3" ry="3" style="stroke:#038048;stroke-width:1.0;"/><text fill="#000000" font-family="sans-serif" font-size="11" lengthAdjust="spacing" textLength="243" x="29" y="178.1479">DependencyDiagram(Configuration, String)</text><ellipse cx="20" cy="187.7422" fill="#84BE84" rx="3" ry="3" style="stroke:#038048;stroke-width:1.0;"/><text fill="#000000" font-family="sans-serif" font-size="11" lengthAdjust="spacing" textLength="171" x="29" y="190.9526">getChildren(): List&lt;UMLNode&gt;</text><ellipse cx="20" cy="200.5469" fill="#84BE84" rx="3" ry="3" style="stroke:#038048;stroke-width:1.0;"/><text fill="#000000" font-family="sans-serif" font-size="11" lengthAdjust="spacing" textLength="252" x="29" y="203.7573">addPackageDependency(String, String): void</text><polygon fill="#FFFF44" points="20,208.3516,24,212.3516,20,216.3516,16,212.3516" style="stroke:#B38D22;stroke-width:1.0;"/><text fill="#000000" font-family="sans-serif" font-size="11" lengthAdjust="spacing" textLength="122" x="29" y="216.562">getPlantUmlFile(): File</text><polygon fill="#FFFF44" points="20,221.1563,24,225.1563,20,229.1563,16,225.1563" style="stroke:#B38D22;stroke-width:1.0;"/><text fill="#000000" font-family="sans-serif" font-size="11" lengthAdjust="spacing" textLength="327" x="29" y="229.3667">writeChildrenTo(IndentingPrintWriter): IndentingPrintWriter</text></a><!--MD5=[5288a8e418d75f7d405ac7c126fc862b]
class nl.talsmasoftware.umldoclet.uml.Diagram--><a href="Diagram.html" target="_top" title="Diagram.html" xlink:actuate="onRequest" xlink:href="Diagram.html" xlink:show="new" xlink:title="Diagram.html" xlink:type="simple"><rect codeLine="13" fill="#FEFECE" filter="url(#febwfkp6r086x)" height="58.7422" id="nl.talsmasoftware.umldoclet.uml.Diagram" style="stroke:#A80036;stroke-width:1.5;" width="196" x="87.5" y="7"/><ellipse cx="102.5" cy="25.9688" fill="#A9DCDF" rx="11" ry="11" style="stroke:#A80036;stroke-width:1.0;"/><path d="M102.6094,21.3125 L101.4531,26.3906 L103.7813,26.3906 L102.6094,21.3125 Z M101.125,19.0781 L104.1094,19.0781 L107.4688,31.4688 L105.0156,31.4688 L104.25,28.4063 L100.9688,28.4063 L100.2188,31.4688 L97.7813,31.4688 L101.125,19.0781 Z " fill="#000000"/><text fill="#000000" font-family="sans-serif" font-size="14" font-style="italic" lengthAdjust="spacing" textLength="57" x="170" y="24.9951">Diagram</text><text fill="#000000" font-family="sans-serif" font-size="10" font-style="italic" lengthAdjust="spacing" textLength="164" x="116.5" y="37.5791">nl.talsmasoftware.umldoclet.uml</text><line style="stroke:#A80036;stroke-width:1.5;" x1="88.5" x2="282.5" y1="44.9375" y2="44.9375"/><polygon fill="#FFFF44" points="98.5,50.9375,102.5,54.9375,98.5,58.9375,94.5,54.9375" style="stroke:#B38D22;stroke-width:1.0;"/><text fill="#000000" font-family="sans-serif" font-size="11" font-style="italic" lengthAdjust="spacing" textLength="122" x="107.5" y="59.1479">getPlantUmlFile(): File</text></a><!--MD5=[8b941de39b8ea460b78f0361d5a445a0]
reverse link nl.talsmasoftware.umldoclet.uml.Diagram to nl.talsmasoftware.umldoclet.uml.DependencyDiagram--><path codeLine="17" d="M185.5,86.4 C185.5,99.11 185.5,112.88 185.5,125.84 " fill="none" id="nl.talsmasoftware.umldoclet.uml.Diagram-backto-nl.talsmasoftware.umldoclet.uml.DependencyDiagram" style="stroke:#A80036;stroke-width:1.0;"/><polygon fill="none" points="178.5,86.34,185.5,66.34,192.5,86.34,178.5,86.34" style="stroke:#A80036;stroke-width:1.0;"/><text fill="#888888" font-family="sans-serif" font-size="10" lengthAdjust="spacing" textLength="186" x="88.5" y="258.2432">UMLDoclet 2.0.14, PlantUML 1.2021.9</text><!--MD5=[eae760cf99897d498d4cd44137c93e13]
@startuml
    set namespaceSeparator none
    hide empty fields
    hide empty methods

    class "<size:14>DependencyDiagram\n<size:10>nl.talsmasoftware.umldoclet.uml" as nl.talsmasoftware.umldoclet.uml.DependencyDiagram [[DependencyDiagram.html]] {
        +DependencyDiagram(Configuration, String)
        +getChildren(): List<UMLNode>
        +addPackageDependency(String, String): void
        #getPlantUmlFile(): File
        #writeChildrenTo(IndentingPrintWriter): IndentingPrintWriter
    }

    abstract class "<size:14>Diagram\n<size:10>nl.talsmasoftware.umldoclet.uml" as nl.talsmasoftware.umldoclet.uml.Diagram [[Diagram.html]] {
        {abstract} #getPlantUmlFile(): File
    }

    nl.talsmasoftware.umldoclet.uml.Diagram <|- - nl.talsmasoftware.umldoclet.uml.DependencyDiagram

    center footer UMLDoclet 2.0.14, PlantUML 1.2021.9
@enduml

PlantUML version 1.2021.9(Sun Jul 25 10:13:56 UTC 2021)
(APACHE source distribution)
Java Runtime: OpenJDK Runtime Environment
JVM: OpenJDK 64-Bit Server VM
Default Encoding: UTF-8
Language: en
Country: null
--></g></svg>