<?xml version="1.0" encoding="UTF-8" standalone="no"?><svg xmlns="http://www.w3.org/2000/svg" xmlns:xlink="http://www.w3.org/1999/xlink" contentScriptType="application/ecmascript" contentStyleType="text/css" height="220px" preserveAspectRatio="none" style="width:500px;height:220px;background:#FFFFFF;" version="1.1" viewBox="0 0 500 220" width="500px" zoomAndPan="magnify"><defs><filter height="300%" id="f32ye4pe6bdi8" width="300%" x="-1" y="-1"><feGaussianBlur result="blurOut" stdDeviation="2.0"/><feColorMatrix in="blurOut" result="blurOut2" type="matrix" values="0 0 0 0 0 0 0 0 0 0 0 0 0 0 0 0 0 0 .4 0"/><feOffset dx="4.0" dy="4.0" in="blurOut2" result="blurOut3"/><feBlend in="SourceGraphic" in2="blurOut3" mode="normal"/></filter></defs><g><!--MD5=[fe80c4ecdeb7e1034e5d362eeb4da7ad]
class nl.talsmasoftware.umldoclet.uml.Field--><a href="Field.html" target="_top" title="Field.html" xlink:actuate="onRequest" xlink:href="Field.html" xlink:show="new" xlink:title="Field.html" xlink:type="simple"><rect codeLine="5" fill="#FEFECE" filter="url(#f32ye4pe6bdi8)" height="84.3516" id="nl.talsmasoftware.umldoclet.uml.Field" style="stroke:#A80036;stroke-width:1.5;" width="477" x="9" y="105"/><ellipse cx="164.25" cy="123.9688" fill="#ADD1B2" rx="11" ry="11" style="stroke:#A80036;stroke-width:1.0;"/><path d="M167.2188,129.6094 Q166.6406,129.9063 166,130.0469 Q165.3594,130.2031 164.6563,130.2031 Q162.1563,130.2031 160.8281,128.5625 Q159.5156,126.9063 159.5156,123.7813 Q159.5156,120.6563 160.8281,119 Q162.1563,117.3438 164.6563,117.3438 Q165.3594,117.3438 166,117.5 Q166.6563,117.6563 167.2188,117.9531 L167.2188,120.6719 Q166.5938,120.0938 166,119.8281 Q165.4063,119.5469 164.7813,119.5469 Q163.4375,119.5469 162.75,120.625 Q162.0625,121.6875 162.0625,123.7813 Q162.0625,125.875 162.75,126.9531 Q163.4375,128.0156 164.7813,128.0156 Q165.4063,128.0156 166,127.75 Q166.5938,127.4688 167.2188,126.8906 L167.2188,129.6094 Z " fill="#000000"/><text fill="#000000" font-family="sans-serif" font-size="14" lengthAdjust="spacing" textLength="32" x="247.75" y="122.9951">Field</text><text fill="#000000" font-family="sans-serif" font-size="10" lengthAdjust="spacing" textLength="158" x="184.75" y="135.5791">nl.talsmasoftware.umldoclet.uml</text><line style="stroke:#A80036;stroke-width:1.5;" x1="10" x2="485" y1="142.9375" y2="142.9375"/><ellipse cx="20" cy="153.9375" fill="#84BE84" rx="3" ry="3" style="stroke:#038048;stroke-width:1.0;"/><text fill="#000000" font-family="sans-serif" font-size="11" lengthAdjust="spacing" textLength="171" x="29" y="157.1479">Field(Type, String, TypeName)</text><polygon fill="#FFFF44" points="20,161.7422,24,165.7422,20,169.7422,16,165.7422" style="stroke:#B38D22;stroke-width:1.0;"/><text fill="#000000" font-family="sans-serif" font-size="11" lengthAdjust="spacing" textLength="451" x="29" y="169.9526">writeTypeTo(IPW extends IndentingPrintWriter): IPW extends IndentingPrintWriter</text><ellipse cx="20" cy="179.5469" fill="#84BE84" rx="3" ry="3" style="stroke:#038048;stroke-width:1.0;"/><text fill="#000000" font-family="sans-serif" font-size="11" lengthAdjust="spacing" textLength="424" x="29" y="182.7573">writeTo(IPW extends IndentingPrintWriter): IPW extends IndentingPrintWriter</text></a><!--MD5=[1e045c48fc15d4b5e682ab987a85ed1d]
class nl.talsmasoftware.umldoclet.uml.TypeMember--><a href="TypeMember.html" target="_top" title="TypeMember.html" xlink:actuate="onRequest" xlink:href="TypeMember.html" xlink:show="new" xlink:title="TypeMember.html" xlink:type="simple"><rect codeLine="11" fill="#FEFECE" filter="url(#f32ye4pe6bdi8)" height="37.9375" id="nl.talsmasoftware.umldoclet.uml.TypeMember" style="stroke:#A80036;stroke-width:1.5;" width="196" x="149.5" y="7"/><ellipse cx="164.5" cy="25.9688" fill="#A9DCDF" rx="11" ry="11" style="stroke:#A80036;stroke-width:1.0;"/><path d="M164.6094,21.3125 L163.4531,26.3906 L165.7813,26.3906 L164.6094,21.3125 Z M163.125,19.0781 L166.1094,19.0781 L169.4688,31.4688 L167.0156,31.4688 L166.25,28.4063 L162.9688,28.4063 L162.2188,31.4688 L159.7813,31.4688 L163.125,19.0781 Z " fill="#000000"/><text fill="#000000" font-family="sans-serif" font-size="14" font-style="italic" lengthAdjust="spacing" textLength="92" x="214.5" y="24.9951">TypeMember</text><text fill="#000000" font-family="sans-serif" font-size="10" font-style="italic" lengthAdjust="spacing" textLength="164" x="178.5" y="37.5791">nl.talsmasoftware.umldoclet.uml</text></a><!--MD5=[8a31cd09a6cc8b13daa7ebfabc5387fa]
reverse link nl.talsmasoftware.umldoclet.uml.TypeMember to nl.talsmasoftware.umldoclet.uml.Field--><path codeLine="13" d="M247.5,65.54 C247.5,78.08 247.5,92.05 247.5,104.78 " fill="none" id="nl.talsmasoftware.umldoclet.uml.TypeMember-backto-nl.talsmasoftware.umldoclet.uml.Field" style="stroke:#A80036;stroke-width:1.0;"/><polygon fill="none" points="240.5,65.07,247.5,45.07,254.5,65.07,240.5,65.07" style="stroke:#A80036;stroke-width:1.0;"/><text fill="#888888" font-family="sans-serif" font-size="10" lengthAdjust="spacing" textLength="186" x="150.5" y="211.6338">UMLDoclet 2.0.14, PlantUML 1.2021.9</text><!--MD5=[b214990caf3131493ff2b39a944b45c8]
@startuml
    set namespaceSeparator none
    hide empty fields
    hide empty methods

    class "<size:14>Field\n<size:10>nl.talsmasoftware.umldoclet.uml" as nl.talsmasoftware.umldoclet.uml.Field [[Field.html]] {
        +Field(Type, String, TypeName)
        #writeTypeTo(IPW extends IndentingPrintWriter): IPW extends IndentingPrintWriter
        +writeTo(IPW extends IndentingPrintWriter): IPW extends IndentingPrintWriter
    }

    abstract class "<size:14>TypeMember\n<size:10>nl.talsmasoftware.umldoclet.uml" as nl.talsmasoftware.umldoclet.uml.TypeMember [[TypeMember.html]]

    nl.talsmasoftware.umldoclet.uml.TypeMember <|- - nl.talsmasoftware.umldoclet.uml.Field

    center footer UMLDoclet 2.0.14, PlantUML 1.2021.9
@enduml

PlantUML version 1.2021.9(Sun Jul 25 10:13:56 UTC 2021)
(APACHE source distribution)
Java Runtime: OpenJDK Runtime Environment
JVM: OpenJDK 64-Bit Server VM
Default Encoding: UTF-8
Language: en
Country: null
--></g></svg>