<?xml version="1.0" encoding="UTF-8" standalone="no"?><svg xmlns="http://www.w3.org/2000/svg" xmlns:xlink="http://www.w3.org/1999/xlink" contentScriptType="application/ecmascript" contentStyleType="text/css" height="253px" preserveAspectRatio="none" style="width:481px;height:253px;background:#FFFFFF;" version="1.1" viewBox="0 0 481 253" width="481px" zoomAndPan="magnify"><defs><filter height="300%" id="fgvlol923jeo9" width="300%" x="-1" y="-1"><feGaussianBlur result="blurOut" stdDeviation="2.0"/><feColorMatrix in="blurOut" result="blurOut2" type="matrix" values="0 0 0 0 0 0 0 0 0 0 0 0 0 0 0 0 0 0 .4 0"/><feOffset dx="4.0" dy="4.0" in="blurOut2" result="blurOut3"/><feBlend in="SourceGraphic" in2="blurOut3" mode="normal"/></filter></defs><g><!--MD5=[002a4a23d5c00c39ed0432fee25aedee]
class nl.talsmasoftware.umldoclet.uml.Link--><a href="Link.html" target="_top" title="Link.html" xlink:actuate="onRequest" xlink:href="Link.html" xlink:show="new" xlink:title="Link.html" xlink:type="simple"><rect codeLine="5" fill="#FEFECE" filter="url(#fgvlol923jeo9)" height="97.1563" id="nl.talsmasoftware.umldoclet.uml.Link" style="stroke:#A80036;stroke-width:1.5;" width="450" x="13" y="126"/><ellipse cx="154.75" cy="144.9688" fill="#ADD1B2" rx="11" ry="11" style="stroke:#A80036;stroke-width:1.0;"/><path d="M157.7188,150.6094 Q157.1406,150.9063 156.5,151.0469 Q155.8594,151.2031 155.1563,151.2031 Q152.6563,151.2031 151.3281,149.5625 Q150.0156,147.9063 150.0156,144.7813 Q150.0156,141.6563 151.3281,140 Q152.6563,138.3438 155.1563,138.3438 Q155.8594,138.3438 156.5,138.5 Q157.1563,138.6563 157.7188,138.9531 L157.7188,141.6719 Q157.0938,141.0938 156.5,140.8281 Q155.9063,140.5469 155.2813,140.5469 Q153.9375,140.5469 153.25,141.625 Q152.5625,142.6875 152.5625,144.7813 Q152.5625,146.875 153.25,147.9531 Q153.9375,149.0156 155.2813,149.0156 Q155.9063,149.0156 156.5,148.75 Q157.0938,148.4688 157.7188,147.8906 L157.7188,150.6094 Z " fill="#000000"/><text fill="#000000" font-family="sans-serif" font-size="14" lengthAdjust="spacing" textLength="27" x="240.75" y="143.9951">Link</text><text fill="#000000" font-family="sans-serif" font-size="10" lengthAdjust="spacing" textLength="158" x="175.25" y="156.5791">nl.talsmasoftware.umldoclet.uml</text><line style="stroke:#A80036;stroke-width:1.5;" x1="14" x2="462" y1="163.9375" y2="163.9375"/><ellipse cx="24" cy="174.9375" fill="#84BE84" rx="3" ry="3" style="stroke:#038048;stroke-width:1.0;"/><text fill="#000000" font-family="sans-serif" font-size="11" lengthAdjust="spacing" text-decoration="underline" textLength="108" x="33" y="178.1479">forType(Type): Link</text><ellipse cx="24" cy="187.7422" fill="#84BE84" rx="3" ry="3" style="stroke:#038048;stroke-width:1.0;"/><text fill="#000000" font-family="sans-serif" font-size="11" lengthAdjust="spacing" text-decoration="underline" textLength="168" x="33" y="190.9526">forPackage(Namespace): Link</text><ellipse cx="24" cy="200.5469" fill="#84BE84" rx="3" ry="3" style="stroke:#038048;stroke-width:1.0;"/><text fill="#000000" font-family="sans-serif" font-size="11" lengthAdjust="spacing" text-decoration="underline" textLength="143" x="33" y="203.7573">linkFrom(String): boolean</text><ellipse cx="24" cy="213.3516" fill="#84BE84" rx="3" ry="3" style="stroke:#038048;stroke-width:1.0;"/><text fill="#000000" font-family="sans-serif" font-size="11" lengthAdjust="spacing" textLength="424" x="33" y="216.562">writeTo(IPW extends IndentingPrintWriter): IPW extends IndentingPrintWriter</text></a><!--MD5=[b235ff228ee36acb702be9ef47bc42c2]
class nl.talsmasoftware.umldoclet.uml.UMLNode--><a href="UMLNode.html" target="_top" title="UMLNode.html" xlink:actuate="onRequest" xlink:href="UMLNode.html" xlink:show="new" xlink:title="UMLNode.html" xlink:type="simple"><rect codeLine="12" fill="#FEFECE" filter="url(#fgvlol923jeo9)" height="58.7422" id="nl.talsmasoftware.umldoclet.uml.UMLNode" style="stroke:#A80036;stroke-width:1.5;" width="458" x="9" y="7"/><ellipse cx="151.75" cy="25.9688" fill="#A9DCDF" rx="11" ry="11" style="stroke:#A80036;stroke-width:1.0;"/><path d="M151.8594,21.3125 L150.7031,26.3906 L153.0313,26.3906 L151.8594,21.3125 Z M150.375,19.0781 L153.3594,19.0781 L156.7188,31.4688 L154.2656,31.4688 L153.5,28.4063 L150.2188,28.4063 L149.4688,31.4688 L147.0313,31.4688 L150.375,19.0781 Z " fill="#000000"/><text fill="#000000" font-family="sans-serif" font-size="14" font-style="italic" lengthAdjust="spacing" textLength="68" x="220.25" y="24.9951">UMLNode</text><text fill="#000000" font-family="sans-serif" font-size="10" font-style="italic" lengthAdjust="spacing" textLength="164" x="172.25" y="37.5791">nl.talsmasoftware.umldoclet.uml</text><line style="stroke:#A80036;stroke-width:1.5;" x1="10" x2="466" y1="44.9375" y2="44.9375"/><polygon fill="#FFFF44" points="20,50.9375,24,54.9375,20,58.9375,16,54.9375" style="stroke:#B38D22;stroke-width:1.0;"/><text fill="#000000" font-family="sans-serif" font-size="11" font-style="italic" lengthAdjust="spacing" textLength="432" x="29" y="59.1479">writeTo(IPW extends IndentingPrintWriter): IPW extends IndentingPrintWriter</text></a><!--MD5=[ec6369c4bf333a4e9dc8e1c7a6dda4c2]
reverse link nl.talsmasoftware.umldoclet.uml.UMLNode to nl.talsmasoftware.umldoclet.uml.Link--><path codeLine="16" d="M238,86.31 C238,99.15 238,112.97 238,125.75 " fill="none" id="nl.talsmasoftware.umldoclet.uml.UMLNode-backto-nl.talsmasoftware.umldoclet.uml.Link" style="stroke:#A80036;stroke-width:1.0;"/><polygon fill="none" points="231,86.01,238,66.01,245,86.01,231,86.01" style="stroke:#A80036;stroke-width:1.0;"/><text fill="#888888" font-family="sans-serif" font-size="10" lengthAdjust="spacing" textLength="186" x="141" y="245.4385">UMLDoclet 2.0.14, PlantUML 1.2021.9</text><!--MD5=[1911269a169d9b2fb96d93a3d8f66b02]
@startuml
    set namespaceSeparator none
    hide empty fields
    hide empty methods

    class "<size:14>Link\n<size:10>nl.talsmasoftware.umldoclet.uml" as nl.talsmasoftware.umldoclet.uml.Link [[Link.html]] {
        {static} +forType(Type): Link
        {static} +forPackage(Namespace): Link
        {static} +linkFrom(String): boolean
        +writeTo(IPW extends IndentingPrintWriter): IPW extends IndentingPrintWriter
    }

    abstract class "<size:14>UMLNode\n<size:10>nl.talsmasoftware.umldoclet.uml" as nl.talsmasoftware.umldoclet.uml.UMLNode [[UMLNode.html]] {
        {abstract} #writeTo(IPW extends IndentingPrintWriter): IPW extends IndentingPrintWriter
    }

    nl.talsmasoftware.umldoclet.uml.UMLNode <|- - nl.talsmasoftware.umldoclet.uml.Link

    center footer UMLDoclet 2.0.14, PlantUML 1.2021.9
@enduml

PlantUML version 1.2021.9(Sun Jul 25 10:13:56 UTC 2021)
(APACHE source distribution)
Java Runtime: OpenJDK Runtime Environment
JVM: OpenJDK 64-Bit Server VM
Default Encoding: UTF-8
Language: en
Country: null
--></g></svg>