<?xml version="1.0" encoding="UTF-8" standalone="no"?><svg xmlns="http://www.w3.org/2000/svg" xmlns:xlink="http://www.w3.org/1999/xlink" contentScriptType="application/ecmascript" contentStyleType="text/css" height="245px" preserveAspectRatio="none" style="width:540px;height:245px;background:#FFFFFF;" version="1.1" viewBox="0 0 540 245" width="540px" zoomAndPan="magnify"><defs><filter height="300%" id="f254zhtyxpr9n" width="300%" x="-1" y="-1"><feGaussianBlur result="blurOut" stdDeviation="2.0"/><feColorMatrix in="blurOut" result="blurOut2" type="matrix" values="0 0 0 0 0 0 0 0 0 0 0 0 0 0 0 0 0 0 .4 0"/><feOffset dx="4.0" dy="4.0" in="blurOut2" result="blurOut3"/><feBlend in="SourceGraphic" in2="blurOut3" mode="normal"/></filter></defs><g><!--MD5=[a99b3a40c0faefad02a7ed7ef4140fc3]
class nl.talsmasoftware.umldoclet.uml.Method--><a href="Method.html" target="_top" title="Method.html" xlink:actuate="onRequest" xlink:href="Method.html" xlink:show="new" xlink:title="Method.html" xlink:type="simple"><rect codeLine="5" fill="#FEFECE" filter="url(#f254zhtyxpr9n)" height="109.9609" id="nl.talsmasoftware.umldoclet.uml.Method" style="stroke:#A80036;stroke-width:1.5;" width="517" x="9" y="105"/><ellipse cx="184.25" cy="123.9688" fill="#ADD1B2" rx="11" ry="11" style="stroke:#A80036;stroke-width:1.0;"/><path d="M187.2188,129.6094 Q186.6406,129.9063 186,130.0469 Q185.3594,130.2031 184.6563,130.2031 Q182.1563,130.2031 180.8281,128.5625 Q179.5156,126.9063 179.5156,123.7813 Q179.5156,120.6563 180.8281,119 Q182.1563,117.3438 184.6563,117.3438 Q185.3594,117.3438 186,117.5 Q186.6563,117.6563 187.2188,117.9531 L187.2188,120.6719 Q186.5938,120.0938 186,119.8281 Q185.4063,119.5469 184.7813,119.5469 Q183.4375,119.5469 182.75,120.625 Q182.0625,121.6875 182.0625,123.7813 Q182.0625,125.875 182.75,126.9531 Q183.4375,128.0156 184.7813,128.0156 Q185.4063,128.0156 186,127.75 Q186.5938,127.4688 187.2188,126.8906 L187.2188,129.6094 Z " fill="#000000"/><text fill="#000000" font-family="sans-serif" font-size="14" lengthAdjust="spacing" textLength="53" x="257.25" y="122.9951">Method</text><text fill="#000000" font-family="sans-serif" font-size="10" lengthAdjust="spacing" textLength="158" x="204.75" y="135.5791">nl.talsmasoftware.umldoclet.uml</text><line style="stroke:#A80036;stroke-width:1.5;" x1="10" x2="525" y1="142.9375" y2="142.9375"/><ellipse cx="20" cy="153.9375" fill="#84BE84" rx="3" ry="3" style="stroke:#038048;stroke-width:1.0;"/><text fill="#000000" font-family="sans-serif" font-size="11" lengthAdjust="spacing" textLength="186" x="29" y="157.1479">Method(Type, String, TypeName)</text><ellipse cx="20" cy="166.7422" fill="#84BE84" rx="3" ry="3" style="stroke:#038048;stroke-width:1.0;"/><text fill="#000000" font-family="sans-serif" font-size="11" lengthAdjust="spacing" textLength="222" x="29" y="169.9526">addParameter(String, TypeName): void</text><polygon fill="#FFFF44" points="20,174.5469,24,178.5469,20,182.5469,16,178.5469" style="stroke:#B38D22;stroke-width:1.0;"/><text fill="#000000" font-family="sans-serif" font-size="11" lengthAdjust="spacing" textLength="491" x="29" y="182.7573">writeParametersTo(IPW extends IndentingPrintWriter): IPW extends IndentingPrintWriter</text><ellipse cx="20" cy="192.3516" fill="#84BE84" rx="3" ry="3" style="stroke:#038048;stroke-width:1.0;"/><text fill="#000000" font-family="sans-serif" font-size="11" lengthAdjust="spacing" textLength="424" x="29" y="195.562">writeTo(IPW extends IndentingPrintWriter): IPW extends IndentingPrintWriter</text><polygon fill="#FFFF44" points="20,200.1563,24,204.1563,20,208.1563,16,204.1563" style="stroke:#B38D22;stroke-width:1.0;"/><text fill="#000000" font-family="sans-serif" font-size="11" lengthAdjust="spacing" textLength="451" x="29" y="208.3667">writeTypeTo(IPW extends IndentingPrintWriter): IPW extends IndentingPrintWriter</text></a><!--MD5=[1e045c48fc15d4b5e682ab987a85ed1d]
class nl.talsmasoftware.umldoclet.uml.TypeMember--><a href="TypeMember.html" target="_top" title="TypeMember.html" xlink:actuate="onRequest" xlink:href="TypeMember.html" xlink:show="new" xlink:title="TypeMember.html" xlink:type="simple"><rect codeLine="13" fill="#FEFECE" filter="url(#f254zhtyxpr9n)" height="37.9375" id="nl.talsmasoftware.umldoclet.uml.TypeMember" style="stroke:#A80036;stroke-width:1.5;" width="196" x="169.5" y="7"/><ellipse cx="184.5" cy="25.9688" fill="#A9DCDF" rx="11" ry="11" style="stroke:#A80036;stroke-width:1.0;"/><path d="M184.6094,21.3125 L183.4531,26.3906 L185.7813,26.3906 L184.6094,21.3125 Z M183.125,19.0781 L186.1094,19.0781 L189.4688,31.4688 L187.0156,31.4688 L186.25,28.4063 L182.9688,28.4063 L182.2188,31.4688 L179.7813,31.4688 L183.125,19.0781 Z " fill="#000000"/><text fill="#000000" font-family="sans-serif" font-size="14" font-style="italic" lengthAdjust="spacing" textLength="92" x="234.5" y="24.9951">TypeMember</text><text fill="#000000" font-family="sans-serif" font-size="10" font-style="italic" lengthAdjust="spacing" textLength="164" x="198.5" y="37.5791">nl.talsmasoftware.umldoclet.uml</text></a><!--MD5=[f6c5214f5a3d3ba0a9f605082f8d6550]
reverse link nl.talsmasoftware.umldoclet.uml.TypeMember to nl.talsmasoftware.umldoclet.uml.Method--><path codeLine="15" d="M267.5,65.19 C267.5,77.61 267.5,91.62 267.5,104.97 " fill="none" id="nl.talsmasoftware.umldoclet.uml.TypeMember-backto-nl.talsmasoftware.umldoclet.uml.Method" style="stroke:#A80036;stroke-width:1.0;"/><polygon fill="none" points="260.5,65.08,267.5,45.08,274.5,65.08,260.5,65.08" style="stroke:#A80036;stroke-width:1.0;"/><text fill="#888888" font-family="sans-serif" font-size="10" lengthAdjust="spacing" textLength="186" x="170.5" y="237.2432">UMLDoclet 2.0.14, PlantUML 1.2021.9</text><!--MD5=[79c484e932774008d1c0371ec99cfe68]
@startuml
    set namespaceSeparator none
    hide empty fields
    hide empty methods

    class "<size:14>Method\n<size:10>nl.talsmasoftware.umldoclet.uml" as nl.talsmasoftware.umldoclet.uml.Method [[Method.html]] {
        +Method(Type, String, TypeName)
        +addParameter(String, TypeName): void
        #writeParametersTo(IPW extends IndentingPrintWriter): IPW extends IndentingPrintWriter
        +writeTo(IPW extends IndentingPrintWriter): IPW extends IndentingPrintWriter
        #writeTypeTo(IPW extends IndentingPrintWriter): IPW extends IndentingPrintWriter
    }

    abstract class "<size:14>TypeMember\n<size:10>nl.talsmasoftware.umldoclet.uml" as nl.talsmasoftware.umldoclet.uml.TypeMember [[TypeMember.html]]

    nl.talsmasoftware.umldoclet.uml.TypeMember <|- - nl.talsmasoftware.umldoclet.uml.Method

    center footer UMLDoclet 2.0.14, PlantUML 1.2021.9
@enduml

PlantUML version 1.2021.9(Sun Jul 25 10:13:56 UTC 2021)
(APACHE source distribution)
Java Runtime: OpenJDK Runtime Environment
JVM: OpenJDK 64-Bit Server VM
Default Encoding: UTF-8
Language: en
Country: null
--></g></svg>