<?xml version="1.0" encoding="UTF-8" standalone="no"?><svg xmlns="http://www.w3.org/2000/svg" xmlns:xlink="http://www.w3.org/1999/xlink" contentScriptType="application/ecmascript" contentStyleType="text/css" height="228px" preserveAspectRatio="none" style="width:270px;height:228px;background:#FFFFFF;" version="1.1" viewBox="0 0 270 228" width="270px" zoomAndPan="magnify"><defs><filter height="300%" id="fp357yz2gno4v" width="300%" x="-1" y="-1"><feGaussianBlur result="blurOut" stdDeviation="2.0"/><feColorMatrix in="blurOut" result="blurOut2" type="matrix" values="0 0 0 0 0 0 0 0 0 0 0 0 0 0 0 0 0 0 .4 0"/><feOffset dx="4.0" dy="4.0" in="blurOut2" result="blurOut3"/><feBlend in="SourceGraphic" in2="blurOut3" mode="normal"/></filter></defs><g><!--MD5=[4f829d60f0ccb56894537248a531ba0d]
class nl.talsmasoftware.umldoclet.uml.PackageDiagram--><a href="PackageDiagram.html" target="_top" title="PackageDiagram.html" xlink:actuate="onRequest" xlink:href="PackageDiagram.html" xlink:show="new" xlink:title="PackageDiagram.html" xlink:type="simple"><rect codeLine="5" fill="#FEFECE" filter="url(#fp357yz2gno4v)" height="71.5469" id="nl.talsmasoftware.umldoclet.uml.PackageDiagram" style="stroke:#A80036;stroke-width:1.5;" width="247" x="9" y="126"/><ellipse cx="49.65" cy="144.9688" fill="#ADD1B2" rx="11" ry="11" style="stroke:#A80036;stroke-width:1.0;"/><path d="M52.6188,150.6094 Q52.0406,150.9063 51.4,151.0469 Q50.7594,151.2031 50.0563,151.2031 Q47.5563,151.2031 46.2281,149.5625 Q44.9156,147.9063 44.9156,144.7813 Q44.9156,141.6563 46.2281,140 Q47.5563,138.3438 50.0563,138.3438 Q50.7594,138.3438 51.4,138.5 Q52.0563,138.6563 52.6188,138.9531 L52.6188,141.6719 Q51.9938,141.0938 51.4,140.8281 Q50.8063,140.5469 50.1813,140.5469 Q48.8375,140.5469 48.15,141.625 Q47.4625,142.6875 47.4625,144.7813 Q47.4625,146.875 48.15,147.9531 Q48.8375,149.0156 50.1813,149.0156 Q50.8063,149.0156 51.4,148.75 Q51.9938,148.4688 52.6188,147.8906 L52.6188,150.6094 Z " fill="#000000"/><text fill="#000000" font-family="sans-serif" font-size="14" lengthAdjust="spacing" textLength="116" x="90.35" y="143.9951">PackageDiagram</text><text fill="#000000" font-family="sans-serif" font-size="10" lengthAdjust="spacing" textLength="158" x="69.35" y="156.5791">nl.talsmasoftware.umldoclet.uml</text><line style="stroke:#A80036;stroke-width:1.5;" x1="10" x2="255" y1="163.9375" y2="163.9375"/><ellipse cx="20" cy="174.9375" fill="#84BE84" rx="3" ry="3" style="stroke:#038048;stroke-width:1.0;"/><text fill="#000000" font-family="sans-serif" font-size="11" lengthAdjust="spacing" textLength="221" x="29" y="178.1479">PackageDiagram(Configuration, String)</text><polygon fill="#FFFF44" points="20,182.7422,24,186.7422,20,190.7422,16,186.7422" style="stroke:#B38D22;stroke-width:1.0;"/><text fill="#000000" font-family="sans-serif" font-size="11" lengthAdjust="spacing" textLength="122" x="29" y="190.9526">getPlantUmlFile(): File</text></a><!--MD5=[5288a8e418d75f7d405ac7c126fc862b]
class nl.talsmasoftware.umldoclet.uml.Diagram--><a href="Diagram.html" target="_top" title="Diagram.html" xlink:actuate="onRequest" xlink:href="Diagram.html" xlink:show="new" xlink:title="Diagram.html" xlink:type="simple"><rect codeLine="10" fill="#FEFECE" filter="url(#fp357yz2gno4v)" height="58.7422" id="nl.talsmasoftware.umldoclet.uml.Diagram" style="stroke:#A80036;stroke-width:1.5;" width="196" x="34.5" y="7"/><ellipse cx="49.5" cy="25.9688" fill="#A9DCDF" rx="11" ry="11" style="stroke:#A80036;stroke-width:1.0;"/><path d="M49.6094,21.3125 L48.4531,26.3906 L50.7813,26.3906 L49.6094,21.3125 Z M48.125,19.0781 L51.1094,19.0781 L54.4688,31.4688 L52.0156,31.4688 L51.25,28.4063 L47.9688,28.4063 L47.2188,31.4688 L44.7813,31.4688 L48.125,19.0781 Z " fill="#000000"/><text fill="#000000" font-family="sans-serif" font-size="14" font-style="italic" lengthAdjust="spacing" textLength="57" x="117" y="24.9951">Diagram</text><text fill="#000000" font-family="sans-serif" font-size="10" font-style="italic" lengthAdjust="spacing" textLength="164" x="63.5" y="37.5791">nl.talsmasoftware.umldoclet.uml</text><line style="stroke:#A80036;stroke-width:1.5;" x1="35.5" x2="229.5" y1="44.9375" y2="44.9375"/><polygon fill="#FFFF44" points="45.5,50.9375,49.5,54.9375,45.5,58.9375,41.5,54.9375" style="stroke:#B38D22;stroke-width:1.0;"/><text fill="#000000" font-family="sans-serif" font-size="11" font-style="italic" lengthAdjust="spacing" textLength="122" x="54.5" y="59.1479">getPlantUmlFile(): File</text></a><!--MD5=[b317143f611f505151340f7c42079405]
reverse link nl.talsmasoftware.umldoclet.uml.Diagram to nl.talsmasoftware.umldoclet.uml.PackageDiagram--><path codeLine="14" d="M132.5,86.46 C132.5,99.64 132.5,113.64 132.5,125.9 " fill="none" id="nl.talsmasoftware.umldoclet.uml.Diagram-backto-nl.talsmasoftware.umldoclet.uml.PackageDiagram" style="stroke:#A80036;stroke-width:1.0;"/><polygon fill="none" points="125.5,86.14,132.5,66.14,139.5,86.14,125.5,86.14" style="stroke:#A80036;stroke-width:1.0;"/><text fill="#888888" font-family="sans-serif" font-size="10" lengthAdjust="spacing" textLength="186" x="35.5" y="219.8291">UMLDoclet 2.0.14, PlantUML 1.2021.9</text><!--MD5=[24828b18aa7ed5e69a4dc5edd433b56a]
@startuml
    set namespaceSeparator none
    hide empty fields
    hide empty methods

    class "<size:14>PackageDiagram\n<size:10>nl.talsmasoftware.umldoclet.uml" as nl.talsmasoftware.umldoclet.uml.PackageDiagram [[PackageDiagram.html]] {
        +PackageDiagram(Configuration, String)
        #getPlantUmlFile(): File
    }

    abstract class "<size:14>Diagram\n<size:10>nl.talsmasoftware.umldoclet.uml" as nl.talsmasoftware.umldoclet.uml.Diagram [[Diagram.html]] {
        {abstract} #getPlantUmlFile(): File
    }

    nl.talsmasoftware.umldoclet.uml.Diagram <|- - nl.talsmasoftware.umldoclet.uml.PackageDiagram

    center footer UMLDoclet 2.0.14, PlantUML 1.2021.9
@enduml

PlantUML version 1.2021.9(Sun Jul 25 10:13:56 UTC 2021)
(APACHE source distribution)
Java Runtime: OpenJDK Runtime Environment
JVM: OpenJDK 64-Bit Server VM
Default Encoding: UTF-8
Language: en
Country: null
--></g></svg>