<?xml version="1.0" encoding="UTF-8" standalone="no"?><svg xmlns="http://www.w3.org/2000/svg" xmlns:xlink="http://www.w3.org/1999/xlink" contentScriptType="application/ecmascript" contentStyleType="text/css" height="377px" preserveAspectRatio="none" style="width:518px;height:377px;background:#FFFFFF;" version="1.1" viewBox="0 0 518 377" width="518px" zoomAndPan="magnify"><defs><filter height="300%" id="f1lojoweqfpnqk" width="300%" x="-1" y="-1"><feGaussianBlur result="blurOut" stdDeviation="2.0"/><feColorMatrix in="blurOut" result="blurOut2" type="matrix" values="0 0 0 0 0 0 0 0 0 0 0 0 0 0 0 0 0 0 .4 0"/><feOffset dx="4.0" dy="4.0" in="blurOut2" result="blurOut3"/><feBlend in="SourceGraphic" in2="blurOut3" mode="normal"/></filter></defs><g><!--MD5=[778e2fb8e888cb8bdc2ba0f60a3e1097]
class nl.talsmasoftware.umldoclet.uml.Parameters--><a href="Parameters.html" target="_top" title="Parameters.html" xlink:actuate="onRequest" xlink:href="Parameters.html" xlink:show="new" xlink:title="Parameters.html" xlink:type="simple"><rect codeLine="5" fill="#FEFECE" filter="url(#f1lojoweqfpnqk)" height="122.7656" id="nl.talsmasoftware.umldoclet.uml.Parameters" style="stroke:#A80036;stroke-width:1.5;" width="497" x="7" y="126"/><ellipse cx="172.25" cy="144.9688" fill="#ADD1B2" rx="11" ry="11" style="stroke:#A80036;stroke-width:1.0;"/><path d="M175.2188,150.6094 Q174.6406,150.9063 174,151.0469 Q173.3594,151.2031 172.6563,151.2031 Q170.1563,151.2031 168.8281,149.5625 Q167.5156,147.9063 167.5156,144.7813 Q167.5156,141.6563 168.8281,140 Q170.1563,138.3438 172.6563,138.3438 Q173.3594,138.3438 174,138.5 Q174.6563,138.6563 175.2188,138.9531 L175.2188,141.6719 Q174.5938,141.0938 174,140.8281 Q173.4063,140.5469 172.7813,140.5469 Q171.4375,140.5469 170.75,141.625 Q170.0625,142.6875 170.0625,144.7813 Q170.0625,146.875 170.75,147.9531 Q171.4375,149.0156 172.7813,149.0156 Q173.4063,149.0156 174,148.75 Q174.5938,148.4688 175.2188,147.8906 L175.2188,150.6094 Z " fill="#000000"/><text fill="#000000" font-family="sans-serif" font-size="14" lengthAdjust="spacing" textLength="79" x="232.25" y="143.9951">Parameters</text><text fill="#000000" font-family="sans-serif" font-size="10" lengthAdjust="spacing" textLength="158" x="192.75" y="156.5791">nl.talsmasoftware.umldoclet.uml</text><line style="stroke:#A80036;stroke-width:1.5;" x1="8" x2="503" y1="163.9375" y2="163.9375"/><ellipse cx="18" cy="174.9375" fill="#84BE84" rx="3" ry="3" style="stroke:#038048;stroke-width:1.0;"/><text fill="#000000" font-family="sans-serif" font-size="11" lengthAdjust="spacing" textLength="127" x="27" y="178.1479">Parameters(UMLNode)</text><ellipse cx="18" cy="187.7422" fill="#84BE84" rx="3" ry="3" style="stroke:#038048;stroke-width:1.0;"/><text fill="#000000" font-family="sans-serif" font-size="11" lengthAdjust="spacing" textLength="140" x="27" y="190.9526">addChild(UMLNode): void</text><ellipse cx="18" cy="200.5469" fill="#84BE84" rx="3" ry="3" style="stroke:#038048;stroke-width:1.0;"/><text fill="#000000" font-family="sans-serif" font-size="11" lengthAdjust="spacing" textLength="206" x="27" y="203.7573">add(String, TypeName): Parameters</text><ellipse cx="18" cy="213.3516" fill="#84BE84" rx="3" ry="3" style="stroke:#038048;stroke-width:1.0;"/><text fill="#000000" font-family="sans-serif" font-size="11" lengthAdjust="spacing" textLength="172" x="27" y="216.562">varargs(boolean): Parameters</text><ellipse cx="18" cy="226.1563" fill="#84BE84" rx="3" ry="3" style="stroke:#038048;stroke-width:1.0;"/><text fill="#000000" font-family="sans-serif" font-size="11" lengthAdjust="spacing" textLength="424" x="27" y="229.3667">writeTo(IPW extends IndentingPrintWriter): IPW extends IndentingPrintWriter</text><ellipse cx="18" cy="238.9609" fill="#84BE84" rx="3" ry="3" style="stroke:#038048;stroke-width:1.0;"/><text fill="#000000" font-family="sans-serif" font-size="11" lengthAdjust="spacing" textLength="471" x="27" y="242.1714">writeChildrenTo(IPW extends IndentingPrintWriter): IPW extends IndentingPrintWriter</text></a><!--MD5=[b235ff228ee36acb702be9ef47bc42c2]
class nl.talsmasoftware.umldoclet.uml.UMLNode--><a href="UMLNode.html" target="_top" title="UMLNode.html" xlink:actuate="onRequest" xlink:href="UMLNode.html" xlink:show="new" xlink:title="UMLNode.html" xlink:type="simple"><rect codeLine="14" fill="#FEFECE" filter="url(#f1lojoweqfpnqk)" height="58.7422" id="nl.talsmasoftware.umldoclet.uml.UMLNode" style="stroke:#A80036;stroke-width:1.5;" width="458" x="26.5" y="7"/><ellipse cx="169.25" cy="25.9688" fill="#A9DCDF" rx="11" ry="11" style="stroke:#A80036;stroke-width:1.0;"/><path d="M169.3594,21.3125 L168.2031,26.3906 L170.5313,26.3906 L169.3594,21.3125 Z M167.875,19.0781 L170.8594,19.0781 L174.2188,31.4688 L171.7656,31.4688 L171,28.4063 L167.7188,28.4063 L166.9688,31.4688 L164.5313,31.4688 L167.875,19.0781 Z " fill="#000000"/><text fill="#000000" font-family="sans-serif" font-size="14" font-style="italic" lengthAdjust="spacing" textLength="68" x="237.75" y="24.9951">UMLNode</text><text fill="#000000" font-family="sans-serif" font-size="10" font-style="italic" lengthAdjust="spacing" textLength="164" x="189.75" y="37.5791">nl.talsmasoftware.umldoclet.uml</text><line style="stroke:#A80036;stroke-width:1.5;" x1="27.5" x2="483.5" y1="44.9375" y2="44.9375"/><polygon fill="#FFFF44" points="37.5,50.9375,41.5,54.9375,37.5,58.9375,33.5,54.9375" style="stroke:#B38D22;stroke-width:1.0;"/><text fill="#000000" font-family="sans-serif" font-size="11" font-style="italic" lengthAdjust="spacing" textLength="432" x="46.5" y="59.1479">writeTo(IPW extends IndentingPrintWriter): IPW extends IndentingPrintWriter</text></a><!--MD5=[de003b9a52079fd8fc05c71d061b8cb3]
class nl.talsmasoftware.umldoclet.uml.Parameters.Parameter--><a href="Parameters.Parameter.html" target="_top" title="Parameters.Parameter.html" xlink:actuate="onRequest" xlink:href="Parameters.Parameter.html" xlink:show="new" xlink:title="Parameters.Parameter.html" xlink:type="simple"><rect codeLine="17" fill="#FEFECE" filter="url(#f1lojoweqfpnqk)" height="37.9375" id="nl.talsmasoftware.umldoclet.uml.Parameters.Parameter" style="stroke:#A80036;stroke-width:1.5;" width="190" x="160.5" y="309"/><ellipse cx="175.5" cy="327.9688" fill="#ADD1B2" rx="11" ry="11" style="stroke:#A80036;stroke-width:1.0;"/><path d="M178.4688,333.6094 Q177.8906,333.9063 177.25,334.0469 Q176.6094,334.2031 175.9063,334.2031 Q173.4063,334.2031 172.0781,332.5625 Q170.7656,330.9063 170.7656,327.7813 Q170.7656,324.6563 172.0781,323 Q173.4063,321.3438 175.9063,321.3438 Q176.6094,321.3438 177.25,321.5 Q177.9063,321.6563 178.4688,321.9531 L178.4688,324.6719 Q177.8438,324.0938 177.25,323.8281 Q176.6563,323.5469 176.0313,323.5469 Q174.6875,323.5469 174,324.625 Q173.3125,325.6875 173.3125,327.7813 Q173.3125,329.875 174,330.9531 Q174.6875,332.0156 176.0313,332.0156 Q176.6563,332.0156 177.25,331.75 Q177.8438,331.4688 178.4688,330.8906 L178.4688,333.6094 Z " fill="#000000"/><text fill="#000000" font-family="sans-serif" font-size="14" lengthAdjust="spacing" textLength="154" x="191.5" y="326.9951">Parameters.Parameter</text><text fill="#000000" font-family="sans-serif" font-size="10" lengthAdjust="spacing" textLength="158" x="189.5" y="339.5791">nl.talsmasoftware.umldoclet.uml</text></a><!--MD5=[1959ab716954168a2932fac56f5875ac]
reverse link nl.talsmasoftware.umldoclet.uml.UMLNode to nl.talsmasoftware.umldoclet.uml.Parameters--><path codeLine="19" d="M255.5,86.61 C255.5,99.14 255.5,112.76 255.5,125.79 " fill="none" id="nl.talsmasoftware.umldoclet.uml.UMLNode-backto-nl.talsmasoftware.umldoclet.uml.Parameters" style="stroke:#A80036;stroke-width:1.0;"/><polygon fill="none" points="248.5,86.23,255.5,66.23,262.5,86.23,248.5,86.23" style="stroke:#A80036;stroke-width:1.0;"/><!--MD5=[050ae9a55cea9ff28234dd4d5357ef7f]
reverse link nl.talsmasoftware.umldoclet.uml.Parameters to nl.talsmasoftware.umldoclet.uml.Parameters.Parameter--><path codeLine="20" d="M255.5,264.3 C255.5,281.01 255.5,297.21 255.5,308.96 " fill="none" id="nl.talsmasoftware.umldoclet.uml.Parameters-backto-nl.talsmasoftware.umldoclet.uml.Parameters.Parameter" style="stroke:#A80036;stroke-width:1.0;"/><ellipse cx="255.5" cy="257.25" fill="#FFFFFF" rx="8" ry="8" style="stroke:#A80036;stroke-width:1.0;"/><line style="stroke:#A80036;stroke-width:1.0;" x1="255.5" x2="255.5" y1="265.25" y2="249.25"/><line style="stroke:#A80036;stroke-width:1.0;" x1="247.5" x2="263.5" y1="257.25" y2="257.25"/><text fill="#888888" font-family="sans-serif" font-size="10" lengthAdjust="spacing" textLength="186" x="159.5" y="369.2197">UMLDoclet 2.0.14, PlantUML 1.2021.9</text><!--MD5=[d2641e69053eea0bfad5bf5bb1afd8fb]
@startuml
    set namespaceSeparator none
    hide empty fields
    hide empty methods

    class "<size:14>Parameters\n<size:10>nl.talsmasoftware.umldoclet.uml" as nl.talsmasoftware.umldoclet.uml.Parameters [[Parameters.html]] {
        +Parameters(UMLNode)
        +addChild(UMLNode): void
        +add(String, TypeName): Parameters
        +varargs(boolean): Parameters
        +writeTo(IPW extends IndentingPrintWriter): IPW extends IndentingPrintWriter
        +writeChildrenTo(IPW extends IndentingPrintWriter): IPW extends IndentingPrintWriter
    }

    abstract class "<size:14>UMLNode\n<size:10>nl.talsmasoftware.umldoclet.uml" as nl.talsmasoftware.umldoclet.uml.UMLNode [[UMLNode.html]] {
        {abstract} #writeTo(IPW extends IndentingPrintWriter): IPW extends IndentingPrintWriter
    }
    class "<size:14>Parameters.Parameter\n<size:10>nl.talsmasoftware.umldoclet.uml" as nl.talsmasoftware.umldoclet.uml.Parameters.Parameter [[Parameters.Parameter.html]]

    nl.talsmasoftware.umldoclet.uml.UMLNode <|- - nl.talsmasoftware.umldoclet.uml.Parameters
    nl.talsmasoftware.umldoclet.uml.Parameters +- - nl.talsmasoftware.umldoclet.uml.Parameters.Parameter

    center footer UMLDoclet 2.0.14, PlantUML 1.2021.9
@enduml

PlantUML version 1.2021.9(Sun Jul 25 10:13:56 UTC 2021)
(APACHE source distribution)
Java Runtime: OpenJDK Runtime Environment
JVM: OpenJDK 64-Bit Server VM
Default Encoding: UTF-8
Language: en
Country: null
--></g></svg>