<?xml version="1.0" encoding="UTF-8" standalone="no"?><svg xmlns="http://www.w3.org/2000/svg" xmlns:xlink="http://www.w3.org/1999/xlink" contentScriptType="application/ecmascript" contentStyleType="text/css" height="215px" preserveAspectRatio="none" style="width:706px;height:215px;background:#FFFFFF;" version="1.1" viewBox="0 0 706 215" width="706px" zoomAndPan="magnify"><defs><filter height="300%" id="f1tmnfiw8pm95r" width="300%" x="-1" y="-1"><feGaussianBlur result="blurOut" stdDeviation="2.0"/><feColorMatrix in="blurOut" result="blurOut2" type="matrix" values="0 0 0 0 0 0 0 0 0 0 0 0 0 0 0 0 0 0 .4 0"/><feOffset dx="4.0" dy="4.0" in="blurOut2" result="blurOut3"/><feBlend in="SourceGraphic" in2="blurOut3" mode="normal"/></filter></defs><g><!--MD5=[de003b9a52079fd8fc05c71d061b8cb3]
class nl.talsmasoftware.umldoclet.uml.Parameters.Parameter--><a href="Parameters.Parameter.html" target="_top" title="Parameters.Parameter.html" xlink:actuate="onRequest" xlink:href="Parameters.Parameter.html" xlink:show="new" xlink:title="Parameters.Parameter.html" xlink:type="simple"><rect codeLine="5" fill="#FEFECE" filter="url(#f1tmnfiw8pm95r)" height="58.7422" id="nl.talsmasoftware.umldoclet.uml.Parameters.Parameter" style="stroke:#A80036;stroke-width:1.5;" width="450" x="192" y="126"/><ellipse cx="333.75" cy="144.9688" fill="#ADD1B2" rx="11" ry="11" style="stroke:#A80036;stroke-width:1.0;"/><path d="M336.7188,150.6094 Q336.1406,150.9063 335.5,151.0469 Q334.8594,151.2031 334.1563,151.2031 Q331.6563,151.2031 330.3281,149.5625 Q329.0156,147.9063 329.0156,144.7813 Q329.0156,141.6563 330.3281,140 Q331.6563,138.3438 334.1563,138.3438 Q334.8594,138.3438 335.5,138.5 Q336.1563,138.6563 336.7188,138.9531 L336.7188,141.6719 Q336.0938,141.0938 335.5,140.8281 Q334.9063,140.5469 334.2813,140.5469 Q332.9375,140.5469 332.25,141.625 Q331.5625,142.6875 331.5625,144.7813 Q331.5625,146.875 332.25,147.9531 Q332.9375,149.0156 334.2813,149.0156 Q334.9063,149.0156 335.5,148.75 Q336.0938,148.4688 336.7188,147.8906 L336.7188,150.6094 Z " fill="#000000"/><text fill="#000000" font-family="sans-serif" font-size="14" lengthAdjust="spacing" textLength="154" x="356.25" y="143.9951">Parameters.Parameter</text><text fill="#000000" font-family="sans-serif" font-size="10" lengthAdjust="spacing" textLength="158" x="354.25" y="156.5791">nl.talsmasoftware.umldoclet.uml</text><line style="stroke:#A80036;stroke-width:1.5;" x1="193" x2="641" y1="163.9375" y2="163.9375"/><ellipse cx="203" cy="174.9375" fill="#84BE84" rx="3" ry="3" style="stroke:#038048;stroke-width:1.0;"/><text fill="#000000" font-family="sans-serif" font-size="11" lengthAdjust="spacing" textLength="424" x="212" y="178.1479">writeTo(IPW extends IndentingPrintWriter): IPW extends IndentingPrintWriter</text></a><!--MD5=[b235ff228ee36acb702be9ef47bc42c2]
class nl.talsmasoftware.umldoclet.uml.UMLNode--><a href="UMLNode.html" target="_top" title="UMLNode.html" xlink:actuate="onRequest" xlink:href="UMLNode.html" xlink:show="new" xlink:title="UMLNode.html" xlink:type="simple"><rect codeLine="9" fill="#FEFECE" filter="url(#f1tmnfiw8pm95r)" height="58.7422" id="nl.talsmasoftware.umldoclet.uml.UMLNode" style="stroke:#A80036;stroke-width:1.5;" width="458" x="9" y="7"/><ellipse cx="151.75" cy="25.9688" fill="#A9DCDF" rx="11" ry="11" style="stroke:#A80036;stroke-width:1.0;"/><path d="M151.8594,21.3125 L150.7031,26.3906 L153.0313,26.3906 L151.8594,21.3125 Z M150.375,19.0781 L153.3594,19.0781 L156.7188,31.4688 L154.2656,31.4688 L153.5,28.4063 L150.2188,28.4063 L149.4688,31.4688 L147.0313,31.4688 L150.375,19.0781 Z " fill="#000000"/><text fill="#000000" font-family="sans-serif" font-size="14" font-style="italic" lengthAdjust="spacing" textLength="68" x="220.25" y="24.9951">UMLNode</text><text fill="#000000" font-family="sans-serif" font-size="10" font-style="italic" lengthAdjust="spacing" textLength="164" x="172.25" y="37.5791">nl.talsmasoftware.umldoclet.uml</text><line style="stroke:#A80036;stroke-width:1.5;" x1="10" x2="466" y1="44.9375" y2="44.9375"/><polygon fill="#FFFF44" points="20,50.9375,24,54.9375,20,58.9375,16,54.9375" style="stroke:#B38D22;stroke-width:1.0;"/><text fill="#000000" font-family="sans-serif" font-size="11" font-style="italic" lengthAdjust="spacing" textLength="432" x="29" y="59.1479">writeTo(IPW extends IndentingPrintWriter): IPW extends IndentingPrintWriter</text></a><!--MD5=[778e2fb8e888cb8bdc2ba0f60a3e1097]
class nl.talsmasoftware.umldoclet.uml.Parameters--><a href="Parameters.html" target="_top" title="Parameters.html" xlink:actuate="onRequest" xlink:href="Parameters.html" xlink:show="new" xlink:title="Parameters.html" xlink:type="simple"><rect codeLine="12" fill="#FEFECE" filter="url(#f1tmnfiw8pm95r)" height="37.9375" id="nl.talsmasoftware.umldoclet.uml.Parameters" style="stroke:#A80036;stroke-width:1.5;" width="190" x="502" y="17.5"/><ellipse cx="517" cy="36.4688" fill="#ADD1B2" rx="11" ry="11" style="stroke:#A80036;stroke-width:1.0;"/><path d="M519.9688,42.1094 Q519.3906,42.4063 518.75,42.5469 Q518.1094,42.7031 517.4063,42.7031 Q514.9063,42.7031 513.5781,41.0625 Q512.2656,39.4063 512.2656,36.2813 Q512.2656,33.1563 513.5781,31.5 Q514.9063,29.8438 517.4063,29.8438 Q518.1094,29.8438 518.75,30 Q519.4063,30.1563 519.9688,30.4531 L519.9688,33.1719 Q519.3438,32.5938 518.75,32.3281 Q518.1563,32.0469 517.5313,32.0469 Q516.1875,32.0469 515.5,33.125 Q514.8125,34.1875 514.8125,36.2813 Q514.8125,38.375 515.5,39.4531 Q516.1875,40.5156 517.5313,40.5156 Q518.1563,40.5156 518.75,40.25 Q519.3438,39.9688 519.9688,39.3906 L519.9688,42.1094 Z " fill="#000000"/><text fill="#000000" font-family="sans-serif" font-size="14" lengthAdjust="spacing" textLength="79" x="570.5" y="35.4951">Parameters</text><text fill="#000000" font-family="sans-serif" font-size="10" lengthAdjust="spacing" textLength="158" x="531" y="48.0791">nl.talsmasoftware.umldoclet.uml</text></a><!--MD5=[5ed18740bb4a71507edf0e18caba91c9]
reverse link nl.talsmasoftware.umldoclet.uml.UMLNode to nl.talsmasoftware.umldoclet.uml.Parameters.Parameter--><path codeLine="14" d="M298.55,77.08 C323.08,93.11 350.86,111.27 373.35,125.97 " fill="none" id="nl.talsmasoftware.umldoclet.uml.UMLNode-backto-nl.talsmasoftware.umldoclet.uml.Parameters.Parameter" style="stroke:#A80036;stroke-width:1.0;"/><polygon fill="none" points="294.7,82.92,281.79,66.12,302.36,71.2,294.7,82.92" style="stroke:#A80036;stroke-width:1.0;"/><!--MD5=[050ae9a55cea9ff28234dd4d5357ef7f]
reverse link nl.talsmasoftware.umldoclet.uml.Parameters to nl.talsmasoftware.umldoclet.uml.Parameters.Parameter--><path codeLine="15" d="M556.55,63.79 C528.1,82.28 490.06,107.01 460.88,125.98 " fill="none" id="nl.talsmasoftware.umldoclet.uml.Parameters-backto-nl.talsmasoftware.umldoclet.uml.Parameters.Parameter" style="stroke:#A80036;stroke-width:1.0;"/><ellipse cx="562.5625" cy="59.8799" fill="#FFFFFF" rx="8" ry="8" style="stroke:#A80036;stroke-width:1.0;"/><line style="stroke:#A80036;stroke-width:1.0;" x1="555.8549" x2="569.27" y1="64.2398" y2="55.52"/><line style="stroke:#A80036;stroke-width:1.0;" x1="558.2025" x2="566.9224" y1="53.1724" y2="66.5875"/><text fill="#888888" font-family="sans-serif" font-size="10" lengthAdjust="spacing" textLength="186" x="253.5" y="207.0244">UMLDoclet 2.0.14, PlantUML 1.2021.9</text><!--MD5=[bb18ca9dbad5d0bf5518945377e74963]
@startuml
    set namespaceSeparator none
    hide empty fields
    hide empty methods

    class "<size:14>Parameters.Parameter\n<size:10>nl.talsmasoftware.umldoclet.uml" as nl.talsmasoftware.umldoclet.uml.Parameters.Parameter [[Parameters.Parameter.html]] {
        +writeTo(IPW extends IndentingPrintWriter): IPW extends IndentingPrintWriter
    }

    abstract class "<size:14>UMLNode\n<size:10>nl.talsmasoftware.umldoclet.uml" as nl.talsmasoftware.umldoclet.uml.UMLNode [[UMLNode.html]] {
        {abstract} #writeTo(IPW extends IndentingPrintWriter): IPW extends IndentingPrintWriter
    }
    class "<size:14>Parameters\n<size:10>nl.talsmasoftware.umldoclet.uml" as nl.talsmasoftware.umldoclet.uml.Parameters [[Parameters.html]]

    nl.talsmasoftware.umldoclet.uml.UMLNode <|- - nl.talsmasoftware.umldoclet.uml.Parameters.Parameter
    nl.talsmasoftware.umldoclet.uml.Parameters +- - nl.talsmasoftware.umldoclet.uml.Parameters.Parameter

    center footer UMLDoclet 2.0.14, PlantUML 1.2021.9
@enduml

PlantUML version 1.2021.9(Sun Jul 25 10:13:56 UTC 2021)
(APACHE source distribution)
Java Runtime: OpenJDK Runtime Environment
JVM: OpenJDK 64-Bit Server VM
Default Encoding: UTF-8
Language: en
Country: null
--></g></svg>