<?xml version="1.0" encoding="UTF-8" standalone="no"?><svg xmlns="http://www.w3.org/2000/svg" xmlns:xlink="http://www.w3.org/1999/xlink" contentScriptType="application/ecmascript" contentStyleType="text/css" height="207px" preserveAspectRatio="none" style="width:211px;height:207px;background:#FFFFFF;" version="1.1" viewBox="0 0 211 207" width="211px" zoomAndPan="magnify"><defs><filter height="300%" id="f1tkrvwtrtkkv9" width="300%" x="-1" y="-1"><feGaussianBlur result="blurOut" stdDeviation="2.0"/><feColorMatrix in="blurOut" result="blurOut2" type="matrix" values="0 0 0 0 0 0 0 0 0 0 0 0 0 0 0 0 0 0 .4 0"/><feOffset dx="4.0" dy="4.0" in="blurOut2" result="blurOut3"/><feBlend in="SourceGraphic" in2="blurOut3" mode="normal"/></filter></defs><g><!--MD5=[60b877446f1ddac92d62620d95edde9c]
class nl.talsmasoftware.umldoclet.uml.Reference.Side--><a href="Reference.Side.html" target="_top" title="Reference.Side.html" xlink:actuate="onRequest" xlink:href="Reference.Side.html" xlink:show="new" xlink:title="Reference.Side.html" xlink:type="simple"><rect codeLine="5" fill="#FEFECE" filter="url(#f1tkrvwtrtkkv9)" height="71.5469" id="nl.talsmasoftware.umldoclet.uml.Reference.Side" style="stroke:#A80036;stroke-width:1.5;" width="190" x="7" y="105"/><ellipse cx="22" cy="123.9688" fill="#ADD1B2" rx="11" ry="11" style="stroke:#A80036;stroke-width:1.0;"/><path d="M24.9688,129.6094 Q24.3906,129.9063 23.75,130.0469 Q23.1094,130.2031 22.4063,130.2031 Q19.9063,130.2031 18.5781,128.5625 Q17.2656,126.9063 17.2656,123.7813 Q17.2656,120.6563 18.5781,119 Q19.9063,117.3438 22.4063,117.3438 Q23.1094,117.3438 23.75,117.5 Q24.4063,117.6563 24.9688,117.9531 L24.9688,120.6719 Q24.3438,120.0938 23.75,119.8281 Q23.1563,119.5469 22.5313,119.5469 Q21.1875,119.5469 20.5,120.625 Q19.8125,121.6875 19.8125,123.7813 Q19.8125,125.875 20.5,126.9531 Q21.1875,128.0156 22.5313,128.0156 Q23.1563,128.0156 23.75,127.75 Q24.3438,127.4688 24.9688,126.8906 L24.9688,129.6094 Z " fill="#000000"/><text fill="#000000" font-family="sans-serif" font-size="14" lengthAdjust="spacing" textLength="106" x="62" y="122.9951">Reference.Side</text><text fill="#000000" font-family="sans-serif" font-size="10" lengthAdjust="spacing" textLength="158" x="36" y="135.5791">nl.talsmasoftware.umldoclet.uml</text><line style="stroke:#A80036;stroke-width:1.5;" x1="8" x2="196" y1="142.9375" y2="142.9375"/><ellipse cx="18" cy="153.9375" fill="#84BE84" rx="3" ry="3" style="stroke:#038048;stroke-width:1.0;"/><text fill="#000000" font-family="sans-serif" font-size="11" lengthAdjust="spacing" text-decoration="underline" textLength="144" x="27" y="157.1479">from(String, String): Side</text><ellipse cx="18" cy="166.7422" fill="#84BE84" rx="3" ry="3" style="stroke:#038048;stroke-width:1.0;"/><text fill="#000000" font-family="sans-serif" font-size="11" lengthAdjust="spacing" text-decoration="underline" textLength="128" x="27" y="169.9526">to(String, String): Side</text></a><!--MD5=[702a6fb799a5c07a8abbb82e31e8bb0a]
class nl.talsmasoftware.umldoclet.uml.Reference--><a href="Reference.html" target="_top" title="Reference.html" xlink:actuate="onRequest" xlink:href="Reference.html" xlink:show="new" xlink:title="Reference.html" xlink:type="simple"><rect codeLine="10" fill="#FEFECE" filter="url(#f1tkrvwtrtkkv9)" height="37.9375" id="nl.talsmasoftware.umldoclet.uml.Reference" style="stroke:#A80036;stroke-width:1.5;" width="190" x="7" y="7"/><ellipse cx="22" cy="25.9688" fill="#ADD1B2" rx="11" ry="11" style="stroke:#A80036;stroke-width:1.0;"/><path d="M24.9688,31.6094 Q24.3906,31.9063 23.75,32.0469 Q23.1094,32.2031 22.4063,32.2031 Q19.9063,32.2031 18.5781,30.5625 Q17.2656,28.9063 17.2656,25.7813 Q17.2656,22.6563 18.5781,21 Q19.9063,19.3438 22.4063,19.3438 Q23.1094,19.3438 23.75,19.5 Q24.4063,19.6563 24.9688,19.9531 L24.9688,22.6719 Q24.3438,22.0938 23.75,21.8281 Q23.1563,21.5469 22.5313,21.5469 Q21.1875,21.5469 20.5,22.625 Q19.8125,23.6875 19.8125,25.7813 Q19.8125,27.875 20.5,28.9531 Q21.1875,30.0156 22.5313,30.0156 Q23.1563,30.0156 23.75,29.75 Q24.3438,29.4688 24.9688,28.8906 L24.9688,31.6094 Z " fill="#000000"/><text fill="#000000" font-family="sans-serif" font-size="14" lengthAdjust="spacing" textLength="72" x="79" y="24.9951">Reference</text><text fill="#000000" font-family="sans-serif" font-size="10" lengthAdjust="spacing" textLength="158" x="36" y="37.5791">nl.talsmasoftware.umldoclet.uml</text></a><!--MD5=[a8ac0d3cb742af1c482a045a5382285b]
reverse link nl.talsmasoftware.umldoclet.uml.Reference to nl.talsmasoftware.umldoclet.uml.Reference.Side--><path codeLine="12" d="M102,60.21 C102,74.15 102,90.38 102,104.56 " fill="none" id="nl.talsmasoftware.umldoclet.uml.Reference-backto-nl.talsmasoftware.umldoclet.uml.Reference.Side" style="stroke:#A80036;stroke-width:1.0;"/><ellipse cx="102" cy="53.16" fill="#FFFFFF" rx="8" ry="8" style="stroke:#A80036;stroke-width:1.0;"/><line style="stroke:#A80036;stroke-width:1.0;" x1="102" x2="102" y1="61.16" y2="45.16"/><line style="stroke:#A80036;stroke-width:1.0;" x1="94" x2="110" y1="53.16" y2="53.16"/><text fill="#888888" font-family="sans-serif" font-size="10" lengthAdjust="spacing" textLength="186" x="6" y="198.8291">UMLDoclet 2.0.14, PlantUML 1.2021.9</text><!--MD5=[d2a823a83b78178b6dd9243fc472cd73]
@startuml
    set namespaceSeparator none
    hide empty fields
    hide empty methods

    class "<size:14>Reference.Side\n<size:10>nl.talsmasoftware.umldoclet.uml" as nl.talsmasoftware.umldoclet.uml.Reference.Side [[Reference.Side.html]] {
        {static} +from(String, String): Side
        {static} +to(String, String): Side
    }

    class "<size:14>Reference\n<size:10>nl.talsmasoftware.umldoclet.uml" as nl.talsmasoftware.umldoclet.uml.Reference [[Reference.html]]

    nl.talsmasoftware.umldoclet.uml.Reference +- - nl.talsmasoftware.umldoclet.uml.Reference.Side

    center footer UMLDoclet 2.0.14, PlantUML 1.2021.9
@enduml

PlantUML version 1.2021.9(Sun Jul 25 10:13:56 UTC 2021)
(APACHE source distribution)
Java Runtime: OpenJDK Runtime Environment
JVM: OpenJDK 64-Bit Server VM
Default Encoding: UTF-8
Language: en
Country: null
--></g></svg>