<?xml version="1.0" encoding="UTF-8" standalone="no"?><svg xmlns="http://www.w3.org/2000/svg" xmlns:xlink="http://www.w3.org/1999/xlink" contentScriptType="application/ecmascript" contentStyleType="text/css" height="436px" preserveAspectRatio="none" style="width:481px;height:436px;background:#FFFFFF;" version="1.1" viewBox="0 0 481 436" width="481px" zoomAndPan="magnify"><defs><filter height="300%" id="fynbrcacg1snk" width="300%" x="-1" y="-1"><feGaussianBlur result="blurOut" stdDeviation="2.0"/><feColorMatrix in="blurOut" result="blurOut2" type="matrix" values="0 0 0 0 0 0 0 0 0 0 0 0 0 0 0 0 0 0 .4 0"/><feOffset dx="4.0" dy="4.0" in="blurOut2" result="blurOut3"/><feBlend in="SourceGraphic" in2="blurOut3" mode="normal"/></filter></defs><g><!--MD5=[702a6fb799a5c07a8abbb82e31e8bb0a]
class nl.talsmasoftware.umldoclet.uml.Reference--><a href="Reference.html" target="_top" title="Reference.html" xlink:actuate="onRequest" xlink:href="Reference.html" xlink:show="new" xlink:title="Reference.html" xlink:type="simple"><rect codeLine="5" fill="#FEFECE" filter="url(#fynbrcacg1snk)" height="181.9844" id="nl.talsmasoftware.umldoclet.uml.Reference" style="stroke:#A80036;stroke-width:1.5;" width="450" x="13" y="126"/><ellipse cx="154.75" cy="144.9688" fill="#ADD1B2" rx="11" ry="11" style="stroke:#A80036;stroke-width:1.0;"/><path d="M157.7188,150.6094 Q157.1406,150.9063 156.5,151.0469 Q155.8594,151.2031 155.1563,151.2031 Q152.6563,151.2031 151.3281,149.5625 Q150.0156,147.9063 150.0156,144.7813 Q150.0156,141.6563 151.3281,140 Q152.6563,138.3438 155.1563,138.3438 Q155.8594,138.3438 156.5,138.5 Q157.1563,138.6563 157.7188,138.9531 L157.7188,141.6719 Q157.0938,141.0938 156.5,140.8281 Q155.9063,140.5469 155.2813,140.5469 Q153.9375,140.5469 153.25,141.625 Q152.5625,142.6875 152.5625,144.7813 Q152.5625,146.875 153.25,147.9531 Q153.9375,149.0156 155.2813,149.0156 Q155.9063,149.0156 156.5,148.75 Q157.0938,148.4688 157.7188,147.8906 L157.7188,150.6094 Z " fill="#000000"/><text fill="#000000" font-family="sans-serif" font-size="14" lengthAdjust="spacing" textLength="72" x="218.25" y="143.9951">Reference</text><text fill="#000000" font-family="sans-serif" font-size="10" lengthAdjust="spacing" textLength="158" x="175.25" y="156.5791">nl.talsmasoftware.umldoclet.uml</text><line style="stroke:#A80036;stroke-width:1.5;" x1="14" x2="462" y1="163.9375" y2="163.9375"/><ellipse cx="24" cy="174.9375" rx="3" ry="3" style="stroke:#038048;stroke-width:1.0;fill:none;"/><text fill="#000000" font-family="sans-serif" font-size="11" lengthAdjust="spacing" textLength="60" x="33" y="178.1479">from: Side</text><ellipse cx="24" cy="187.7422" rx="3" ry="3" style="stroke:#038048;stroke-width:1.0;fill:none;"/><text fill="#000000" font-family="sans-serif" font-size="11" lengthAdjust="spacing" textLength="44" x="33" y="190.9526">to: Side</text><ellipse cx="24" cy="200.5469" rx="3" ry="3" style="stroke:#038048;stroke-width:1.0;fill:none;"/><text fill="#000000" font-family="sans-serif" font-size="11" lengthAdjust="spacing" textLength="66" x="33" y="203.7573">type: String</text><ellipse cx="24" cy="213.3516" rx="3" ry="3" style="stroke:#038048;stroke-width:1.0;fill:none;"/><text fill="#000000" font-family="sans-serif" font-size="11" lengthAdjust="spacing" textLength="147" x="33" y="216.562">notes: Collection&lt;String&gt;</text><line style="stroke:#A80036;stroke-width:1.5;" x1="14" x2="462" y1="223.1563" y2="223.1563"/><ellipse cx="24" cy="234.1563" fill="#84BE84" rx="3" ry="3" style="stroke:#038048;stroke-width:1.0;"/><text fill="#000000" font-family="sans-serif" font-size="11" lengthAdjust="spacing" textLength="219" x="33" y="237.3667">Reference(Side, String, Side, String...)</text><ellipse cx="24" cy="246.9609" fill="#84BE84" rx="3" ry="3" style="stroke:#038048;stroke-width:1.0;"/><text fill="#000000" font-family="sans-serif" font-size="11" lengthAdjust="spacing" textLength="150" x="33" y="250.1714">isSelfReference(): boolean</text><ellipse cx="24" cy="259.7656" fill="#84BE84" rx="3" ry="3" style="stroke:#038048;stroke-width:1.0;"/><text fill="#000000" font-family="sans-serif" font-size="11" lengthAdjust="spacing" textLength="154" x="33" y="262.9761">addNote(String): Reference</text><ellipse cx="24" cy="272.5703" fill="#84BE84" rx="3" ry="3" style="stroke:#038048;stroke-width:1.0;"/><text fill="#000000" font-family="sans-serif" font-size="11" lengthAdjust="spacing" textLength="126" x="33" y="275.7808">canonical(): Reference</text><ellipse cx="24" cy="285.375" fill="#84BE84" rx="3" ry="3" style="stroke:#038048;stroke-width:1.0;"/><text fill="#000000" font-family="sans-serif" font-size="11" lengthAdjust="spacing" textLength="424" x="33" y="288.5854">writeTo(IPW extends IndentingPrintWriter): IPW extends IndentingPrintWriter</text><ellipse cx="24" cy="298.1797" fill="#84BE84" rx="3" ry="3" style="stroke:#038048;stroke-width:1.0;"/><text fill="#000000" font-family="sans-serif" font-size="11" lengthAdjust="spacing" textLength="169" x="33" y="301.3901">contains(TypeName): boolean</text></a><!--MD5=[b235ff228ee36acb702be9ef47bc42c2]
class nl.talsmasoftware.umldoclet.uml.UMLNode--><a href="UMLNode.html" target="_top" title="UMLNode.html" xlink:actuate="onRequest" xlink:href="UMLNode.html" xlink:show="new" xlink:title="UMLNode.html" xlink:type="simple"><rect codeLine="18" fill="#FEFECE" filter="url(#fynbrcacg1snk)" height="58.7422" id="nl.talsmasoftware.umldoclet.uml.UMLNode" style="stroke:#A80036;stroke-width:1.5;" width="458" x="9" y="7"/><ellipse cx="151.75" cy="25.9688" fill="#A9DCDF" rx="11" ry="11" style="stroke:#A80036;stroke-width:1.0;"/><path d="M151.8594,21.3125 L150.7031,26.3906 L153.0313,26.3906 L151.8594,21.3125 Z M150.375,19.0781 L153.3594,19.0781 L156.7188,31.4688 L154.2656,31.4688 L153.5,28.4063 L150.2188,28.4063 L149.4688,31.4688 L147.0313,31.4688 L150.375,19.0781 Z " fill="#000000"/><text fill="#000000" font-family="sans-serif" font-size="14" font-style="italic" lengthAdjust="spacing" textLength="68" x="220.25" y="24.9951">UMLNode</text><text fill="#000000" font-family="sans-serif" font-size="10" font-style="italic" lengthAdjust="spacing" textLength="164" x="172.25" y="37.5791">nl.talsmasoftware.umldoclet.uml</text><line style="stroke:#A80036;stroke-width:1.5;" x1="10" x2="466" y1="44.9375" y2="44.9375"/><polygon fill="#FFFF44" points="20,50.9375,24,54.9375,20,58.9375,16,54.9375" style="stroke:#B38D22;stroke-width:1.0;"/><text fill="#000000" font-family="sans-serif" font-size="11" font-style="italic" lengthAdjust="spacing" textLength="432" x="29" y="59.1479">writeTo(IPW extends IndentingPrintWriter): IPW extends IndentingPrintWriter</text></a><!--MD5=[60b877446f1ddac92d62620d95edde9c]
class nl.talsmasoftware.umldoclet.uml.Reference.Side--><a href="Reference.Side.html" target="_top" title="Reference.Side.html" xlink:actuate="onRequest" xlink:href="Reference.Side.html" xlink:show="new" xlink:title="Reference.Side.html" xlink:type="simple"><rect codeLine="21" fill="#FEFECE" filter="url(#fynbrcacg1snk)" height="37.9375" id="nl.talsmasoftware.umldoclet.uml.Reference.Side" style="stroke:#A80036;stroke-width:1.5;" width="190" x="143" y="368"/><ellipse cx="158" cy="386.9688" fill="#ADD1B2" rx="11" ry="11" style="stroke:#A80036;stroke-width:1.0;"/><path d="M160.9688,392.6094 Q160.3906,392.9063 159.75,393.0469 Q159.1094,393.2031 158.4063,393.2031 Q155.9063,393.2031 154.5781,391.5625 Q153.2656,389.9063 153.2656,386.7813 Q153.2656,383.6563 154.5781,382 Q155.9063,380.3438 158.4063,380.3438 Q159.1094,380.3438 159.75,380.5 Q160.4063,380.6563 160.9688,380.9531 L160.9688,383.6719 Q160.3438,383.0938 159.75,382.8281 Q159.1563,382.5469 158.5313,382.5469 Q157.1875,382.5469 156.5,383.625 Q155.8125,384.6875 155.8125,386.7813 Q155.8125,388.875 156.5,389.9531 Q157.1875,391.0156 158.5313,391.0156 Q159.1563,391.0156 159.75,390.75 Q160.3438,390.4688 160.9688,389.8906 L160.9688,392.6094 Z " fill="#000000"/><text fill="#000000" font-family="sans-serif" font-size="14" lengthAdjust="spacing" textLength="106" x="198" y="385.9951">Reference.Side</text><text fill="#000000" font-family="sans-serif" font-size="10" lengthAdjust="spacing" textLength="158" x="172" y="398.5791">nl.talsmasoftware.umldoclet.uml</text></a><!--MD5=[861597a4741bf84c6d6f6744b847535e]
reverse link nl.talsmasoftware.umldoclet.uml.UMLNode to nl.talsmasoftware.umldoclet.uml.Reference--><path codeLine="23" d="M238,86.49 C238,98.68 238,112.13 238,125.63 " fill="none" id="nl.talsmasoftware.umldoclet.uml.UMLNode-backto-nl.talsmasoftware.umldoclet.uml.Reference" style="stroke:#A80036;stroke-width:1.0;"/><polygon fill="none" points="231,86.18,238,66.18,245,86.18,231,86.18" style="stroke:#A80036;stroke-width:1.0;"/><!--MD5=[a8ac0d3cb742af1c482a045a5382285b]
reverse link nl.talsmasoftware.umldoclet.uml.Reference to nl.talsmasoftware.umldoclet.uml.Reference.Side--><path codeLine="24" d="M238,323.63 C238,340.69 238,356.47 238,367.89 " fill="none" id="nl.talsmasoftware.umldoclet.uml.Reference-backto-nl.talsmasoftware.umldoclet.uml.Reference.Side" style="stroke:#A80036;stroke-width:1.0;"/><ellipse cx="238" cy="316.39" fill="#FFFFFF" rx="8" ry="8" style="stroke:#A80036;stroke-width:1.0;"/><line style="stroke:#A80036;stroke-width:1.0;" x1="238" x2="238" y1="324.39" y2="308.39"/><line style="stroke:#A80036;stroke-width:1.0;" x1="230" x2="246" y1="316.39" y2="316.39"/><text fill="#888888" font-family="sans-serif" font-size="10" lengthAdjust="spacing" textLength="186" x="141" y="428.2197">UMLDoclet 2.0.14, PlantUML 1.2021.9</text><!--MD5=[6987a6716515f1a6bc32ae3ba37bee40]
@startuml
    set namespaceSeparator none
    hide empty fields
    hide empty methods

    class "<size:14>Reference\n<size:10>nl.talsmasoftware.umldoclet.uml" as nl.talsmasoftware.umldoclet.uml.Reference [[Reference.html]] {
        +from: Side
        +to: Side
        +type: String
        +notes: Collection<String>
        +Reference(Side, String, Side, String...)
        +isSelfReference(): boolean
        +addNote(String): Reference
        +canonical(): Reference
        +writeTo(IPW extends IndentingPrintWriter): IPW extends IndentingPrintWriter
        +contains(TypeName): boolean
    }

    abstract class "<size:14>UMLNode\n<size:10>nl.talsmasoftware.umldoclet.uml" as nl.talsmasoftware.umldoclet.uml.UMLNode [[UMLNode.html]] {
        {abstract} #writeTo(IPW extends IndentingPrintWriter): IPW extends IndentingPrintWriter
    }
    class "<size:14>Reference.Side\n<size:10>nl.talsmasoftware.umldoclet.uml" as nl.talsmasoftware.umldoclet.uml.Reference.Side [[Reference.Side.html]]

    nl.talsmasoftware.umldoclet.uml.UMLNode <|- - nl.talsmasoftware.umldoclet.uml.Reference
    nl.talsmasoftware.umldoclet.uml.Reference +- - nl.talsmasoftware.umldoclet.uml.Reference.Side

    center footer UMLDoclet 2.0.14, PlantUML 1.2021.9
@enduml

PlantUML version 1.2021.9(Sun Jul 25 10:13:56 UTC 2021)
(APACHE source distribution)
Java Runtime: OpenJDK Runtime Environment
JVM: OpenJDK 64-Bit Server VM
Default Encoding: UTF-8
Language: en
Country: null
--></g></svg>