<?xml version="1.0" encoding="UTF-8" standalone="no"?><svg xmlns="http://www.w3.org/2000/svg" xmlns:xlink="http://www.w3.org/1999/xlink" contentScriptType="application/ecmascript" contentStyleType="text/css" height="207px" preserveAspectRatio="none" style="width:275px;height:207px;background:#FFFFFF;" version="1.1" viewBox="0 0 275 207" width="275px" zoomAndPan="magnify"><defs><filter height="300%" id="f147muke933wkh" width="300%" x="-1" y="-1"><feGaussianBlur result="blurOut" stdDeviation="2.0"/><feColorMatrix in="blurOut" result="blurOut2" type="matrix" values="0 0 0 0 0 0 0 0 0 0 0 0 0 0 0 0 0 0 .4 0"/><feOffset dx="4.0" dy="4.0" in="blurOut2" result="blurOut3"/><feBlend in="SourceGraphic" in2="blurOut3" mode="normal"/></filter></defs><g><!--MD5=[c88785e2d1bea86802e0d0d2ced7c8bb]
class nl.talsmasoftware.umldoclet.uml.TypeName.Array--><a href="TypeName.Array.html" target="_top" title="TypeName.Array.html" xlink:actuate="onRequest" xlink:href="TypeName.Array.html" xlink:show="new" xlink:title="TypeName.Array.html" xlink:type="simple"><rect codeLine="5" fill="#FEFECE" filter="url(#f147muke933wkh)" height="71.5469" id="nl.talsmasoftware.umldoclet.uml.TypeName.Array" style="stroke:#A80036;stroke-width:1.5;" width="252" x="9" y="105"/><ellipse cx="51.9" cy="123.9688" fill="#ADD1B2" rx="11" ry="11" style="stroke:#A80036;stroke-width:1.0;"/><path d="M54.8688,129.6094 Q54.2906,129.9063 53.65,130.0469 Q53.0094,130.2031 52.3063,130.2031 Q49.8063,130.2031 48.4781,128.5625 Q47.1656,126.9063 47.1656,123.7813 Q47.1656,120.6563 48.4781,119 Q49.8063,117.3438 52.3063,117.3438 Q53.0094,117.3438 53.65,117.5 Q54.3063,117.6563 54.8688,117.9531 L54.8688,120.6719 Q54.2438,120.0938 53.65,119.8281 Q53.0563,119.5469 52.4313,119.5469 Q51.0875,119.5469 50.4,120.625 Q49.7125,121.6875 49.7125,123.7813 Q49.7125,125.875 50.4,126.9531 Q51.0875,128.0156 52.4313,128.0156 Q53.0563,128.0156 53.65,127.75 Q54.2438,127.4688 54.8688,126.8906 L54.8688,129.6094 Z " fill="#000000"/><text fill="#000000" font-family="sans-serif" font-size="14" lengthAdjust="spacing" textLength="112" x="95.1" y="122.9951">TypeName.Array</text><text fill="#000000" font-family="sans-serif" font-size="10" lengthAdjust="spacing" textLength="158" x="72.1" y="135.5791">nl.talsmasoftware.umldoclet.uml</text><line style="stroke:#A80036;stroke-width:1.5;" x1="10" x2="260" y1="142.9375" y2="142.9375"/><ellipse cx="20" cy="153.9375" fill="#84BE84" rx="3" ry="3" style="stroke:#038048;stroke-width:1.0;"/><text fill="#000000" font-family="sans-serif" font-size="11" lengthAdjust="spacing" text-decoration="underline" textLength="117" x="29" y="157.1479">of(TypeName): Array</text><polygon fill="#FFFF44" points="20,161.7422,24,165.7422,20,169.7422,16,165.7422" style="stroke:#B38D22;stroke-width:1.0;"/><text fill="#000000" font-family="sans-serif" font-size="11" lengthAdjust="spacing" textLength="226" x="29" y="169.9526">toUml(TypeDisplay, Namespace): String</text></a><!--MD5=[c1b0d2701b85ef8f25a150b03516ef8f]
class nl.talsmasoftware.umldoclet.uml.TypeName--><a href="TypeName.html" target="_top" title="TypeName.html" xlink:actuate="onRequest" xlink:href="TypeName.html" xlink:show="new" xlink:title="TypeName.html" xlink:type="simple"><rect codeLine="11" fill="#FEFECE" filter="url(#f147muke933wkh)" height="37.9375" id="nl.talsmasoftware.umldoclet.uml.TypeName" style="stroke:#A80036;stroke-width:1.5;" width="190" x="40" y="7"/><ellipse cx="55" cy="25.9688" fill="#ADD1B2" rx="11" ry="11" style="stroke:#A80036;stroke-width:1.0;"/><path d="M57.9688,31.6094 Q57.3906,31.9063 56.75,32.0469 Q56.1094,32.2031 55.4063,32.2031 Q52.9063,32.2031 51.5781,30.5625 Q50.2656,28.9063 50.2656,25.7813 Q50.2656,22.6563 51.5781,21 Q52.9063,19.3438 55.4063,19.3438 Q56.1094,19.3438 56.75,19.5 Q57.4063,19.6563 57.9688,19.9531 L57.9688,22.6719 Q57.3438,22.0938 56.75,21.8281 Q56.1563,21.5469 55.5313,21.5469 Q54.1875,21.5469 53.5,22.625 Q52.8125,23.6875 52.8125,25.7813 Q52.8125,27.875 53.5,28.9531 Q54.1875,30.0156 55.5313,30.0156 Q56.1563,30.0156 56.75,29.75 Q57.3438,29.4688 57.9688,28.8906 L57.9688,31.6094 Z " fill="#000000"/><text fill="#000000" font-family="sans-serif" font-size="14" lengthAdjust="spacing" textLength="74" x="111" y="24.9951">TypeName</text><text fill="#000000" font-family="sans-serif" font-size="10" lengthAdjust="spacing" textLength="158" x="69" y="37.5791">nl.talsmasoftware.umldoclet.uml</text></a><!--MD5=[f3ff21e286e7389bb38aafdfdc8a674f]
reverse link nl.talsmasoftware.umldoclet.uml.TypeName to nl.talsmasoftware.umldoclet.uml.TypeName.Array--><path codeLine="13" d="M122.86,65.3 C121.98,78 122.05,92.08 123.07,104.56 " fill="none" id="nl.talsmasoftware.umldoclet.uml.TypeName-backto-nl.talsmasoftware.umldoclet.uml.TypeName.Array" style="stroke:#A80036;stroke-width:1.0;"/><polygon fill="none" points="115.95,64.15,125.34,45.16,129.84,65.86,115.95,64.15" style="stroke:#A80036;stroke-width:1.0;"/><!--MD5=[f3ff21e286e7389bb38aafdfdc8a674f]
reverse link nl.talsmasoftware.umldoclet.uml.TypeName to nl.talsmasoftware.umldoclet.uml.TypeName.Array--><path codeLine="14" d="M147.42,60.21 C148.79,74.15 148.86,90.38 147.63,104.56 " fill="none" id="nl.talsmasoftware.umldoclet.uml.TypeName-backto-nl.talsmasoftware.umldoclet.uml.TypeName.Array-1" style="stroke:#A80036;stroke-width:1.0;"/><ellipse cx="146.388" cy="53.0757" fill="#FFFFFF" rx="8" ry="8" style="stroke:#A80036;stroke-width:1.0;"/><line style="stroke:#A80036;stroke-width:1.0;" x1="147.5461" x2="145.23" y1="60.9915" y2="45.16"/><line style="stroke:#A80036;stroke-width:1.0;" x1="138.4723" x2="154.3038" y1="54.2338" y2="51.9177"/><text fill="#888888" font-family="sans-serif" font-size="10" lengthAdjust="spacing" textLength="186" x="38" y="198.8291">UMLDoclet 2.0.14, PlantUML 1.2021.9</text><!--MD5=[a313b879d2d993243230c8215c7fd2ce]
@startuml
    set namespaceSeparator none
    hide empty fields
    hide empty methods

    class "<size:14>TypeName.Array\n<size:10>nl.talsmasoftware.umldoclet.uml" as nl.talsmasoftware.umldoclet.uml.TypeName.Array [[TypeName.Array.html]] {
        {static} +of(TypeName): Array
        #toUml(TypeDisplay, Namespace): String
    }

    class "<size:14>TypeName\n<size:10>nl.talsmasoftware.umldoclet.uml" as nl.talsmasoftware.umldoclet.uml.TypeName [[TypeName.html]]
    class "<size:14>TypeName\n<size:10>nl.talsmasoftware.umldoclet.uml" as nl.talsmasoftware.umldoclet.uml.TypeName [[TypeName.html]]

    nl.talsmasoftware.umldoclet.uml.TypeName <|- - nl.talsmasoftware.umldoclet.uml.TypeName.Array
    nl.talsmasoftware.umldoclet.uml.TypeName +- - nl.talsmasoftware.umldoclet.uml.TypeName.Array

    center footer UMLDoclet 2.0.14, PlantUML 1.2021.9
@enduml

PlantUML version 1.2021.9(Sun Jul 25 10:13:56 UTC 2021)
(APACHE source distribution)
Java Runtime: OpenJDK Runtime Environment
JVM: OpenJDK 64-Bit Server VM
Default Encoding: UTF-8
Language: en
Country: null
--></g></svg>