<?xml version="1.0" encoding="UTF-8" standalone="no"?><svg xmlns="http://www.w3.org/2000/svg" xmlns:xlink="http://www.w3.org/1999/xlink" contentScriptType="application/ecmascript" contentStyleType="text/css" height="253px" preserveAspectRatio="none" style="width:436px;height:253px;background:#FFFFFF;" version="1.1" viewBox="0 0 436 253" width="436px" zoomAndPan="magnify"><defs><filter height="300%" id="f1ubwivsczam1b" width="300%" x="-1" y="-1"><feGaussianBlur result="blurOut" stdDeviation="2.0"/><feColorMatrix in="blurOut" result="blurOut2" type="matrix" values="0 0 0 0 0 0 0 0 0 0 0 0 0 0 0 0 0 0 .4 0"/><feOffset dx="4.0" dy="4.0" in="blurOut2" result="blurOut3"/><feBlend in="SourceGraphic" in2="blurOut3" mode="normal"/></filter></defs><g><!--MD5=[c1b0d2701b85ef8f25a150b03516ef8f]
class nl.talsmasoftware.umldoclet.uml.TypeName--><a href="TypeName.html" target="_top" title="TypeName.html" xlink:actuate="onRequest" xlink:href="TypeName.html" xlink:show="new" xlink:title="TypeName.html" xlink:type="simple"><rect codeLine="5" fill="#FEFECE" filter="url(#f1ubwivsczam1b)" height="117.9609" id="nl.talsmasoftware.umldoclet.uml.TypeName" style="stroke:#A80036;stroke-width:1.5;" width="252" x="88" y="7"/><ellipse cx="130.9" cy="25.9688" fill="#ADD1B2" rx="11" ry="11" style="stroke:#A80036;stroke-width:1.0;"/><path d="M133.8688,31.6094 Q133.2906,31.9063 132.65,32.0469 Q132.0094,32.2031 131.3063,32.2031 Q128.8063,32.2031 127.4781,30.5625 Q126.1656,28.9063 126.1656,25.7813 Q126.1656,22.6563 127.4781,21 Q128.8063,19.3438 131.3063,19.3438 Q132.0094,19.3438 132.65,19.5 Q133.3063,19.6563 133.8688,19.9531 L133.8688,22.6719 Q133.2438,22.0938 132.65,21.8281 Q132.0563,21.5469 131.4313,21.5469 Q130.0875,21.5469 129.4,22.625 Q128.7125,23.6875 128.7125,25.7813 Q128.7125,27.875 129.4,28.9531 Q130.0875,30.0156 131.4313,30.0156 Q132.0563,30.0156 132.65,29.75 Q133.2438,29.4688 133.8688,28.8906 L133.8688,31.6094 Z " fill="#000000"/><text fill="#000000" font-family="sans-serif" font-size="14" lengthAdjust="spacing" textLength="74" x="193.1" y="24.9951">TypeName</text><text fill="#000000" font-family="sans-serif" font-size="10" lengthAdjust="spacing" textLength="158" x="151.1" y="37.5791">nl.talsmasoftware.umldoclet.uml</text><line style="stroke:#A80036;stroke-width:1.5;" x1="89" x2="339" y1="44.9375" y2="44.9375"/><ellipse cx="99" cy="55.9375" rx="3" ry="3" style="stroke:#038048;stroke-width:1.0;fill:none;"/><text fill="#000000" font-family="sans-serif" font-size="11" lengthAdjust="spacing" textLength="80" x="108" y="59.1479">simple: String</text><ellipse cx="99" cy="68.7422" rx="3" ry="3" style="stroke:#038048;stroke-width:1.0;fill:none;"/><text fill="#000000" font-family="sans-serif" font-size="11" lengthAdjust="spacing" textLength="90" x="108" y="71.9526">qualified: String</text><line style="stroke:#A80036;stroke-width:1.5;" x1="89" x2="339" y1="78.5469" y2="78.5469"/><ellipse cx="99" cy="89.5469" fill="#84BE84" rx="3" ry="3" style="stroke:#038048;stroke-width:1.0;"/><text fill="#000000" font-family="sans-serif" font-size="11" lengthAdjust="spacing" textLength="224" x="108" y="92.7573">TypeName(String, String, TypeName...)</text><ellipse cx="99" cy="102.3516" fill="#84BE84" rx="3" ry="3" style="stroke:#038048;stroke-width:1.0;"/><text fill="#000000" font-family="sans-serif" font-size="11" lengthAdjust="spacing" textLength="153" x="108" y="105.562">getGenerics(): TypeName[]</text><polygon fill="#FFFF44" points="99,110.1563,103,114.1563,99,118.1563,95,114.1563" style="stroke:#B38D22;stroke-width:1.0;"/><text fill="#000000" font-family="sans-serif" font-size="11" lengthAdjust="spacing" textLength="226" x="108" y="118.3667">toUml(TypeDisplay, Namespace): String</text></a><!--MD5=[c88785e2d1bea86802e0d0d2ced7c8bb]
class nl.talsmasoftware.umldoclet.uml.TypeName.Array--><a href="TypeName.Array.html" target="_top" title="TypeName.Array.html" xlink:actuate="onRequest" xlink:href="TypeName.Array.html" xlink:show="new" xlink:title="TypeName.Array.html" xlink:type="simple"><rect codeLine="12" fill="#FEFECE" filter="url(#f1ubwivsczam1b)" height="37.9375" id="nl.talsmasoftware.umldoclet.uml.TypeName.Array" style="stroke:#A80036;stroke-width:1.5;" width="190" x="7" y="185"/><ellipse cx="22" cy="203.9688" fill="#ADD1B2" rx="11" ry="11" style="stroke:#A80036;stroke-width:1.0;"/><path d="M24.9688,209.6094 Q24.3906,209.9063 23.75,210.0469 Q23.1094,210.2031 22.4063,210.2031 Q19.9063,210.2031 18.5781,208.5625 Q17.2656,206.9063 17.2656,203.7813 Q17.2656,200.6563 18.5781,199 Q19.9063,197.3438 22.4063,197.3438 Q23.1094,197.3438 23.75,197.5 Q24.4063,197.6563 24.9688,197.9531 L24.9688,200.6719 Q24.3438,200.0938 23.75,199.8281 Q23.1563,199.5469 22.5313,199.5469 Q21.1875,199.5469 20.5,200.625 Q19.8125,201.6875 19.8125,203.7813 Q19.8125,205.875 20.5,206.9531 Q21.1875,208.0156 22.5313,208.0156 Q23.1563,208.0156 23.75,207.75 Q24.3438,207.4688 24.9688,206.8906 L24.9688,209.6094 Z " fill="#000000"/><text fill="#000000" font-family="sans-serif" font-size="14" lengthAdjust="spacing" textLength="112" x="59" y="202.9951">TypeName.Array</text><text fill="#000000" font-family="sans-serif" font-size="10" lengthAdjust="spacing" textLength="158" x="36" y="215.5791">nl.talsmasoftware.umldoclet.uml</text></a><!--MD5=[236e32b45a2510913a28f3300858de10]
class nl.talsmasoftware.umldoclet.uml.TypeName.Variable--><a href="TypeName.Variable.html" target="_top" title="TypeName.Variable.html" xlink:actuate="onRequest" xlink:href="TypeName.Variable.html" xlink:show="new" xlink:title="TypeName.Variable.html" xlink:type="simple"><rect codeLine="13" fill="#FEFECE" filter="url(#f1ubwivsczam1b)" height="37.9375" id="nl.talsmasoftware.umldoclet.uml.TypeName.Variable" style="stroke:#A80036;stroke-width:1.5;" width="190" x="232" y="185"/><ellipse cx="247" cy="203.9688" fill="#ADD1B2" rx="11" ry="11" style="stroke:#A80036;stroke-width:1.0;"/><path d="M249.9688,209.6094 Q249.3906,209.9063 248.75,210.0469 Q248.1094,210.2031 247.4063,210.2031 Q244.9063,210.2031 243.5781,208.5625 Q242.2656,206.9063 242.2656,203.7813 Q242.2656,200.6563 243.5781,199 Q244.9063,197.3438 247.4063,197.3438 Q248.1094,197.3438 248.75,197.5 Q249.4063,197.6563 249.9688,197.9531 L249.9688,200.6719 Q249.3438,200.0938 248.75,199.8281 Q248.1563,199.5469 247.5313,199.5469 Q246.1875,199.5469 245.5,200.625 Q244.8125,201.6875 244.8125,203.7813 Q244.8125,205.875 245.5,206.9531 Q246.1875,208.0156 247.5313,208.0156 Q248.1563,208.0156 248.75,207.75 Q249.3438,207.4688 249.9688,206.8906 L249.9688,209.6094 Z " fill="#000000"/><text fill="#000000" font-family="sans-serif" font-size="14" lengthAdjust="spacing" textLength="132" x="274" y="202.9951">TypeName.Variable</text><text fill="#000000" font-family="sans-serif" font-size="10" lengthAdjust="spacing" textLength="158" x="261" y="215.5791">nl.talsmasoftware.umldoclet.uml</text></a><!--MD5=[f3ff21e286e7389bb38aafdfdc8a674f]
reverse link nl.talsmasoftware.umldoclet.uml.TypeName to nl.talsmasoftware.umldoclet.uml.TypeName.Array--><path codeLine="15" d="M156.56,136.75 C141.89,154.56 127.35,172.21 116.98,184.81 " fill="none" id="nl.talsmasoftware.umldoclet.uml.TypeName-backto-nl.talsmasoftware.umldoclet.uml.TypeName.Array" style="stroke:#A80036;stroke-width:1.0;"/><ellipse cx="161.0901" cy="131.2419" fill="#FFFFFF" rx="8" ry="8" style="stroke:#A80036;stroke-width:1.0;"/><line style="stroke:#A80036;stroke-width:1.0;" x1="156.0001" x2="166.18" y1="137.4138" y2="125.07"/><line style="stroke:#A80036;stroke-width:1.0;" x1="154.9181" x2="167.262" y1="126.152" y2="136.3319"/><!--MD5=[3dda79b99849a515f9859d2e38257684]
reverse link nl.talsmasoftware.umldoclet.uml.TypeName to nl.talsmasoftware.umldoclet.uml.TypeName.Variable--><path codeLine="16" d="M271.95,136.75 C286.75,154.56 301.42,172.21 311.89,184.81 " fill="none" id="nl.talsmasoftware.umldoclet.uml.TypeName-backto-nl.talsmasoftware.umldoclet.uml.TypeName.Variable" style="stroke:#A80036;stroke-width:1.0;"/><ellipse cx="267.3647" cy="131.2214" fill="#FFFFFF" rx="8" ry="8" style="stroke:#A80036;stroke-width:1.0;"/><line style="stroke:#A80036;stroke-width:1.0;" x1="272.4794" x2="262.25" y1="137.3728" y2="125.07"/><line style="stroke:#A80036;stroke-width:1.0;" x1="261.2133" x2="273.5161" y1="136.3361" y2="126.1067"/><text fill="#888888" font-family="sans-serif" font-size="10" lengthAdjust="spacing" textLength="186" x="118.5" y="245.2197">UMLDoclet 2.0.14, PlantUML 1.2021.9</text><!--MD5=[0e4e9c673fb0bb3ee29b2e9ac35534a6]
@startuml
    set namespaceSeparator none
    hide empty fields
    hide empty methods

    class "<size:14>TypeName\n<size:10>nl.talsmasoftware.umldoclet.uml" as nl.talsmasoftware.umldoclet.uml.TypeName [[TypeName.html]] {
        +simple: String
        +qualified: String
        +TypeName(String, String, TypeName...)
        +getGenerics(): TypeName[]
        #toUml(TypeDisplay, Namespace): String
    }
    class "<size:14>TypeName.Array\n<size:10>nl.talsmasoftware.umldoclet.uml" as nl.talsmasoftware.umldoclet.uml.TypeName.Array [[TypeName.Array.html]]
    class "<size:14>TypeName.Variable\n<size:10>nl.talsmasoftware.umldoclet.uml" as nl.talsmasoftware.umldoclet.uml.TypeName.Variable [[TypeName.Variable.html]]

    nl.talsmasoftware.umldoclet.uml.TypeName +- - nl.talsmasoftware.umldoclet.uml.TypeName.Array
    nl.talsmasoftware.umldoclet.uml.TypeName +- - nl.talsmasoftware.umldoclet.uml.TypeName.Variable

    center footer UMLDoclet 2.0.14, PlantUML 1.2021.9
@enduml

PlantUML version 1.2021.9(Sun Jul 25 10:13:56 UTC 2021)
(APACHE source distribution)
Java Runtime: OpenJDK Runtime Environment
JVM: OpenJDK 64-Bit Server VM
Default Encoding: UTF-8
Language: en
Country: null
--></g></svg>