<?xml version="1.0" encoding="UTF-8" standalone="no"?><svg xmlns="http://www.w3.org/2000/svg" xmlns:xlink="http://www.w3.org/1999/xlink" contentScriptType="application/ecmascript" contentStyleType="text/css" height="220px" preserveAspectRatio="none" style="width:294px;height:220px;background:#FFFFFF;" version="1.1" viewBox="0 0 294 220" width="294px" zoomAndPan="magnify"><defs><filter height="300%" id="f197gkgktqne7y" width="300%" x="-1" y="-1"><feGaussianBlur result="blurOut" stdDeviation="2.0"/><feColorMatrix in="blurOut" result="blurOut2" type="matrix" values="0 0 0 0 0 0 0 0 0 0 0 0 0 0 0 0 0 0 .4 0"/><feOffset dx="4.0" dy="4.0" in="blurOut2" result="blurOut3"/><feBlend in="SourceGraphic" in2="blurOut3" mode="normal"/></filter></defs><g><!--MD5=[236e32b45a2510913a28f3300858de10]
class nl.talsmasoftware.umldoclet.uml.TypeName.Variable--><a href="TypeName.Variable.html" target="_top" title="TypeName.Variable.html" xlink:actuate="onRequest" xlink:href="TypeName.Variable.html" xlink:show="new" xlink:title="TypeName.Variable.html" xlink:type="simple"><rect codeLine="5" fill="#FEFECE" filter="url(#f197gkgktqne7y)" height="84.3516" id="nl.talsmasoftware.umldoclet.uml.TypeName.Variable" style="stroke:#A80036;stroke-width:1.5;" width="271" x="9" y="105"/><ellipse cx="61.25" cy="123.9688" fill="#ADD1B2" rx="11" ry="11" style="stroke:#A80036;stroke-width:1.0;"/><path d="M64.2188,129.6094 Q63.6406,129.9063 63,130.0469 Q62.3594,130.2031 61.6563,130.2031 Q59.1563,130.2031 57.8281,128.5625 Q56.5156,126.9063 56.5156,123.7813 Q56.5156,120.6563 57.8281,119 Q59.1563,117.3438 61.6563,117.3438 Q62.3594,117.3438 63,117.5 Q63.6563,117.6563 64.2188,117.9531 L64.2188,120.6719 Q63.5938,120.0938 63,119.8281 Q62.4063,119.5469 61.7813,119.5469 Q60.4375,119.5469 59.75,120.625 Q59.0625,121.6875 59.0625,123.7813 Q59.0625,125.875 59.75,126.9531 Q60.4375,128.0156 61.7813,128.0156 Q62.4063,128.0156 63,127.75 Q63.5938,127.4688 64.2188,126.8906 L64.2188,129.6094 Z " fill="#000000"/><text fill="#000000" font-family="sans-serif" font-size="14" lengthAdjust="spacing" textLength="132" x="94.75" y="122.9951">TypeName.Variable</text><text fill="#000000" font-family="sans-serif" font-size="10" lengthAdjust="spacing" textLength="158" x="81.75" y="135.5791">nl.talsmasoftware.umldoclet.uml</text><line style="stroke:#A80036;stroke-width:1.5;" x1="10" x2="279" y1="142.9375" y2="142.9375"/><ellipse cx="20" cy="153.9375" fill="#84BE84" rx="3" ry="3" style="stroke:#038048;stroke-width:1.0;"/><text fill="#000000" font-family="sans-serif" font-size="11" lengthAdjust="spacing" text-decoration="underline" textLength="245" x="29" y="157.1479">extendsBound(String, TypeName): Variable</text><ellipse cx="20" cy="166.7422" fill="#84BE84" rx="3" ry="3" style="stroke:#038048;stroke-width:1.0;"/><text fill="#000000" font-family="sans-serif" font-size="11" lengthAdjust="spacing" text-decoration="underline" textLength="233" x="29" y="169.9526">superBound(String, TypeName): Variable</text><polygon fill="#FFFF44" points="20,174.5469,24,178.5469,20,182.5469,16,178.5469" style="stroke:#B38D22;stroke-width:1.0;"/><text fill="#000000" font-family="sans-serif" font-size="11" lengthAdjust="spacing" textLength="226" x="29" y="182.7573">toUml(TypeDisplay, Namespace): String</text></a><!--MD5=[c1b0d2701b85ef8f25a150b03516ef8f]
class nl.talsmasoftware.umldoclet.uml.TypeName--><a href="TypeName.html" target="_top" title="TypeName.html" xlink:actuate="onRequest" xlink:href="TypeName.html" xlink:show="new" xlink:title="TypeName.html" xlink:type="simple"><rect codeLine="12" fill="#FEFECE" filter="url(#f197gkgktqne7y)" height="37.9375" id="nl.talsmasoftware.umldoclet.uml.TypeName" style="stroke:#A80036;stroke-width:1.5;" width="190" x="49.5" y="7"/><ellipse cx="64.5" cy="25.9688" fill="#ADD1B2" rx="11" ry="11" style="stroke:#A80036;stroke-width:1.0;"/><path d="M67.4688,31.6094 Q66.8906,31.9063 66.25,32.0469 Q65.6094,32.2031 64.9063,32.2031 Q62.4063,32.2031 61.0781,30.5625 Q59.7656,28.9063 59.7656,25.7813 Q59.7656,22.6563 61.0781,21 Q62.4063,19.3438 64.9063,19.3438 Q65.6094,19.3438 66.25,19.5 Q66.9063,19.6563 67.4688,19.9531 L67.4688,22.6719 Q66.8438,22.0938 66.25,21.8281 Q65.6563,21.5469 65.0313,21.5469 Q63.6875,21.5469 63,22.625 Q62.3125,23.6875 62.3125,25.7813 Q62.3125,27.875 63,28.9531 Q63.6875,30.0156 65.0313,30.0156 Q65.6563,30.0156 66.25,29.75 Q66.8438,29.4688 67.4688,28.8906 L67.4688,31.6094 Z " fill="#000000"/><text fill="#000000" font-family="sans-serif" font-size="14" lengthAdjust="spacing" textLength="74" x="120.5" y="24.9951">TypeName</text><text fill="#000000" font-family="sans-serif" font-size="10" lengthAdjust="spacing" textLength="158" x="78.5" y="37.5791">nl.talsmasoftware.umldoclet.uml</text></a><!--MD5=[3dda79b99849a515f9859d2e38257684]
reverse link nl.talsmasoftware.umldoclet.uml.TypeName to nl.talsmasoftware.umldoclet.uml.TypeName.Variable--><path codeLine="14" d="M132.52,65.07 C131.57,77.73 131.5,91.89 132.3,104.78 " fill="none" id="nl.talsmasoftware.umldoclet.uml.TypeName-backto-nl.talsmasoftware.umldoclet.uml.TypeName.Variable" style="stroke:#A80036;stroke-width:1.0;"/><polygon fill="none" points="125.59,64.04,135.04,45.07,139.48,65.79,125.59,64.04" style="stroke:#A80036;stroke-width:1.0;"/><!--MD5=[3dda79b99849a515f9859d2e38257684]
reverse link nl.talsmasoftware.umldoclet.uml.TypeName to nl.talsmasoftware.umldoclet.uml.TypeName.Variable--><path codeLine="15" d="M156.73,60 C158.15,73.86 158.38,90.14 157.42,104.78 " fill="none" id="nl.talsmasoftware.umldoclet.uml.TypeName-backto-nl.talsmasoftware.umldoclet.uml.TypeName.Variable-1" style="stroke:#A80036;stroke-width:1.0;"/><ellipse cx="155.694" cy="52.9834" fill="#FFFFFF" rx="8" ry="8" style="stroke:#A80036;stroke-width:1.0;"/><line style="stroke:#A80036;stroke-width:1.0;" x1="156.8681" x2="154.52" y1="60.8968" y2="45.07"/><line style="stroke:#A80036;stroke-width:1.0;" x1="147.7807" x2="163.6074" y1="54.1574" y2="51.8093"/><text fill="#888888" font-family="sans-serif" font-size="10" lengthAdjust="spacing" textLength="186" x="47.5" y="211.6338">UMLDoclet 2.0.14, PlantUML 1.2021.9</text><!--MD5=[ea49e03ed3c0ee0b01ae4d6c8950b578]
@startuml
    set namespaceSeparator none
    hide empty fields
    hide empty methods

    class "<size:14>TypeName.Variable\n<size:10>nl.talsmasoftware.umldoclet.uml" as nl.talsmasoftware.umldoclet.uml.TypeName.Variable [[TypeName.Variable.html]] {
        {static} +extendsBound(String, TypeName): Variable
        {static} +superBound(String, TypeName): Variable
        #toUml(TypeDisplay, Namespace): String
    }

    class "<size:14>TypeName\n<size:10>nl.talsmasoftware.umldoclet.uml" as nl.talsmasoftware.umldoclet.uml.TypeName [[TypeName.html]]
    class "<size:14>TypeName\n<size:10>nl.talsmasoftware.umldoclet.uml" as nl.talsmasoftware.umldoclet.uml.TypeName [[TypeName.html]]

    nl.talsmasoftware.umldoclet.uml.TypeName <|- - nl.talsmasoftware.umldoclet.uml.TypeName.Variable
    nl.talsmasoftware.umldoclet.uml.TypeName +- - nl.talsmasoftware.umldoclet.uml.TypeName.Variable

    center footer UMLDoclet 2.0.14, PlantUML 1.2021.9
@enduml

PlantUML version 1.2021.9(Sun Jul 25 10:13:56 UTC 2021)
(APACHE source distribution)
Java Runtime: OpenJDK Runtime Environment
JVM: OpenJDK 64-Bit Server VM
Default Encoding: UTF-8
Language: en
Country: null
--></g></svg>