<?xml version="1.0" encoding="UTF-8" standalone="no"?><svg xmlns="http://www.w3.org/2000/svg" xmlns:xlink="http://www.w3.org/1999/xlink" contentScriptType="application/ecmascript" contentStyleType="text/css" height="415px" preserveAspectRatio="none" style="width:518px;height:415px;background:#FFFFFF;" version="1.1" viewBox="0 0 518 415" width="518px" zoomAndPan="magnify"><defs><filter height="300%" id="fwc6ecs5hzp1z" width="300%" x="-1" y="-1"><feGaussianBlur result="blurOut" stdDeviation="2.0"/><feColorMatrix in="blurOut" result="blurOut2" type="matrix" values="0 0 0 0 0 0 0 0 0 0 0 0 0 0 0 0 0 0 .4 0"/><feOffset dx="4.0" dy="4.0" in="blurOut2" result="blurOut3"/><feBlend in="SourceGraphic" in2="blurOut3" mode="normal"/></filter></defs><g><!--MD5=[78698f0f77a77cf556cb49101f1b89ea]
class nl.talsmasoftware.umldoclet.uml.Type--><a href="Type.html" target="_top" title="Type.html" xlink:actuate="onRequest" xlink:href="Type.html" xlink:show="new" xlink:title="Type.html" xlink:type="simple"><rect codeLine="5" fill="#FEFECE" filter="url(#fwc6ecs5hzp1z)" height="161.1797" id="nl.talsmasoftware.umldoclet.uml.Type" style="stroke:#A80036;stroke-width:1.5;" width="497" x="7" y="126"/><ellipse cx="172.25" cy="144.9688" fill="#ADD1B2" rx="11" ry="11" style="stroke:#A80036;stroke-width:1.0;"/><path d="M175.2188,150.6094 Q174.6406,150.9063 174,151.0469 Q173.3594,151.2031 172.6563,151.2031 Q170.1563,151.2031 168.8281,149.5625 Q167.5156,147.9063 167.5156,144.7813 Q167.5156,141.6563 168.8281,140 Q170.1563,138.3438 172.6563,138.3438 Q173.3594,138.3438 174,138.5 Q174.6563,138.6563 175.2188,138.9531 L175.2188,141.6719 Q174.5938,141.0938 174,140.8281 Q173.4063,140.5469 172.7813,140.5469 Q171.4375,140.5469 170.75,141.625 Q170.0625,142.6875 170.0625,144.7813 Q170.0625,146.875 170.75,147.9531 Q171.4375,149.0156 172.7813,149.0156 Q173.4063,149.0156 174,148.75 Q174.5938,148.4688 175.2188,147.8906 L175.2188,150.6094 Z " fill="#000000"/><text fill="#000000" font-family="sans-serif" font-size="14" lengthAdjust="spacing" textLength="34" x="254.75" y="143.9951">Type</text><text fill="#000000" font-family="sans-serif" font-size="10" lengthAdjust="spacing" textLength="158" x="192.75" y="156.5791">nl.talsmasoftware.umldoclet.uml</text><line style="stroke:#A80036;stroke-width:1.5;" x1="8" x2="503" y1="163.9375" y2="163.9375"/><ellipse cx="18" cy="174.9375" fill="#84BE84" rx="3" ry="3" style="stroke:#038048;stroke-width:1.0;"/><text fill="#000000" font-family="sans-serif" font-size="11" lengthAdjust="spacing" textLength="254" x="27" y="178.1479">Type(Namespace, Classification, TypeName)</text><ellipse cx="18" cy="187.7422" fill="#84BE84" rx="3" ry="3" style="stroke:#038048;stroke-width:1.0;"/><text fill="#000000" font-family="sans-serif" font-size="11" lengthAdjust="spacing" textLength="127" x="27" y="190.9526">getName(): TypeName</text><ellipse cx="18" cy="200.5469" fill="#84BE84" rx="3" ry="3" style="stroke:#038048;stroke-width:1.0;"/><text fill="#000000" font-family="sans-serif" font-size="11" lengthAdjust="spacing" textLength="262" x="27" y="203.7573">updateGenericTypeVariables(TypeName): void</text><ellipse cx="18" cy="213.3516" fill="#84BE84" rx="3" ry="3" style="stroke:#038048;stroke-width:1.0;"/><text fill="#000000" font-family="sans-serif" font-size="11" lengthAdjust="spacing" textLength="107" x="27" y="216.562">deprecated(): Type</text><ellipse cx="18" cy="226.1563" fill="#84BE84" rx="3" ry="3" style="stroke:#038048;stroke-width:1.0;"/><text fill="#000000" font-family="sans-serif" font-size="11" lengthAdjust="spacing" textLength="221" x="27" y="229.3667">setIncludePackagename(boolean): void</text><ellipse cx="18" cy="238.9609" fill="#84BE84" rx="3" ry="3" style="stroke:#038048;stroke-width:1.0;"/><text fill="#000000" font-family="sans-serif" font-size="11" lengthAdjust="spacing" textLength="147" x="27" y="242.1714">getPackagename(): String</text><ellipse cx="18" cy="251.7656" fill="#84BE84" rx="3" ry="3" style="stroke:#038048;stroke-width:1.0;"/><text fill="#000000" font-family="sans-serif" font-size="11" lengthAdjust="spacing" textLength="183" x="27" y="254.9761">getClassfication(): Classification</text><ellipse cx="18" cy="264.5703" fill="#84BE84" rx="3" ry="3" style="stroke:#038048;stroke-width:1.0;"/><text fill="#000000" font-family="sans-serif" font-size="11" lengthAdjust="spacing" textLength="424" x="27" y="267.7808">writeTo(IPW extends IndentingPrintWriter): IPW extends IndentingPrintWriter</text><ellipse cx="18" cy="277.375" fill="#84BE84" rx="3" ry="3" style="stroke:#038048;stroke-width:1.0;"/><text fill="#000000" font-family="sans-serif" font-size="11" lengthAdjust="spacing" textLength="471" x="27" y="280.5854">writeChildrenTo(IPW extends IndentingPrintWriter): IPW extends IndentingPrintWriter</text></a><!--MD5=[b235ff228ee36acb702be9ef47bc42c2]
class nl.talsmasoftware.umldoclet.uml.UMLNode--><a href="UMLNode.html" target="_top" title="UMLNode.html" xlink:actuate="onRequest" xlink:href="UMLNode.html" xlink:show="new" xlink:title="UMLNode.html" xlink:type="simple"><rect codeLine="17" fill="#FEFECE" filter="url(#fwc6ecs5hzp1z)" height="58.7422" id="nl.talsmasoftware.umldoclet.uml.UMLNode" style="stroke:#A80036;stroke-width:1.5;" width="458" x="26.5" y="7"/><ellipse cx="169.25" cy="25.9688" fill="#A9DCDF" rx="11" ry="11" style="stroke:#A80036;stroke-width:1.0;"/><path d="M169.3594,21.3125 L168.2031,26.3906 L170.5313,26.3906 L169.3594,21.3125 Z M167.875,19.0781 L170.8594,19.0781 L174.2188,31.4688 L171.7656,31.4688 L171,28.4063 L167.7188,28.4063 L166.9688,31.4688 L164.5313,31.4688 L167.875,19.0781 Z " fill="#000000"/><text fill="#000000" font-family="sans-serif" font-size="14" font-style="italic" lengthAdjust="spacing" textLength="68" x="237.75" y="24.9951">UMLNode</text><text fill="#000000" font-family="sans-serif" font-size="10" font-style="italic" lengthAdjust="spacing" textLength="164" x="189.75" y="37.5791">nl.talsmasoftware.umldoclet.uml</text><line style="stroke:#A80036;stroke-width:1.5;" x1="27.5" x2="483.5" y1="44.9375" y2="44.9375"/><polygon fill="#FFFF44" points="37.5,50.9375,41.5,54.9375,37.5,58.9375,33.5,54.9375" style="stroke:#B38D22;stroke-width:1.0;"/><text fill="#000000" font-family="sans-serif" font-size="11" font-style="italic" lengthAdjust="spacing" textLength="432" x="46.5" y="59.1479">writeTo(IPW extends IndentingPrintWriter): IPW extends IndentingPrintWriter</text></a><!--MD5=[6604f4a43bd3f61c95c6220cb894bb63]
class nl.talsmasoftware.umldoclet.uml.Type.Classification--><a href="Type.Classification.html" target="_top" title="Type.Classification.html" xlink:actuate="onRequest" xlink:href="Type.Classification.html" xlink:show="new" xlink:title="Type.Classification.html" xlink:type="simple"><rect codeLine="20" fill="#FEFECE" filter="url(#fwc6ecs5hzp1z)" height="37.9375" id="nl.talsmasoftware.umldoclet.uml.Type.Classification" style="stroke:#A80036;stroke-width:1.5;" width="190" x="160.5" y="347"/><ellipse cx="175.5" cy="365.9688" fill="#EB937F" rx="11" ry="11" style="stroke:#A80036;stroke-width:1.0;"/><path d="M179.6094,371.9688 L171.8906,371.9688 L171.8906,359.5781 L179.6094,359.5781 L179.6094,361.7344 L174.3438,361.7344 L174.3438,364.4063 L179.1094,364.4063 L179.1094,366.5625 L174.3438,366.5625 L174.3438,369.8125 L179.6094,369.8125 L179.6094,371.9688 Z " fill="#000000"/><text fill="#000000" font-family="sans-serif" font-size="14" lengthAdjust="spacing" textLength="127" x="205" y="364.9951">Type.Classification</text><text fill="#000000" font-family="sans-serif" font-size="10" lengthAdjust="spacing" textLength="158" x="189.5" y="377.5791">nl.talsmasoftware.umldoclet.uml</text></a><!--MD5=[788f879b4c07e4bb381003dde02002e9]
reverse link nl.talsmasoftware.umldoclet.uml.UMLNode to nl.talsmasoftware.umldoclet.uml.Type--><path codeLine="22" d="M255.5,86.81 C255.5,99.04 255.5,112.45 255.5,125.73 " fill="none" id="nl.talsmasoftware.umldoclet.uml.UMLNode-backto-nl.talsmasoftware.umldoclet.uml.Type" style="stroke:#A80036;stroke-width:1.0;"/><polygon fill="none" points="248.5,86.38,255.5,66.38,262.5,86.38,248.5,86.38" style="stroke:#A80036;stroke-width:1.0;"/><!--MD5=[32f64aab0e381624c1d32f294dac1e80]
reverse link nl.talsmasoftware.umldoclet.uml.Type to nl.talsmasoftware.umldoclet.uml.Type.Classification--><path codeLine="23" d="M255.5,302.32 C255.5,319.34 255.5,335.32 255.5,346.89 " fill="none" id="nl.talsmasoftware.umldoclet.uml.Type-backto-nl.talsmasoftware.umldoclet.uml.Type.Classification" style="stroke:#A80036;stroke-width:1.0;"/><ellipse cx="255.5" cy="295.17" fill="#FFFFFF" rx="8" ry="8" style="stroke:#A80036;stroke-width:1.0;"/><line style="stroke:#A80036;stroke-width:1.0;" x1="255.5" x2="255.5" y1="303.17" y2="287.17"/><line style="stroke:#A80036;stroke-width:1.0;" x1="247.5" x2="263.5" y1="295.17" y2="295.17"/><text fill="#888888" font-family="sans-serif" font-size="10" lengthAdjust="spacing" textLength="186" x="159.5" y="407.2197">UMLDoclet 2.0.14, PlantUML 1.2021.9</text><!--MD5=[7e3ab9f0b884651badc373d83d5690f5]
@startuml
    set namespaceSeparator none
    hide empty fields
    hide empty methods

    class "<size:14>Type\n<size:10>nl.talsmasoftware.umldoclet.uml" as nl.talsmasoftware.umldoclet.uml.Type [[Type.html]] {
        +Type(Namespace, Classification, TypeName)
        +getName(): TypeName
        +updateGenericTypeVariables(TypeName): void
        +deprecated(): Type
        +setIncludePackagename(boolean): void
        +getPackagename(): String
        +getClassfication(): Classification
        +writeTo(IPW extends IndentingPrintWriter): IPW extends IndentingPrintWriter
        +writeChildrenTo(IPW extends IndentingPrintWriter): IPW extends IndentingPrintWriter
    }

    abstract class "<size:14>UMLNode\n<size:10>nl.talsmasoftware.umldoclet.uml" as nl.talsmasoftware.umldoclet.uml.UMLNode [[UMLNode.html]] {
        {abstract} #writeTo(IPW extends IndentingPrintWriter): IPW extends IndentingPrintWriter
    }
    enum "<size:14>Type.Classification\n<size:10>nl.talsmasoftware.umldoclet.uml" as nl.talsmasoftware.umldoclet.uml.Type.Classification [[Type.Classification.html]]

    nl.talsmasoftware.umldoclet.uml.UMLNode <|- - nl.talsmasoftware.umldoclet.uml.Type
    nl.talsmasoftware.umldoclet.uml.Type +- - nl.talsmasoftware.umldoclet.uml.Type.Classification

    center footer UMLDoclet 2.0.14, PlantUML 1.2021.9
@enduml

PlantUML version 1.2021.9(Sun Jul 25 10:13:56 UTC 2021)
(APACHE source distribution)
Java Runtime: OpenJDK Runtime Environment
JVM: OpenJDK 64-Bit Server VM
Default Encoding: UTF-8
Language: en
Country: null
--></g></svg>