<?xml version="1.0" encoding="UTF-8" standalone="no"?><svg xmlns="http://www.w3.org/2000/svg" xmlns:xlink="http://www.w3.org/1999/xlink" contentScriptType="application/ecmascript" contentStyleType="text/css" height="266px" preserveAspectRatio="none" style="width:211px;height:266px;background:#FFFFFF;" version="1.1" viewBox="0 0 211 266" width="211px" zoomAndPan="magnify"><defs><filter height="300%" id="f9fbstg1yu72g" width="300%" x="-1" y="-1"><feGaussianBlur result="blurOut" stdDeviation="2.0"/><feColorMatrix in="blurOut" result="blurOut2" type="matrix" values="0 0 0 0 0 0 0 0 0 0 0 0 0 0 0 0 0 0 .4 0"/><feOffset dx="4.0" dy="4.0" in="blurOut2" result="blurOut3"/><feBlend in="SourceGraphic" in2="blurOut3" mode="normal"/></filter></defs><g><!--MD5=[6604f4a43bd3f61c95c6220cb894bb63]
class nl.talsmasoftware.umldoclet.uml.Type.Classification--><a href="Type.Classification.html" target="_top" title="Type.Classification.html" xlink:actuate="onRequest" xlink:href="Type.Classification.html" xlink:show="new" xlink:title="Type.Classification.html" xlink:type="simple"><rect codeLine="5" fill="#FEFECE" filter="url(#f9fbstg1yu72g)" height="130.7656" id="nl.talsmasoftware.umldoclet.uml.Type.Classification" style="stroke:#A80036;stroke-width:1.5;" width="190" x="7" y="105"/><ellipse cx="22" cy="123.9688" fill="#EB937F" rx="11" ry="11" style="stroke:#A80036;stroke-width:1.0;"/><path d="M26.1094,129.9688 L18.3906,129.9688 L18.3906,117.5781 L26.1094,117.5781 L26.1094,119.7344 L20.8438,119.7344 L20.8438,122.4063 L25.6094,122.4063 L25.6094,124.5625 L20.8438,124.5625 L20.8438,127.8125 L26.1094,127.8125 L26.1094,129.9688 Z " fill="#000000"/><text fill="#000000" font-family="sans-serif" font-size="14" lengthAdjust="spacing" textLength="127" x="51.5" y="122.9951">Type.Classification</text><text fill="#000000" font-family="sans-serif" font-size="10" lengthAdjust="spacing" textLength="158" x="36" y="135.5791">nl.talsmasoftware.umldoclet.uml</text><line style="stroke:#A80036;stroke-width:1.5;" x1="8" x2="196" y1="142.9375" y2="142.9375"/><ellipse cx="18" cy="153.9375" rx="3" ry="3" style="stroke:#038048;stroke-width:1.0;fill:none;"/><text fill="#000000" font-family="sans-serif" font-size="11" lengthAdjust="spacing" text-decoration="underline" textLength="32" x="27" y="157.1479">ENUM</text><ellipse cx="18" cy="166.7422" rx="3" ry="3" style="stroke:#038048;stroke-width:1.0;fill:none;"/><text fill="#000000" font-family="sans-serif" font-size="11" lengthAdjust="spacing" text-decoration="underline" textLength="60" x="27" y="169.9526">INTERFACE</text><ellipse cx="18" cy="179.5469" rx="3" ry="3" style="stroke:#038048;stroke-width:1.0;fill:none;"/><text fill="#000000" font-family="sans-serif" font-size="11" lengthAdjust="spacing" text-decoration="underline" textLength="73" x="27" y="182.7573">ANNOTATION</text><ellipse cx="18" cy="192.3516" rx="3" ry="3" style="stroke:#038048;stroke-width:1.0;fill:none;"/><text fill="#000000" font-family="sans-serif" font-size="11" lengthAdjust="spacing" text-decoration="underline" textLength="102" x="27" y="195.562">ABSTRACT_CLASS</text><ellipse cx="18" cy="205.1563" rx="3" ry="3" style="stroke:#038048;stroke-width:1.0;fill:none;"/><text fill="#000000" font-family="sans-serif" font-size="11" lengthAdjust="spacing" text-decoration="underline" textLength="37" x="27" y="208.3667">CLASS</text><line style="stroke:#A80036;stroke-width:1.5;" x1="8" x2="196" y1="214.9609" y2="214.9609"/><ellipse cx="18" cy="225.9609" fill="#84BE84" rx="3" ry="3" style="stroke:#038048;stroke-width:1.0;"/><text fill="#000000" font-family="sans-serif" font-size="11" lengthAdjust="spacing" textLength="83" x="27" y="229.1714">toUml(): String</text></a><!--MD5=[78698f0f77a77cf556cb49101f1b89ea]
class nl.talsmasoftware.umldoclet.uml.Type--><a href="Type.html" target="_top" title="Type.html" xlink:actuate="onRequest" xlink:href="Type.html" xlink:show="new" xlink:title="Type.html" xlink:type="simple"><rect codeLine="14" fill="#FEFECE" filter="url(#f9fbstg1yu72g)" height="37.9375" id="nl.talsmasoftware.umldoclet.uml.Type" style="stroke:#A80036;stroke-width:1.5;" width="190" x="7" y="7"/><ellipse cx="22" cy="25.9688" fill="#ADD1B2" rx="11" ry="11" style="stroke:#A80036;stroke-width:1.0;"/><path d="M24.9688,31.6094 Q24.3906,31.9063 23.75,32.0469 Q23.1094,32.2031 22.4063,32.2031 Q19.9063,32.2031 18.5781,30.5625 Q17.2656,28.9063 17.2656,25.7813 Q17.2656,22.6563 18.5781,21 Q19.9063,19.3438 22.4063,19.3438 Q23.1094,19.3438 23.75,19.5 Q24.4063,19.6563 24.9688,19.9531 L24.9688,22.6719 Q24.3438,22.0938 23.75,21.8281 Q23.1563,21.5469 22.5313,21.5469 Q21.1875,21.5469 20.5,22.625 Q19.8125,23.6875 19.8125,25.7813 Q19.8125,27.875 20.5,28.9531 Q21.1875,30.0156 22.5313,30.0156 Q23.1563,30.0156 23.75,29.75 Q24.3438,29.4688 24.9688,28.8906 L24.9688,31.6094 Z " fill="#000000"/><text fill="#000000" font-family="sans-serif" font-size="14" lengthAdjust="spacing" textLength="34" x="98" y="24.9951">Type</text><text fill="#000000" font-family="sans-serif" font-size="10" lengthAdjust="spacing" textLength="158" x="36" y="37.5791">nl.talsmasoftware.umldoclet.uml</text></a><!--MD5=[32f64aab0e381624c1d32f294dac1e80]
reverse link nl.talsmasoftware.umldoclet.uml.Type to nl.talsmasoftware.umldoclet.uml.Type.Classification--><path codeLine="16" d="M102,60.35 C102,73.66 102,89.46 102,104.84 " fill="none" id="nl.talsmasoftware.umldoclet.uml.Type-backto-nl.talsmasoftware.umldoclet.uml.Type.Classification" style="stroke:#A80036;stroke-width:1.0;"/><ellipse cx="102" cy="53.05" fill="#FFFFFF" rx="8" ry="8" style="stroke:#A80036;stroke-width:1.0;"/><line style="stroke:#A80036;stroke-width:1.0;" x1="102" x2="102" y1="61.05" y2="45.05"/><line style="stroke:#A80036;stroke-width:1.0;" x1="94" x2="110" y1="53.05" y2="53.05"/><text fill="#888888" font-family="sans-serif" font-size="10" lengthAdjust="spacing" textLength="186" x="6" y="258.0479">UMLDoclet 2.0.14, PlantUML 1.2021.9</text><!--MD5=[747217bba6b99a307caabe79511d8c1b]
@startuml
    set namespaceSeparator none
    hide empty fields
    hide empty methods

    enum "<size:14>Type.Classification\n<size:10>nl.talsmasoftware.umldoclet.uml" as nl.talsmasoftware.umldoclet.uml.Type.Classification [[Type.Classification.html]] {
        {static} +ENUM
        {static} +INTERFACE
        {static} +ANNOTATION
        {static} +ABSTRACT_CLASS
        {static} +CLASS
        +toUml(): String
    }

    class "<size:14>Type\n<size:10>nl.talsmasoftware.umldoclet.uml" as nl.talsmasoftware.umldoclet.uml.Type [[Type.html]]

    nl.talsmasoftware.umldoclet.uml.Type +- - nl.talsmasoftware.umldoclet.uml.Type.Classification

    center footer UMLDoclet 2.0.14, PlantUML 1.2021.9
@enduml

PlantUML version 1.2021.9(Sun Jul 25 10:13:56 UTC 2021)
(APACHE source distribution)
Java Runtime: OpenJDK Runtime Environment
JVM: OpenJDK 64-Bit Server VM
Default Encoding: UTF-8
Language: en
Country: null
--></g></svg>