<?xml version="1.0" encoding="UTF-8" standalone="no"?><svg xmlns="http://www.w3.org/2000/svg" xmlns:xlink="http://www.w3.org/1999/xlink" contentScriptType="application/ecmascript" contentStyleType="text/css" height="299px" preserveAspectRatio="none" style="width:277px;height:299px;background:#FFFFFF;" version="1.1" viewBox="0 0 277 299" width="277px" zoomAndPan="magnify"><defs><filter height="300%" id="f1m1axd5qnm9y8" width="300%" x="-1" y="-1"><feGaussianBlur result="blurOut" stdDeviation="2.0"/><feColorMatrix in="blurOut" result="blurOut2" type="matrix" values="0 0 0 0 0 0 0 0 0 0 0 0 0 0 0 0 0 0 .4 0"/><feOffset dx="4.0" dy="4.0" in="blurOut2" result="blurOut3"/><feBlend in="SourceGraphic" in2="blurOut3" mode="normal"/></filter></defs><g><!--MD5=[ea9ea8550da79093935ba9f24f54867c]
class nl.talsmasoftware.umldoclet.rendering.writers.DelegatingWriter--><a href="DelegatingWriter.html" target="_top" title="DelegatingWriter.html" xlink:actuate="onRequest" xlink:href="DelegatingWriter.html" xlink:show="new" xlink:title="DelegatingWriter.html" xlink:type="simple"><rect codeLine="5" fill="#FEFECE" filter="url(#f1m1axd5qnm9y8)" height="117.9609" id="nl.talsmasoftware.umldoclet.rendering.writers.DelegatingWriter" style="stroke:#A80036;stroke-width:1.5;" width="254" x="9" y="151"/><ellipse cx="24" cy="169.9688" fill="#ADD1B2" rx="11" ry="11" style="stroke:#A80036;stroke-width:1.0;"/><path d="M26.9688,175.6094 Q26.3906,175.9063 25.75,176.0469 Q25.1094,176.2031 24.4063,176.2031 Q21.9063,176.2031 20.5781,174.5625 Q19.2656,172.9063 19.2656,169.7813 Q19.2656,166.6563 20.5781,165 Q21.9063,163.3438 24.4063,163.3438 Q25.1094,163.3438 25.75,163.5 Q26.4063,163.6563 26.9688,163.9531 L26.9688,166.6719 Q26.3438,166.0938 25.75,165.8281 Q25.1563,165.5469 24.5313,165.5469 Q23.1875,165.5469 22.5,166.625 Q21.8125,167.6875 21.8125,169.7813 Q21.8125,171.875 22.5,172.9531 Q23.1875,174.0156 24.5313,174.0156 Q25.1563,174.0156 25.75,173.75 Q26.3438,173.4688 26.9688,172.8906 L26.9688,175.6094 Z " fill="#000000"/><text fill="#000000" font-family="sans-serif" font-size="14" lengthAdjust="spacing" textLength="115" x="91.5" y="168.9951">DelegatingWriter</text><text fill="#000000" font-family="sans-serif" font-size="10" lengthAdjust="spacing" textLength="222" x="38" y="181.5791">nl.talsmasoftware.umldoclet.rendering.writers</text><line style="stroke:#A80036;stroke-width:1.5;" x1="10" x2="262" y1="188.9375" y2="188.9375"/><polygon fill="none" points="20,194.9375,24,198.9375,20,202.9375,16,198.9375" style="stroke:#B38D22;stroke-width:1.0;"/><text fill="#000000" font-family="sans-serif" font-size="11" lengthAdjust="spacing" textLength="135" x="29" y="203.1479">delegates: List&lt;Writer&gt;</text><line style="stroke:#A80036;stroke-width:1.5;" x1="10" x2="262" y1="209.7422" y2="209.7422"/><ellipse cx="20" cy="220.7422" fill="#84BE84" rx="3" ry="3" style="stroke:#038048;stroke-width:1.0;"/><text fill="#000000" font-family="sans-serif" font-size="11" lengthAdjust="spacing" textLength="146" x="29" y="223.9526">DelegatingWriter(Writer...)</text><ellipse cx="20" cy="233.5469" fill="#84BE84" rx="3" ry="3" style="stroke:#038048;stroke-width:1.0;"/><text fill="#000000" font-family="sans-serif" font-size="11" lengthAdjust="spacing" textLength="144" x="29" y="236.7573">write(char[], int, int): void</text><ellipse cx="20" cy="246.3516" fill="#84BE84" rx="3" ry="3" style="stroke:#038048;stroke-width:1.0;"/><text fill="#000000" font-family="sans-serif" font-size="11" lengthAdjust="spacing" textLength="67" x="29" y="249.562">flush(): void</text><ellipse cx="20" cy="259.1563" fill="#84BE84" rx="3" ry="3" style="stroke:#038048;stroke-width:1.0;"/><text fill="#000000" font-family="sans-serif" font-size="11" lengthAdjust="spacing" textLength="69" x="29" y="262.3667">close(): void</text></a><!--MD5=[048c3133f4c34f5b25aafff9853428d6]
class java.io.Writer--><a href="https://docs.oracle.com/javase/9/docs/api/java/io/Writer.html?is-external=true" target="_top" title="https://docs.oracle.com/javase/9/docs/api/java/io/Writer.html?is-external=true" xlink:actuate="onRequest" xlink:href="https://docs.oracle.com/javase/9/docs/api/java/io/Writer.html?is-external=true" xlink:show="new" xlink:title="https://docs.oracle.com/javase/9/docs/api/java/io/Writer.html?is-external=true" xlink:type="simple"><rect codeLine="13" fill="#FEFECE" filter="url(#f1m1axd5qnm9y8)" height="84.3516" id="java.io.Writer" style="stroke:#A80036;stroke-width:1.5;" width="171" x="50.5" y="7"/><ellipse cx="111.25" cy="25.9688" fill="#A9DCDF" rx="11" ry="11" style="stroke:#A80036;stroke-width:1.0;"/><path d="M111.3594,21.3125 L110.2031,26.3906 L112.5313,26.3906 L111.3594,21.3125 Z M109.875,19.0781 L112.8594,19.0781 L116.2188,31.4688 L113.7656,31.4688 L113,28.4063 L109.7188,28.4063 L108.9688,31.4688 L106.5313,31.4688 L109.875,19.0781 Z " fill="#000000"/><text fill="#000000" font-family="sans-serif" font-size="14" font-style="italic" lengthAdjust="spacing" textLength="41" x="131.75" y="24.9951">Writer</text><text fill="#000000" font-family="sans-serif" font-size="10" font-style="italic" lengthAdjust="spacing" textLength="33" x="135.75" y="37.5791">java.io</text><line style="stroke:#A80036;stroke-width:1.5;" x1="51.5" x2="220.5" y1="44.9375" y2="44.9375"/><ellipse cx="61.5" cy="55.9375" fill="#84BE84" rx="3" ry="3" style="stroke:#038048;stroke-width:1.0;"/><text fill="#000000" font-family="sans-serif" font-size="11" font-style="italic" lengthAdjust="spacing" textLength="145" x="70.5" y="59.1479">write(char[], int, int): void</text><ellipse cx="61.5" cy="68.7422" fill="#84BE84" rx="3" ry="3" style="stroke:#038048;stroke-width:1.0;"/><text fill="#000000" font-family="sans-serif" font-size="11" font-style="italic" lengthAdjust="spacing" textLength="67" x="70.5" y="71.9526">flush(): void</text><ellipse cx="61.5" cy="81.5469" fill="#84BE84" rx="3" ry="3" style="stroke:#038048;stroke-width:1.0;"/><text fill="#000000" font-family="sans-serif" font-size="11" font-style="italic" lengthAdjust="spacing" textLength="69" x="70.5" y="84.7573">close(): void</text></a><!--MD5=[d2c6c6bd5d60aaf29acfbff5c73afb24]
reverse link java.io.Writer to nl.talsmasoftware.umldoclet.rendering.writers.DelegatingWriter--><path codeLine="19" d="M136,111.53 C136,124.44 136,138.01 136,150.79 " fill="none" id="java.io.Writer-backto-nl.talsmasoftware.umldoclet.rendering.writers.DelegatingWriter" style="stroke:#A80036;stroke-width:1.0;"/><polygon fill="none" points="129,111.36,136,91.36,143,111.36,129,111.36" style="stroke:#A80036;stroke-width:1.0;"/><text fill="#888888" font-family="sans-serif" font-size="10" lengthAdjust="spacing" textLength="186" x="39" y="291.2432">UMLDoclet 2.0.14, PlantUML 1.2021.9</text><!--MD5=[9cb14b8db5e665b085f99f02a5322d31]
@startuml
    set namespaceSeparator none
    hide empty fields
    hide empty methods

    class "<size:14>DelegatingWriter\n<size:10>nl.talsmasoftware.umldoclet.rendering.writers" as nl.talsmasoftware.umldoclet.rendering.writers.DelegatingWriter [[DelegatingWriter.html]] {
        #delegates: List<Writer>
        +DelegatingWriter(Writer...)
        +write(char[], int, int): void
        +flush(): void
        +close(): void
    }

    abstract class "<size:14>Writer\n<size:10>java.io" as java.io.Writer [[https://docs.oracle.com/javase/9/docs/api/java/io/Writer.html?is-external=true]] {
        {abstract} +write(char[], int, int): void
        {abstract} +flush(): void
        {abstract} +close(): void
    }

    java.io.Writer <|- - nl.talsmasoftware.umldoclet.rendering.writers.DelegatingWriter

    center footer UMLDoclet 2.0.14, PlantUML 1.2021.9
@enduml

PlantUML version 1.2021.9(Sun Jul 25 10:13:56 UTC 2021)
(APACHE source distribution)
Java Runtime: OpenJDK Runtime Environment
JVM: OpenJDK 64-Bit Server VM
Default Encoding: UTF-8
Language: en
Country: null
--></g></svg>