<?xml version="1.0" encoding="UTF-8" standalone="no"?><svg xmlns="http://www.w3.org/2000/svg" xmlns:xlink="http://www.w3.org/1999/xlink" contentScriptType="application/ecmascript" contentStyleType="text/css" height="500px" preserveAspectRatio="none" style="width:417px;height:500px;background:#FFFFFF;" version="1.1" viewBox="0 0 417 500" width="417px" zoomAndPan="magnify"><defs><filter height="300%" id="fa3s8luuqzm8o" width="300%" x="-1" y="-1"><feGaussianBlur result="blurOut" stdDeviation="2.0"/><feColorMatrix in="blurOut" result="blurOut2" type="matrix" values="0 0 0 0 0 0 0 0 0 0 0 0 0 0 0 0 0 0 .4 0"/><feOffset dx="4.0" dy="4.0" in="blurOut2" result="blurOut3"/><feBlend in="SourceGraphic" in2="blurOut3" mode="normal"/></filter></defs><g><!--MD5=[c9c63833ce2c49c3329a9c3ff774fb08]
cluster nl.talsmasoftware.umldoclet.rendering.writers--><polygon fill="#FFFFFF" filter="url(#fa3s8luuqzm8o)" points="16,180,390,180,397,202.2969,400,202.2969,400,477,16,477,16,180" style="stroke:#000000;stroke-width:1.5;"/><line style="stroke:#000000;stroke-width:1.5;" x1="16" x2="397" y1="202.2969" y2="202.2969"/><text fill="#000000" font-family="sans-serif" font-size="14" font-weight="bold" lengthAdjust="spacing" textLength="368" x="20" y="194.9951">nl.talsmasoftware.umldoclet.rendering.writers</text><!--MD5=[0d852700fdad35b7061d461d6907a324]
cluster java.io--><polygon fill="#FFFFFF" filter="url(#fa3s8luuqzm8o)" points="106,6,162,6,169,28.2969,310,28.2969,310,156,106,156,106,6" style="stroke:#000000;stroke-width:1.5;"/><line style="stroke:#000000;stroke-width:1.5;" x1="106" x2="169" y1="28.2969" y2="28.2969"/><text fill="#000000" font-family="sans-serif" font-size="14" font-weight="bold" lengthAdjust="spacing" textLength="50" x="110" y="20.9951">java.io</text><!--MD5=[ea9ea8550da79093935ba9f24f54867c]
class nl.talsmasoftware.umldoclet.rendering.writers.DelegatingWriter--><a href="DelegatingWriter.html" target="_top" title="DelegatingWriter.html" xlink:actuate="onRequest" xlink:href="DelegatingWriter.html" xlink:show="new" xlink:title="DelegatingWriter.html" xlink:type="simple"><rect codeLine="3" fill="#FEFECE" filter="url(#fa3s8luuqzm8o)" height="112.0234" id="nl.talsmasoftware.umldoclet.rendering.writers.DelegatingWriter" style="stroke:#A80036;stroke-width:1.5;" width="172" x="122" y="215"/><ellipse cx="152.75" cy="231" fill="#ADD1B2" rx="11" ry="11" style="stroke:#A80036;stroke-width:1.0;"/><path d="M155.7188,236.6406 Q155.1406,236.9375 154.5,237.0781 Q153.8594,237.2344 153.1563,237.2344 Q150.6563,237.2344 149.3281,235.5938 Q148.0156,233.9375 148.0156,230.8125 Q148.0156,227.6875 149.3281,226.0313 Q150.6563,224.375 153.1563,224.375 Q153.8594,224.375 154.5,224.5313 Q155.1563,224.6875 155.7188,224.9844 L155.7188,227.7031 Q155.0938,227.125 154.5,226.8594 Q153.9063,226.5781 153.2813,226.5781 Q151.9375,226.5781 151.25,227.6563 Q150.5625,228.7188 150.5625,230.8125 Q150.5625,232.9063 151.25,233.9844 Q151.9375,235.0469 153.2813,235.0469 Q153.9063,235.0469 154.5,234.7813 Q155.0938,234.5 155.7188,233.9219 L155.7188,236.6406 Z " fill="#000000"/><text fill="#000000" font-family="sans-serif" font-size="12" lengthAdjust="spacing" textLength="105" x="170.25" y="235.1543">DelegatingWriter</text><line style="stroke:#A80036;stroke-width:1.5;" x1="123" x2="293" y1="247" y2="247"/><polygon fill="none" points="133,253,137,257,133,261,129,257" style="stroke:#B38D22;stroke-width:1.0;"/><text fill="#000000" font-family="sans-serif" font-size="11" lengthAdjust="spacing" textLength="135" x="142" y="261.2104">delegates: List&lt;Writer&gt;</text><line style="stroke:#A80036;stroke-width:1.5;" x1="123" x2="293" y1="267.8047" y2="267.8047"/><ellipse cx="133" cy="278.8047" fill="#84BE84" rx="3" ry="3" style="stroke:#038048;stroke-width:1.0;"/><text fill="#000000" font-family="sans-serif" font-size="11" lengthAdjust="spacing" textLength="146" x="142" y="282.0151">DelegatingWriter(Writer...)</text><ellipse cx="133" cy="291.6094" fill="#84BE84" rx="3" ry="3" style="stroke:#038048;stroke-width:1.0;"/><text fill="#000000" font-family="sans-serif" font-size="11" lengthAdjust="spacing" textLength="144" x="142" y="294.8198">write(char[], int, int): void</text><ellipse cx="133" cy="304.4141" fill="#84BE84" rx="3" ry="3" style="stroke:#038048;stroke-width:1.0;"/><text fill="#000000" font-family="sans-serif" font-size="11" lengthAdjust="spacing" textLength="67" x="142" y="307.6245">flush(): void</text><ellipse cx="133" cy="317.2188" fill="#84BE84" rx="3" ry="3" style="stroke:#038048;stroke-width:1.0;"/><text fill="#000000" font-family="sans-serif" font-size="11" lengthAdjust="spacing" textLength="69" x="142" y="320.4292">close(): void</text></a><!--MD5=[0b2f16a0535ff37ddb6ea86392dc72c9]
class nl.talsmasoftware.umldoclet.rendering.writers.StringBufferingWriter--><a href="StringBufferingWriter.html" target="_top" title="StringBufferingWriter.html" xlink:actuate="onRequest" xlink:href="StringBufferingWriter.html" xlink:show="new" xlink:title="StringBufferingWriter.html" xlink:type="simple"><rect codeLine="11" fill="#FEFECE" filter="url(#fa3s8luuqzm8o)" height="73.6094" id="nl.talsmasoftware.umldoclet.rendering.writers.StringBufferingWriter" style="stroke:#A80036;stroke-width:1.5;" width="186" x="115" y="387"/><ellipse cx="140.8" cy="403" fill="#ADD1B2" rx="11" ry="11" style="stroke:#A80036;stroke-width:1.0;"/><path d="M143.7688,408.6406 Q143.1906,408.9375 142.55,409.0781 Q141.9094,409.2344 141.2063,409.2344 Q138.7063,409.2344 137.3781,407.5938 Q136.0656,405.9375 136.0656,402.8125 Q136.0656,399.6875 137.3781,398.0313 Q138.7063,396.375 141.2063,396.375 Q141.9094,396.375 142.55,396.5313 Q143.2063,396.6875 143.7688,396.9844 L143.7688,399.7031 Q143.1438,399.125 142.55,398.8594 Q141.9563,398.5781 141.3313,398.5781 Q139.9875,398.5781 139.3,399.6563 Q138.6125,400.7188 138.6125,402.8125 Q138.6125,404.9063 139.3,405.9844 Q139.9875,407.0469 141.3313,407.0469 Q141.9563,407.0469 142.55,406.7813 Q143.1438,406.5 143.7688,405.9219 L143.7688,408.6406 Z " fill="#000000"/><text fill="#000000" font-family="sans-serif" font-size="12" lengthAdjust="spacing" textLength="130" x="157.2" y="407.1543">StringBufferingWriter</text><line style="stroke:#A80036;stroke-width:1.5;" x1="116" x2="300" y1="419" y2="419"/><line style="stroke:#A80036;stroke-width:1.5;" x1="116" x2="300" y1="427" y2="427"/><ellipse cx="126" cy="438" fill="#84BE84" rx="3" ry="3" style="stroke:#038048;stroke-width:1.0;"/><text fill="#000000" font-family="sans-serif" font-size="11" lengthAdjust="spacing" textLength="160" x="135" y="441.2104">StringBufferingWriter(Writer)</text><ellipse cx="126" cy="450.8047" fill="#84BE84" rx="3" ry="3" style="stroke:#038048;stroke-width:1.0;"/><text fill="#000000" font-family="sans-serif" font-size="11" lengthAdjust="spacing" textLength="138" x="135" y="454.0151">getBuffer(): StringBuffer</text></a><!--MD5=[048c3133f4c34f5b25aafff9853428d6]
class java.io.Writer--><a href="https://docs.oracle.com/javase/9/docs/api/java/io/Writer.html?is-external=true" target="_top" title="https://docs.oracle.com/javase/9/docs/api/java/io/Writer.html?is-external=true" xlink:actuate="onRequest" xlink:href="https://docs.oracle.com/javase/9/docs/api/java/io/Writer.html?is-external=true" xlink:show="new" xlink:title="https://docs.oracle.com/javase/9/docs/api/java/io/Writer.html?is-external=true" xlink:type="simple"><rect codeLine="21" fill="#FEFECE" filter="url(#fa3s8luuqzm8o)" height="99.2188" id="java.io.Writer" style="stroke:#A80036;stroke-width:1.5;" width="171" x="122.5" y="41"/><ellipse cx="184.75" cy="57" fill="#A9DCDF" rx="11" ry="11" style="stroke:#A80036;stroke-width:1.0;"/><path d="M184.8594,52.3438 L183.7031,57.4219 L186.0313,57.4219 L184.8594,52.3438 Z M183.375,50.1094 L186.3594,50.1094 L189.7188,62.5 L187.2656,62.5 L186.5,59.4375 L183.2188,59.4375 L182.4688,62.5 L180.0313,62.5 L183.375,50.1094 Z " fill="#000000"/><text fill="#000000" font-family="sans-serif" font-size="12" font-style="italic" lengthAdjust="spacing" textLength="38" x="205.25" y="61.1543">Writer</text><line style="stroke:#A80036;stroke-width:1.5;" x1="123.5" x2="292.5" y1="73" y2="73"/><polygon fill="none" points="133.5,79,137.5,83,133.5,87,129.5,83" style="stroke:#B38D22;stroke-width:1.0;"/><text fill="#000000" font-family="sans-serif" font-size="11" lengthAdjust="spacing" textLength="66" x="142.5" y="87.2104">lock: Object</text><line style="stroke:#A80036;stroke-width:1.5;" x1="123.5" x2="292.5" y1="93.8047" y2="93.8047"/><ellipse cx="133.5" cy="104.8047" fill="#84BE84" rx="3" ry="3" style="stroke:#038048;stroke-width:1.0;"/><text fill="#000000" font-family="sans-serif" font-size="11" font-style="italic" lengthAdjust="spacing" textLength="145" x="142.5" y="108.0151">write(char[], int, int): void</text><ellipse cx="133.5" cy="117.6094" fill="#84BE84" rx="3" ry="3" style="stroke:#038048;stroke-width:1.0;"/><text fill="#000000" font-family="sans-serif" font-size="11" font-style="italic" lengthAdjust="spacing" textLength="67" x="142.5" y="120.8198">flush(): void</text><ellipse cx="133.5" cy="130.4141" fill="#84BE84" rx="3" ry="3" style="stroke:#038048;stroke-width:1.0;"/><text fill="#000000" font-family="sans-serif" font-size="11" font-style="italic" lengthAdjust="spacing" textLength="69" x="142.5" y="133.6245">close(): void</text></a><!--MD5=[d2c6c6bd5d60aaf29acfbff5c73afb24]
reverse link java.io.Writer to nl.talsmasoftware.umldoclet.rendering.writers.DelegatingWriter--><path codeLine="16" d="M208,160.4 C208,178.48 208,197.74 208,214.99 " fill="none" id="java.io.Writer-backto-nl.talsmasoftware.umldoclet.rendering.writers.DelegatingWriter" style="stroke:#A80036;stroke-width:1.0;"/><polygon fill="none" points="201,160.28,208,140.28,215,160.28,201,160.28" style="stroke:#A80036;stroke-width:1.0;"/><!--MD5=[8c2c5d68cb80e76db7f293b2e7ca61ab]
reverse link nl.talsmasoftware.umldoclet.rendering.writers.DelegatingWriter to nl.talsmasoftware.umldoclet.rendering.writers.StringBufferingWriter--><path codeLine="17" d="M208,347.84 C208,361.47 208,375.09 208,386.91 " fill="none" id="nl.talsmasoftware.umldoclet.rendering.writers.DelegatingWriter-backto-nl.talsmasoftware.umldoclet.rendering.writers.StringBufferingWriter" style="stroke:#A80036;stroke-width:1.0;"/><polygon fill="none" points="201,347.37,208,327.37,215,347.37,201,347.37" style="stroke:#A80036;stroke-width:1.0;"/><text fill="#888888" font-family="sans-serif" font-size="10" lengthAdjust="spacing" textLength="186" x="109" y="492.2822">UMLDoclet 2.0.14, PlantUML 1.2021.9</text><!--MD5=[e3145e9b40853e65b057a02bb863a9be]
@startuml
    namespace nl.talsmasoftware.umldoclet.rendering.writers {

        class DelegatingWriter [[DelegatingWriter.html]] {
            #delegates: List<Writer>
            +DelegatingWriter(Writer...)
            +write(char[], int, int): void
            +flush(): void
            +close(): void
        }

        class StringBufferingWriter [[StringBufferingWriter.html]] {
            +StringBufferingWriter(Writer)
            +getBuffer(): StringBuffer
        }

        java.io.Writer <|- - DelegatingWriter
        DelegatingWriter <|- - StringBufferingWriter
    }

    namespace java.io {
        abstract class Writer [[https://docs.oracle.com/javase/9/docs/api/java/io/Writer.html?is-external=true]] {
            #lock: Object
            {abstract} +write(char[], int, int): void
            {abstract} +flush(): void
            {abstract} +close(): void
        }
    }

    center footer UMLDoclet 2.0.14, PlantUML 1.2021.9
@enduml

PlantUML version 1.2021.9(Sun Jul 25 10:13:56 UTC 2021)
(APACHE source distribution)
Java Runtime: OpenJDK Runtime Environment
JVM: OpenJDK 64-Bit Server VM
Default Encoding: UTF-8
Language: en
Country: null
--></g></svg>