<?xml version="1.0" encoding="UTF-8" standalone="no"?><svg xmlns="http://www.w3.org/2000/svg" xmlns:xlink="http://www.w3.org/1999/xlink" contentScriptType="application/ecmascript" contentStyleType="text/css" height="661px" preserveAspectRatio="none" style="width:768px;height:661px;background:#FFFFFF;" version="1.1" viewBox="0 0 768 661" width="768px" zoomAndPan="magnify"><defs><filter height="300%" id="f1v0isz6w00jom" width="300%" x="-1" y="-1"><feGaussianBlur result="blurOut" stdDeviation="2.0"/><feColorMatrix in="blurOut" result="blurOut2" type="matrix" values="0 0 0 0 0 0 0 0 0 0 0 0 0 0 0 0 0 0 .4 0"/><feOffset dx="4.0" dy="4.0" in="blurOut2" result="blurOut3"/><feBlend in="SourceGraphic" in2="blurOut3" mode="normal"/></filter></defs><g><!--MD5=[2586c767abb26d629437b2e7c3b89215]
cluster nl.talsmasoftware.umldoclet.javadoc--><polygon fill="#FFFFFF" filter="url(#f1v0isz6w00jom)" points="16,321,310,321,317,343.2969,751,343.2969,751,638,16,638,16,321" style="stroke:#000000;stroke-width:1.5;"/><line style="stroke:#000000;stroke-width:1.5;" x1="16" x2="317" y1="343.2969" y2="343.2969"/><text fill="#000000" font-family="sans-serif" font-size="14" font-weight="bold" lengthAdjust="spacing" textLength="288" x="20" y="335.9951">nl.talsmasoftware.umldoclet.javadoc</text><!--MD5=[6b4a7c32d0d9bb105cffc63a292dfca8]
cluster nl.talsmasoftware.umldoclet.configuration--><polygon fill="#FFFFFF" filter="url(#f1v0isz6w00jom)" points="365,6,704,6,711,28.2969,751,28.2969,751,297,365,297,365,6" style="stroke:#000000;stroke-width:1.5;"/><line style="stroke:#000000;stroke-width:1.5;" x1="365" x2="711" y1="28.2969" y2="28.2969"/><text fill="#000000" font-family="sans-serif" font-size="14" font-weight="bold" lengthAdjust="spacing" textLength="333" x="369" y="20.9951">nl.talsmasoftware.umldoclet.configuration</text><!--MD5=[5d9891ee164d4fc6a0e3d1fb88078bf2]
class nl.talsmasoftware.umldoclet.javadoc.DocletConfig--><a href="DocletConfig.html" target="_top" title="DocletConfig.html" xlink:actuate="onRequest" xlink:href="DocletConfig.html" xlink:show="new" xlink:title="DocletConfig.html" xlink:type="simple"><rect codeLine="3" fill="#FEFECE" filter="url(#f1v0isz6w00jom)" height="265.6797" id="nl.talsmasoftware.umldoclet.javadoc.DocletConfig" style="stroke:#A80036;stroke-width:1.5;" width="353" x="381.5" y="356"/><ellipse cx="514.25" cy="372" fill="#ADD1B2" rx="11" ry="11" style="stroke:#A80036;stroke-width:1.0;"/><path d="M517.2188,377.6406 Q516.6406,377.9375 516,378.0781 Q515.3594,378.2344 514.6563,378.2344 Q512.1563,378.2344 510.8281,376.5938 Q509.5156,374.9375 509.5156,371.8125 Q509.5156,368.6875 510.8281,367.0313 Q512.1563,365.375 514.6563,365.375 Q515.3594,365.375 516,365.5313 Q516.6563,365.6875 517.2188,365.9844 L517.2188,368.7031 Q516.5938,368.125 516,367.8594 Q515.4063,367.5781 514.7813,367.5781 Q513.4375,367.5781 512.75,368.6563 Q512.0625,369.7188 512.0625,371.8125 Q512.0625,373.9063 512.75,374.9844 Q513.4375,376.0469 514.7813,376.0469 Q515.4063,376.0469 516,375.7813 Q516.5938,375.5 517.2188,374.9219 L517.2188,377.6406 Z " fill="#000000"/><text fill="#000000" font-family="sans-serif" font-size="12" lengthAdjust="spacing" textLength="79" x="534.75" y="376.1543">DocletConfig</text><line style="stroke:#A80036;stroke-width:1.5;" x1="382.5" x2="733.5" y1="388" y2="388"/><line style="stroke:#A80036;stroke-width:1.5;" x1="382.5" x2="733.5" y1="396" y2="396"/><ellipse cx="392.5" cy="407" fill="#84BE84" rx="3" ry="3" style="stroke:#038048;stroke-width:1.0;"/><text fill="#000000" font-family="sans-serif" font-size="11" lengthAdjust="spacing" textLength="149" x="401.5" y="410.2104">init(Locale, Reporter): void</text><ellipse cx="392.5" cy="419.8047" fill="#84BE84" rx="3" ry="3" style="stroke:#038048;stroke-width:1.0;"/><text fill="#000000" font-family="sans-serif" font-size="11" lengthAdjust="spacing" textLength="327" x="401.5" y="423.0151">mergeOptionsWith(Set&lt;? extends Option&gt;): Set&lt;Option&gt;</text><ellipse cx="392.5" cy="432.6094" fill="#84BE84" rx="3" ry="3" style="stroke:#038048;stroke-width:1.0;"/><text fill="#000000" font-family="sans-serif" font-size="11" lengthAdjust="spacing" textLength="232" x="401.5" y="435.8198">delegateDocletName(): Optional&lt;String&gt;</text><ellipse cx="392.5" cy="445.4141" fill="#84BE84" rx="3" ry="3" style="stroke:#038048;stroke-width:1.0;"/><text fill="#000000" font-family="sans-serif" font-size="11" lengthAdjust="spacing" textLength="91" x="401.5" y="448.6245">logger(): Logger</text><ellipse cx="392.5" cy="458.2188" fill="#84BE84" rx="3" ry="3" style="stroke:#038048;stroke-width:1.0;"/><text fill="#000000" font-family="sans-serif" font-size="11" lengthAdjust="spacing" textLength="142" x="401.5" y="461.4292">indentation(): Indentation</text><ellipse cx="392.5" cy="471.0234" fill="#84BE84" rx="3" ry="3" style="stroke:#038048;stroke-width:1.0;"/><text fill="#000000" font-family="sans-serif" font-size="11" lengthAdjust="spacing" textLength="164" x="401.5" y="474.2339">destinationDirectory(): String</text><ellipse cx="392.5" cy="483.8281" fill="#84BE84" rx="3" ry="3" style="stroke:#038048;stroke-width:1.0;"/><text fill="#000000" font-family="sans-serif" font-size="11" lengthAdjust="spacing" textLength="146" x="401.5" y="487.0386">renderPumlFile(): boolean</text><ellipse cx="392.5" cy="496.6328" fill="#84BE84" rx="3" ry="3" style="stroke:#038048;stroke-width:1.0;"/><text fill="#000000" font-family="sans-serif" font-size="11" lengthAdjust="spacing" textLength="129" x="401.5" y="499.8433">images(): ImageConfig</text><ellipse cx="392.5" cy="509.4375" fill="#84BE84" rx="3" ry="3" style="stroke:#038048;stroke-width:1.0;"/><text fill="#000000" font-family="sans-serif" font-size="11" lengthAdjust="spacing" textLength="109" x="401.5" y="512.6479">fields(): FieldConfig</text><ellipse cx="392.5" cy="522.2422" fill="#84BE84" rx="3" ry="3" style="stroke:#038048;stroke-width:1.0;"/><text fill="#000000" font-family="sans-serif" font-size="11" lengthAdjust="spacing" textLength="143" x="401.5" y="525.4526">methods(): MethodConfig</text><ellipse cx="392.5" cy="535.0469" fill="#84BE84" rx="3" ry="3" style="stroke:#038048;stroke-width:1.0;"/><text fill="#000000" font-family="sans-serif" font-size="11" lengthAdjust="spacing" textLength="229" x="401.5" y="538.2573">excludedTypeReferences(): List&lt;String&gt;</text><ellipse cx="392.5" cy="547.8516" fill="#84BE84" rx="3" ry="3" style="stroke:#038048;stroke-width:1.0;"/><text fill="#000000" font-family="sans-serif" font-size="11" lengthAdjust="spacing" textLength="265" x="401.5" y="551.062">excludedPackageDependencies(): List&lt;String&gt;</text><ellipse cx="392.5" cy="560.6563" fill="#84BE84" rx="3" ry="3" style="stroke:#038048;stroke-width:1.0;"/><text fill="#000000" font-family="sans-serif" font-size="11" lengthAdjust="spacing" textLength="253" x="401.5" y="563.8667">failOnCyclicPackageDependencies(): boolean</text><ellipse cx="392.5" cy="573.4609" fill="#84BE84" rx="3" ry="3" style="stroke:#038048;stroke-width:1.0;"/><text fill="#000000" font-family="sans-serif" font-size="11" lengthAdjust="spacing" textLength="326" x="401.5" y="576.6714">resolveExternalLinkToType(String, String): Optional&lt;URI&gt;</text><ellipse cx="392.5" cy="586.2656" fill="#84BE84" rx="3" ry="3" style="stroke:#038048;stroke-width:1.0;"/><text fill="#000000" font-family="sans-serif" font-size="11" lengthAdjust="spacing" textLength="235" x="401.5" y="589.4761">customPlantumlDirectives(): List&lt;String&gt;</text><ellipse cx="392.5" cy="599.0703" fill="#84BE84" rx="3" ry="3" style="stroke:#038048;stroke-width:1.0;"/><text fill="#000000" font-family="sans-serif" font-size="11" lengthAdjust="spacing" textLength="127" x="401.5" y="602.2808">umlCharset(): Charset</text><ellipse cx="392.5" cy="611.875" fill="#84BE84" rx="3" ry="3" style="stroke:#038048;stroke-width:1.0;"/><text fill="#000000" font-family="sans-serif" font-size="11" lengthAdjust="spacing" textLength="131" x="401.5" y="615.0854">htmlCharset(): Charset</text></a><!--MD5=[fe117dbae5e2e720fedb284ccfdf3499]
class nl.talsmasoftware.umldoclet.javadoc.UMLFactory--><a href="UMLFactory.html" target="_top" title="UMLFactory.html" xlink:actuate="onRequest" xlink:href="UMLFactory.html" xlink:show="new" xlink:title="UMLFactory.html" xlink:type="simple"><rect codeLine="23" fill="#FEFECE" filter="url(#f1v0isz6w00jom)" height="86.4141" id="nl.talsmasoftware.umldoclet.javadoc.UMLFactory" style="stroke:#A80036;stroke-width:1.5;" width="314" x="32" y="446"/><ellipse cx="149.25" cy="462" fill="#ADD1B2" rx="11" ry="11" style="stroke:#A80036;stroke-width:1.0;"/><path d="M152.2188,467.6406 Q151.6406,467.9375 151,468.0781 Q150.3594,468.2344 149.6563,468.2344 Q147.1563,468.2344 145.8281,466.5938 Q144.5156,464.9375 144.5156,461.8125 Q144.5156,458.6875 145.8281,457.0313 Q147.1563,455.375 149.6563,455.375 Q150.3594,455.375 151,455.5313 Q151.6563,455.6875 152.2188,455.9844 L152.2188,458.7031 Q151.5938,458.125 151,457.8594 Q150.4063,457.5781 149.7813,457.5781 Q148.4375,457.5781 147.75,458.6563 Q147.0625,459.7188 147.0625,461.8125 Q147.0625,463.9063 147.75,464.9844 Q148.4375,466.0469 149.7813,466.0469 Q150.4063,466.0469 151,465.7813 Q151.5938,465.5 152.2188,464.9219 L152.2188,467.6406 Z " fill="#000000"/><text fill="#000000" font-family="sans-serif" font-size="12" lengthAdjust="spacing" textLength="71" x="169.75" y="466.1543">UMLFactory</text><line style="stroke:#A80036;stroke-width:1.5;" x1="33" x2="345" y1="478" y2="478"/><line style="stroke:#A80036;stroke-width:1.5;" x1="33" x2="345" y1="486" y2="486"/><ellipse cx="43" cy="497" fill="#84BE84" rx="3" ry="3" style="stroke:#038048;stroke-width:1.0;"/><text fill="#000000" font-family="sans-serif" font-size="11" lengthAdjust="spacing" textLength="262" x="52" y="500.2104">UMLFactory(Configuration, DocletEnvironment)</text><ellipse cx="43" cy="509.8047" fill="#84BE84" rx="3" ry="3" style="stroke:#038048;stroke-width:1.0;"/><text fill="#000000" font-family="sans-serif" font-size="11" lengthAdjust="spacing" textLength="253" x="52" y="513.0151">createClassDiagram(TypeElement): Diagram</text><ellipse cx="43" cy="522.6094" fill="#84BE84" rx="3" ry="3" style="stroke:#038048;stroke-width:1.0;"/><text fill="#000000" font-family="sans-serif" font-size="11" lengthAdjust="spacing" textLength="288" x="52" y="525.8198">createPackageDiagram(PackageElement): Diagram</text></a><!--MD5=[043a22601234ef32e15efff86ee3a175]
class nl.talsmasoftware.umldoclet.configuration.Configuration--><a href="../configuration/Configuration.html" target="_top" title="../configuration/Configuration.html" xlink:actuate="onRequest" xlink:href="../configuration/Configuration.html" xlink:show="new" xlink:title="../configuration/Configuration.html" xlink:type="simple"><rect codeLine="33" fill="#FEFECE" filter="url(#f1v0isz6w00jom)" height="240.0703" id="nl.talsmasoftware.umldoclet.configuration.Configuration" style="stroke:#A80036;stroke-width:1.5;" width="353" x="381.5" y="41"/><ellipse cx="511.75" cy="57" fill="#B4A7E5" rx="11" ry="11" style="stroke:#A80036;stroke-width:1.0;"/><path d="M507.6719,52.7656 L507.6719,50.6094 L515.0625,50.6094 L515.0625,52.7656 L512.5938,52.7656 L512.5938,60.8438 L515.0625,60.8438 L515.0625,63 L507.6719,63 L507.6719,60.8438 L510.1406,60.8438 L510.1406,52.7656 L507.6719,52.7656 Z " fill="#000000"/><text fill="#000000" font-family="sans-serif" font-size="12" font-style="italic" lengthAdjust="spacing" textLength="84" x="532.25" y="61.1543">Configuration</text><line style="stroke:#A80036;stroke-width:1.5;" x1="382.5" x2="733.5" y1="73" y2="73"/><line style="stroke:#A80036;stroke-width:1.5;" x1="382.5" x2="733.5" y1="81" y2="81"/><ellipse cx="392.5" cy="92" fill="#84BE84" rx="3" ry="3" style="stroke:#038048;stroke-width:1.0;"/><text fill="#000000" font-family="sans-serif" font-size="11" font-style="italic" lengthAdjust="spacing" textLength="231" x="401.5" y="95.2104">delegateDocletName(): Optional&lt;String&gt;</text><ellipse cx="392.5" cy="104.8047" fill="#84BE84" rx="3" ry="3" style="stroke:#038048;stroke-width:1.0;"/><text fill="#000000" font-family="sans-serif" font-size="11" font-style="italic" lengthAdjust="spacing" textLength="91" x="401.5" y="108.0151">logger(): Logger</text><ellipse cx="392.5" cy="117.6094" fill="#84BE84" rx="3" ry="3" style="stroke:#038048;stroke-width:1.0;"/><text fill="#000000" font-family="sans-serif" font-size="11" font-style="italic" lengthAdjust="spacing" textLength="142" x="401.5" y="120.8198">indentation(): Indentation</text><ellipse cx="392.5" cy="130.4141" fill="#84BE84" rx="3" ry="3" style="stroke:#038048;stroke-width:1.0;"/><text fill="#000000" font-family="sans-serif" font-size="11" font-style="italic" lengthAdjust="spacing" textLength="163" x="401.5" y="133.6245">destinationDirectory(): String</text><ellipse cx="392.5" cy="143.2188" fill="#84BE84" rx="3" ry="3" style="stroke:#038048;stroke-width:1.0;"/><text fill="#000000" font-family="sans-serif" font-size="11" font-style="italic" lengthAdjust="spacing" textLength="146" x="401.5" y="146.4292">renderPumlFile(): boolean</text><ellipse cx="392.5" cy="156.0234" fill="#84BE84" rx="3" ry="3" style="stroke:#038048;stroke-width:1.0;"/><text fill="#000000" font-family="sans-serif" font-size="11" font-style="italic" lengthAdjust="spacing" textLength="128" x="401.5" y="159.2339">images(): ImageConfig</text><ellipse cx="392.5" cy="168.8281" fill="#84BE84" rx="3" ry="3" style="stroke:#038048;stroke-width:1.0;"/><text fill="#000000" font-family="sans-serif" font-size="11" font-style="italic" lengthAdjust="spacing" textLength="108" x="401.5" y="172.0386">fields(): FieldConfig</text><ellipse cx="392.5" cy="181.6328" fill="#84BE84" rx="3" ry="3" style="stroke:#038048;stroke-width:1.0;"/><text fill="#000000" font-family="sans-serif" font-size="11" font-style="italic" lengthAdjust="spacing" textLength="142" x="401.5" y="184.8433">methods(): MethodConfig</text><ellipse cx="392.5" cy="194.4375" fill="#84BE84" rx="3" ry="3" style="stroke:#038048;stroke-width:1.0;"/><text fill="#000000" font-family="sans-serif" font-size="11" font-style="italic" lengthAdjust="spacing" textLength="229" x="401.5" y="197.6479">excludedTypeReferences(): List&lt;String&gt;</text><ellipse cx="392.5" cy="207.2422" fill="#84BE84" rx="3" ry="3" style="stroke:#038048;stroke-width:1.0;"/><text fill="#000000" font-family="sans-serif" font-size="11" font-style="italic" lengthAdjust="spacing" textLength="263" x="401.5" y="210.4526">excludedPackageDependencies(): List&lt;String&gt;</text><ellipse cx="392.5" cy="220.0469" fill="#84BE84" rx="3" ry="3" style="stroke:#038048;stroke-width:1.0;"/><text fill="#000000" font-family="sans-serif" font-size="11" font-style="italic" lengthAdjust="spacing" textLength="253" x="401.5" y="223.2573">failOnCyclicPackageDependencies(): boolean</text><ellipse cx="392.5" cy="232.8516" fill="#84BE84" rx="3" ry="3" style="stroke:#038048;stroke-width:1.0;"/><text fill="#000000" font-family="sans-serif" font-size="11" font-style="italic" lengthAdjust="spacing" textLength="327" x="401.5" y="236.062">resolveExternalLinkToType(String, String): Optional&lt;URI&gt;</text><ellipse cx="392.5" cy="245.6563" fill="#84BE84" rx="3" ry="3" style="stroke:#038048;stroke-width:1.0;"/><text fill="#000000" font-family="sans-serif" font-size="11" font-style="italic" lengthAdjust="spacing" textLength="232" x="401.5" y="248.8667">customPlantumlDirectives(): List&lt;String&gt;</text><ellipse cx="392.5" cy="258.4609" fill="#84BE84" rx="3" ry="3" style="stroke:#038048;stroke-width:1.0;"/><text fill="#000000" font-family="sans-serif" font-size="11" font-style="italic" lengthAdjust="spacing" textLength="125" x="401.5" y="261.6714">umlCharset(): Charset</text><ellipse cx="392.5" cy="271.2656" fill="#84BE84" rx="3" ry="3" style="stroke:#038048;stroke-width:1.0;"/><text fill="#000000" font-family="sans-serif" font-size="11" font-style="italic" lengthAdjust="spacing" textLength="129" x="401.5" y="274.4761">htmlCharset(): Charset</text></a><!--MD5=[713d50ebe36e26b813cea7328a127061]
reverse link nl.talsmasoftware.umldoclet.configuration.Configuration to nl.talsmasoftware.umldoclet.javadoc.DocletConfig--><path codeLine="29" d="M558,301.26 C558,319.33 558,337.8 558,355.76 " fill="none" id="nl.talsmasoftware.umldoclet.configuration.Configuration-backto-nl.talsmasoftware.umldoclet.javadoc.DocletConfig" style="stroke:#A80036;stroke-width:1.0;stroke-dasharray:7.0,7.0;"/><polygon fill="none" points="551,301.08,558,281.08,565,301.08,551,301.08" style="stroke:#A80036;stroke-width:1.0;"/><text fill="#888888" font-family="sans-serif" font-size="10" lengthAdjust="spacing" textLength="186" x="284.5" y="653.2822">UMLDoclet 2.0.14, PlantUML 1.2021.9</text><!--MD5=[69f1e0c6d4574d425d097ed2723153f0]
@startuml
    namespace nl.talsmasoftware.umldoclet.javadoc {

        class DocletConfig [[DocletConfig.html]] {
            +init(Locale, Reporter): void
            +mergeOptionsWith(Set<? extends Option>): Set<Option>
            +delegateDocletName(): Optional<String>
            +logger(): Logger
            +indentation(): Indentation
            +destinationDirectory(): String
            +renderPumlFile(): boolean
            +images(): ImageConfig
            +fields(): FieldConfig
            +methods(): MethodConfig
            +excludedTypeReferences(): List<String>
            +excludedPackageDependencies(): List<String>
            +failOnCyclicPackageDependencies(): boolean
            +resolveExternalLinkToType(String, String): Optional<URI>
            +customPlantumlDirectives(): List<String>
            +umlCharset(): Charset
            +htmlCharset(): Charset
        }

        class UMLFactory [[UMLFactory.html]] {
            +UMLFactory(Configuration, DocletEnvironment)
            +createClassDiagram(TypeElement): Diagram
            +createPackageDiagram(PackageElement): Diagram
        }

        nl.talsmasoftware.umldoclet.configuration.Configuration <|.. DocletConfig
    }

    namespace nl.talsmasoftware.umldoclet.configuration {
        interface Configuration [[../configuration/Configuration.html]] {
            {abstract} +delegateDocletName(): Optional<String>
            {abstract} +logger(): Logger
            {abstract} +indentation(): Indentation
            {abstract} +destinationDirectory(): String
            {abstract} +renderPumlFile(): boolean
            {abstract} +images(): ImageConfig
            {abstract} +fields(): FieldConfig
            {abstract} +methods(): MethodConfig
            {abstract} +excludedTypeReferences(): List<String>
            {abstract} +excludedPackageDependencies(): List<String>
            {abstract} +failOnCyclicPackageDependencies(): boolean
            {abstract} +resolveExternalLinkToType(String, String): Optional<URI>
            {abstract} +customPlantumlDirectives(): List<String>
            {abstract} +umlCharset(): Charset
            {abstract} +htmlCharset(): Charset
        }
    }

    center footer UMLDoclet 2.0.14, PlantUML 1.2021.9
@enduml

PlantUML version 1.2021.9(Sun Jul 25 10:13:56 UTC 2021)
(APACHE source distribution)
Java Runtime: OpenJDK Runtime Environment
JVM: OpenJDK 64-Bit Server VM
Default Encoding: UTF-8
Language: en
Country: null
--></g></svg>