<?xml version="1.0" encoding="UTF-8" standalone="no"?><svg xmlns="http://www.w3.org/2000/svg" xmlns:xlink="http://www.w3.org/1999/xlink" contentScriptType="application/ecmascript" contentStyleType="text/css" height="302px" preserveAspectRatio="none" style="width:303px;height:302px;background:#FFFFFF;" version="1.1" viewBox="0 0 303 302" width="303px" zoomAndPan="magnify"><defs><filter height="300%" id="f140n1e4ri5mjh" width="300%" x="-1" y="-1"><feGaussianBlur result="blurOut" stdDeviation="2.0"/><feColorMatrix in="blurOut" result="blurOut2" type="matrix" values="0 0 0 0 0 0 0 0 0 0 0 0 0 0 0 0 0 0 .4 0"/><feOffset dx="4.0" dy="4.0" in="blurOut2" result="blurOut3"/><feBlend in="SourceGraphic" in2="blurOut3" mode="normal"/></filter></defs><g><!--MD5=[f4149bb89eb16dd1dc08d39b892ab126]
cluster nl.talsmasoftware.umldoclet--><polygon fill="#FFFFFF" filter="url(#f140n1e4ri5mjh)" points="16,129,245,129,252,151.2969,286,151.2969,286,279,16,279,16,129" style="stroke:#000000;stroke-width:1.5;"/><line style="stroke:#000000;stroke-width:1.5;" x1="16" x2="252" y1="151.2969" y2="151.2969"/><text fill="#000000" font-family="sans-serif" font-size="14" font-weight="bold" lengthAdjust="spacing" textLength="223" x="20" y="143.9951">nl.talsmasoftware.umldoclet</text><!--MD5=[f69f7ed101ebf9bd98ba633bef50e1e4]
cluster jdk.javadoc.doclet--><polygon fill="#FFFFFF" filter="url(#f140n1e4ri5mjh)" points="70,6,218,6,225,28.2969,232,28.2969,232,105,70,105,70,6" style="stroke:#000000;stroke-width:1.5;"/><line style="stroke:#000000;stroke-width:1.5;" x1="70" x2="225" y1="28.2969" y2="28.2969"/><text fill="#000000" font-family="sans-serif" font-size="14" font-weight="bold" lengthAdjust="spacing" textLength="142" x="74" y="20.9951">jdk.javadoc.doclet</text><!--MD5=[a2288cf04698cd4f8cd40629c7b02e85]
class nl.talsmasoftware.umldoclet.UMLDoclet--><a href="UMLDoclet.html" target="_top" title="UMLDoclet.html" xlink:actuate="onRequest" xlink:href="UMLDoclet.html" xlink:show="new" xlink:title="UMLDoclet.html" xlink:type="simple"><rect codeLine="3" fill="#FEFECE" filter="url(#f140n1e4ri5mjh)" height="99.2188" id="nl.talsmasoftware.umldoclet.UMLDoclet" style="stroke:#A80036;stroke-width:1.5;" width="237" x="32.5" y="164"/><ellipse cx="114.25" cy="180" fill="#ADD1B2" rx="11" ry="11" style="stroke:#A80036;stroke-width:1.0;"/><path d="M117.2188,185.6406 Q116.6406,185.9375 116,186.0781 Q115.3594,186.2344 114.6563,186.2344 Q112.1563,186.2344 110.8281,184.5938 Q109.5156,182.9375 109.5156,179.8125 Q109.5156,176.6875 110.8281,175.0313 Q112.1563,173.375 114.6563,173.375 Q115.3594,173.375 116,173.5313 Q116.6563,173.6875 117.2188,173.9844 L117.2188,176.7031 Q116.5938,176.125 116,175.8594 Q115.4063,175.5781 114.7813,175.5781 Q113.4375,175.5781 112.75,176.6563 Q112.0625,177.7188 112.0625,179.8125 Q112.0625,181.9063 112.75,182.9844 Q113.4375,184.0469 114.7813,184.0469 Q115.4063,184.0469 116,183.7813 Q116.5938,183.5 117.2188,182.9219 L117.2188,185.6406 Z " fill="#000000"/><text fill="#000000" font-family="sans-serif" font-size="12" lengthAdjust="spacing" textLength="65" x="134.75" y="184.1543">UMLDoclet</text><line style="stroke:#A80036;stroke-width:1.5;" x1="33.5" x2="268.5" y1="196" y2="196"/><line style="stroke:#A80036;stroke-width:1.5;" x1="33.5" x2="268.5" y1="204" y2="204"/><ellipse cx="43.5" cy="215" fill="#84BE84" rx="3" ry="3" style="stroke:#038048;stroke-width:1.0;"/><text fill="#000000" font-family="sans-serif" font-size="11" lengthAdjust="spacing" textLength="149" x="52.5" y="218.2104">init(Locale, Reporter): void</text><ellipse cx="43.5" cy="227.8047" fill="#84BE84" rx="3" ry="3" style="stroke:#038048;stroke-width:1.0;"/><text fill="#000000" font-family="sans-serif" font-size="11" lengthAdjust="spacing" textLength="101" x="52.5" y="231.0151">getName(): String</text><ellipse cx="43.5" cy="240.6094" fill="#84BE84" rx="3" ry="3" style="stroke:#038048;stroke-width:1.0;"/><text fill="#000000" font-family="sans-serif" font-size="11" lengthAdjust="spacing" textLength="211" x="52.5" y="243.8198">getSupportedOptions(): Set&lt;Option&gt;</text><ellipse cx="43.5" cy="253.4141" fill="#84BE84" rx="3" ry="3" style="stroke:#038048;stroke-width:1.0;"/><text fill="#000000" font-family="sans-serif" font-size="11" lengthAdjust="spacing" textLength="186" x="52.5" y="256.6245">run(DocletEnvironment): boolean</text></a><!--MD5=[0d847013f001aef9a4c050ece164a219]
class jdk.javadoc.doclet.StandardDoclet--><a href="https://docs.oracle.com/javase/9/docs/api/jdk/javadoc/doclet/StandardDoclet.html?is-external=true" target="_top" title="https://docs.oracle.com/javase/9/docs/api/jdk/javadoc/doclet/StandardDoclet.html?is-external=true" xlink:actuate="onRequest" xlink:href="https://docs.oracle.com/javase/9/docs/api/jdk/javadoc/doclet/StandardDoclet.html?is-external=true" xlink:show="new" xlink:title="https://docs.oracle.com/javase/9/docs/api/jdk/javadoc/doclet/StandardDoclet.html?is-external=true" xlink:type="simple"><rect codeLine="14" fill="#FEFECE" filter="url(#f140n1e4ri5mjh)" height="48" id="jdk.javadoc.doclet.StandardDoclet" style="stroke:#A80036;stroke-width:1.5;" width="130" x="86" y="41"/><ellipse cx="101" cy="57" fill="#ADD1B2" rx="11" ry="11" style="stroke:#A80036;stroke-width:1.0;"/><path d="M103.9688,62.6406 Q103.3906,62.9375 102.75,63.0781 Q102.1094,63.2344 101.4063,63.2344 Q98.9063,63.2344 97.5781,61.5938 Q96.2656,59.9375 96.2656,56.8125 Q96.2656,53.6875 97.5781,52.0313 Q98.9063,50.375 101.4063,50.375 Q102.1094,50.375 102.75,50.5313 Q103.4063,50.6875 103.9688,50.9844 L103.9688,53.7031 Q103.3438,53.125 102.75,52.8594 Q102.1563,52.5781 101.5313,52.5781 Q100.1875,52.5781 99.5,53.6563 Q98.8125,54.7188 98.8125,56.8125 Q98.8125,58.9063 99.5,59.9844 Q100.1875,61.0469 101.5313,61.0469 Q102.1563,61.0469 102.75,60.7813 Q103.3438,60.5 103.9688,59.9219 L103.9688,62.6406 Z " fill="#000000"/><text fill="#000000" font-family="sans-serif" font-size="12" lengthAdjust="spacing" textLength="98" x="115" y="61.1543">StandardDoclet</text><line style="stroke:#A80036;stroke-width:1.5;" x1="87" x2="215" y1="73" y2="73"/><line style="stroke:#A80036;stroke-width:1.5;" x1="87" x2="215" y1="81" y2="81"/></a><!--MD5=[d35911f9511f32537e97856922834729]
reverse link jdk.javadoc.doclet.StandardDoclet to nl.talsmasoftware.umldoclet.UMLDoclet--><path codeLine="10" d="M151,109.48 C151,126.6 151,146.34 151,163.93 " fill="none" id="jdk.javadoc.doclet.StandardDoclet-backto-nl.talsmasoftware.umldoclet.UMLDoclet" style="stroke:#A80036;stroke-width:1.0;"/><polygon fill="none" points="144,109.21,151,89.21,158,109.21,144,109.21" style="stroke:#A80036;stroke-width:1.0;"/><text fill="#888888" font-family="sans-serif" font-size="10" lengthAdjust="spacing" textLength="186" x="52" y="294.2822">UMLDoclet 2.0.14, PlantUML 1.2021.9</text><!--MD5=[a28d30a1489908fdc03daea3584a5773]
@startuml
    namespace nl.talsmasoftware.umldoclet {

        class UMLDoclet [[UMLDoclet.html]] {
            +init(Locale, Reporter): void
            +getName(): String
            +getSupportedOptions(): Set<Option>
            +run(DocletEnvironment): boolean
        }

        jdk.javadoc.doclet.StandardDoclet <|- - UMLDoclet
    }

    namespace jdk.javadoc.doclet {
        class StandardDoclet [[https://docs.oracle.com/javase/9/docs/api/jdk/javadoc/doclet/StandardDoclet.html?is-external=true]] {
        }
    }

    center footer UMLDoclet 2.0.14, PlantUML 1.2021.9
@enduml

PlantUML version 1.2021.9(Sun Jul 25 10:13:56 UTC 2021)
(APACHE source distribution)
Java Runtime: OpenJDK Runtime Environment
JVM: OpenJDK 64-Bit Server VM
Default Encoding: UTF-8
Language: en
Country: null
--></g></svg>