<?xml version="1.0" encoding="UTF-8" standalone="no"?><svg xmlns="http://www.w3.org/2000/svg" xmlns:xlink="http://www.w3.org/1999/xlink" contentScriptType="application/ecmascript" contentStyleType="text/css" height="232px" preserveAspectRatio="none" style="width:258px;height:232px;background:#FFFFFF;" version="1.1" viewBox="0 0 258 232" width="258px" zoomAndPan="magnify"><defs><filter height="300%" id="f1t6gfhipwtcap" width="300%" x="-1" y="-1"><feGaussianBlur result="blurOut" stdDeviation="2.0"/><feColorMatrix in="blurOut" result="blurOut2" type="matrix" values="0 0 0 0 0 0 0 0 0 0 0 0 0 0 0 0 0 0 .4 0"/><feOffset dx="4.0" dy="4.0" in="blurOut2" result="blurOut3"/><feBlend in="SourceGraphic" in2="blurOut3" mode="normal"/></filter></defs><g><!--MD5=[a2288cf04698cd4f8cd40629c7b02e85]
class nl.talsmasoftware.umldoclet.UMLDoclet--><a href="UMLDoclet.html" target="_top" title="UMLDoclet.html" xlink:actuate="onRequest" xlink:href="UMLDoclet.html" xlink:show="new" xlink:title="UMLDoclet.html" xlink:type="simple"><rect codeLine="5" fill="#FEFECE" filter="url(#f1t6gfhipwtcap)" height="97.1563" id="nl.talsmasoftware.umldoclet.UMLDoclet" style="stroke:#A80036;stroke-width:1.5;" width="237" x="7" y="105"/><ellipse cx="52.75" cy="123.9688" fill="#ADD1B2" rx="11" ry="11" style="stroke:#A80036;stroke-width:1.0;"/><path d="M55.7188,129.6094 Q55.1406,129.9063 54.5,130.0469 Q53.8594,130.2031 53.1563,130.2031 Q50.6563,130.2031 49.3281,128.5625 Q48.0156,126.9063 48.0156,123.7813 Q48.0156,120.6563 49.3281,119 Q50.6563,117.3438 53.1563,117.3438 Q53.8594,117.3438 54.5,117.5 Q55.1563,117.6563 55.7188,117.9531 L55.7188,120.6719 Q55.0938,120.0938 54.5,119.8281 Q53.9063,119.5469 53.2813,119.5469 Q51.9375,119.5469 51.25,120.625 Q50.5625,121.6875 50.5625,123.7813 Q50.5625,125.875 51.25,126.9531 Q51.9375,128.0156 53.2813,128.0156 Q53.9063,128.0156 54.5,127.75 Q55.0938,127.4688 55.7188,126.8906 L55.7188,129.6094 Z " fill="#000000"/><text fill="#000000" font-family="sans-serif" font-size="14" lengthAdjust="spacing" textLength="74" x="104.75" y="122.9951">UMLDoclet</text><text fill="#000000" font-family="sans-serif" font-size="10" lengthAdjust="spacing" textLength="137" x="73.25" y="135.5791">nl.talsmasoftware.umldoclet</text><line style="stroke:#A80036;stroke-width:1.5;" x1="8" x2="243" y1="142.9375" y2="142.9375"/><ellipse cx="18" cy="153.9375" fill="#84BE84" rx="3" ry="3" style="stroke:#038048;stroke-width:1.0;"/><text fill="#000000" font-family="sans-serif" font-size="11" lengthAdjust="spacing" textLength="149" x="27" y="157.1479">init(Locale, Reporter): void</text><ellipse cx="18" cy="166.7422" fill="#84BE84" rx="3" ry="3" style="stroke:#038048;stroke-width:1.0;"/><text fill="#000000" font-family="sans-serif" font-size="11" lengthAdjust="spacing" textLength="101" x="27" y="169.9526">getName(): String</text><ellipse cx="18" cy="179.5469" fill="#84BE84" rx="3" ry="3" style="stroke:#038048;stroke-width:1.0;"/><text fill="#000000" font-family="sans-serif" font-size="11" lengthAdjust="spacing" textLength="211" x="27" y="182.7573">getSupportedOptions(): Set&lt;Option&gt;</text><ellipse cx="18" cy="192.3516" fill="#84BE84" rx="3" ry="3" style="stroke:#038048;stroke-width:1.0;"/><text fill="#000000" font-family="sans-serif" font-size="11" lengthAdjust="spacing" textLength="186" x="27" y="195.562">run(DocletEnvironment): boolean</text></a><!--MD5=[0d847013f001aef9a4c050ece164a219]
class jdk.javadoc.doclet.StandardDoclet--><a href="https://docs.oracle.com/javase/9/docs/api/jdk/javadoc/doclet/StandardDoclet.html?is-external=true" target="_top" title="https://docs.oracle.com/javase/9/docs/api/jdk/javadoc/doclet/StandardDoclet.html?is-external=true" xlink:actuate="onRequest" xlink:href="https://docs.oracle.com/javase/9/docs/api/jdk/javadoc/doclet/StandardDoclet.html?is-external=true" xlink:show="new" xlink:title="https://docs.oracle.com/javase/9/docs/api/jdk/javadoc/doclet/StandardDoclet.html?is-external=true" xlink:type="simple"><rect codeLine="12" fill="#FEFECE" filter="url(#f1t6gfhipwtcap)" height="37.9375" id="jdk.javadoc.doclet.StandardDoclet" style="stroke:#A80036;stroke-width:1.5;" width="139" x="56" y="7"/><ellipse cx="71" cy="25.9688" fill="#ADD1B2" rx="11" ry="11" style="stroke:#A80036;stroke-width:1.0;"/><path d="M73.9688,31.6094 Q73.3906,31.9063 72.75,32.0469 Q72.1094,32.2031 71.4063,32.2031 Q68.9063,32.2031 67.5781,30.5625 Q66.2656,28.9063 66.2656,25.7813 Q66.2656,22.6563 67.5781,21 Q68.9063,19.3438 71.4063,19.3438 Q72.1094,19.3438 72.75,19.5 Q73.4063,19.6563 73.9688,19.9531 L73.9688,22.6719 Q73.3438,22.0938 72.75,21.8281 Q72.1563,21.5469 71.5313,21.5469 Q70.1875,21.5469 69.5,22.625 Q68.8125,23.6875 68.8125,25.7813 Q68.8125,27.875 69.5,28.9531 Q70.1875,30.0156 71.5313,30.0156 Q72.1563,30.0156 72.75,29.75 Q73.3438,29.4688 73.9688,28.8906 L73.9688,31.6094 Z " fill="#000000"/><text fill="#000000" font-family="sans-serif" font-size="14" lengthAdjust="spacing" textLength="107" x="85" y="24.9951">StandardDoclet</text><text fill="#000000" font-family="sans-serif" font-size="10" lengthAdjust="spacing" textLength="85" x="96" y="37.5791">jdk.javadoc.doclet</text></a><!--MD5=[d35911f9511f32537e97856922834729]
reverse link jdk.javadoc.doclet.StandardDoclet to nl.talsmasoftware.umldoclet.UMLDoclet--><path codeLine="14" d="M125.5,65.52 C125.5,77.97 125.5,91.93 125.5,104.96 " fill="none" id="jdk.javadoc.doclet.StandardDoclet-backto-nl.talsmasoftware.umldoclet.UMLDoclet" style="stroke:#A80036;stroke-width:1.0;"/><polygon fill="none" points="118.5,65.25,125.5,45.25,132.5,65.25,118.5,65.25" style="stroke:#A80036;stroke-width:1.0;"/><text fill="#888888" font-family="sans-serif" font-size="10" lengthAdjust="spacing" textLength="186" x="29.5" y="224.4385">UMLDoclet 2.0.14, PlantUML 1.2021.9</text><!--MD5=[7da7a3e8ce707a0d8bf4aae155d40a5e]
@startuml
    set namespaceSeparator none
    hide empty fields
    hide empty methods

    class "<size:14>UMLDoclet\n<size:10>nl.talsmasoftware.umldoclet" as nl.talsmasoftware.umldoclet.UMLDoclet [[UMLDoclet.html]] {
        +init(Locale, Reporter): void
        +getName(): String
        +getSupportedOptions(): Set<Option>
        +run(DocletEnvironment): boolean
    }

    class "<size:14>StandardDoclet\n<size:10>jdk.javadoc.doclet" as jdk.javadoc.doclet.StandardDoclet [[https://docs.oracle.com/javase/9/docs/api/jdk/javadoc/doclet/StandardDoclet.html?is-external=true]]

    jdk.javadoc.doclet.StandardDoclet <|- - nl.talsmasoftware.umldoclet.UMLDoclet

    center footer UMLDoclet 2.0.14, PlantUML 1.2021.9
@enduml

PlantUML version 1.2021.9(Sun Jul 25 10:13:56 UTC 2021)
(APACHE source distribution)
Java Runtime: OpenJDK Runtime Environment
JVM: OpenJDK 64-Bit Server VM
Default Encoding: UTF-8
Language: en
Country: null
--></g></svg>